<svg width="309" height="78" viewBox="0 0 309 78" fill="none" xmlns="http://www.w3.org/2000/svg">
<path d="M87.4718 71.1053L87.3686 75.956H59.7094L59.0901 72.6534L67.9658 69.454L67.3466 32.6095L68.7915 15.5805L47.6343 74.3047L38.6553 76.6784L16.8789 16.4062L18.8398 32.6095L17.9109 70.0733L26.5802 71.1053L26.477 75.956H1.29477L0.675537 72.6534C2.67085 71.6902 5.73263 70.5893 9.86087 69.3508L11.8218 14.6516L3.66851 13.7228L3.77172 8.87212H24.5161L44.6413 64.8098L64.4568 8.87212H83.3435L83.9628 12.1747C82.2427 13.0004 79.6969 13.9292 76.3255 14.9613L77.2544 69.9701L87.4718 71.1053Z" fill="#574F48"/>
<path d="M101.839 48.916C101.839 55.7276 103.387 60.8879 106.483 64.3969C109.648 67.9059 113.742 69.6604 118.765 69.6604C122.48 69.6604 126.884 68.5252 131.975 66.2546L133.523 70.6925L117.423 77.5041C109.855 77.5041 103.731 75.1991 99.0526 70.5893C94.4427 65.9106 92.1378 59.9247 92.1378 52.6314C92.1378 45.2006 94.4083 38.8362 98.9494 33.5383C103.559 28.2404 109.167 25.5915 115.772 25.5915C119.35 25.5915 122.549 26.3827 125.37 27.9652C128.26 29.5477 130.462 31.715 131.975 34.4672C133.558 37.2194 134.315 40.2811 134.246 43.6525L128.363 49.4321L101.839 48.916ZM110.612 31.887C106.69 33.9512 104.041 37.8042 102.665 43.4461L125.267 42.4141C124.579 39.1115 122.859 36.4625 120.107 34.4672C117.423 32.4719 114.258 31.6118 110.612 31.887Z" fill="#574F48"/>
<path d="M181.143 28.1716C181.418 33.2631 180.799 38.8362 179.286 44.891H173.712L172.577 33.5383C167.004 36.6345 162.291 40.7284 158.438 45.8199V69.1444C163.461 69.4884 167.004 70.1077 169.068 71.0021L168.449 75.956H142.235L141.719 72.5502L149.253 69.7636V33.4351L141.512 34.0544L140.274 29.2037C144.884 27.2084 149.562 26.1419 154.31 26.0043L158.438 29.6165V39.0083L169.275 27.4492C171.27 26.6235 173.093 26.2107 174.745 26.2107C176.946 26.2107 179.079 26.8644 181.143 28.1716Z" fill="#574F48"/>
<path d="M205.578 69.3508C209.018 69.7636 211.495 70.3141 213.009 71.0021L212.39 75.956H189.065L188.549 72.5502C190.2 71.7246 192.815 70.7613 196.393 69.6604V7.53044L188.652 8.14968L187.414 3.29899C192.024 1.30368 196.702 0.237216 201.45 0.0996094L205.578 3.71182V69.3508Z" fill="#574F48"/>
<path d="M233.27 16.819C229.899 15.3741 227.25 13.31 225.324 10.6266C227.112 6.91121 229.211 4.29665 231.619 2.78296C234.715 4.02143 237.295 6.08555 239.36 8.97532C238.259 12.1403 236.229 14.7549 233.27 16.819ZM237.399 69.3508C240.839 69.7636 243.316 70.3141 244.829 71.0021L244.21 75.956H220.886L220.37 72.5502C222.021 71.7246 224.635 70.7613 228.213 69.6604V33.4351L220.473 34.0544L219.234 29.2037C223.844 27.2084 228.523 26.1419 233.27 26.0043L237.399 29.6165V69.3508Z" fill="#574F48"/>
<path d="M301.614 69.3508C305.123 69.8324 307.531 70.3829 308.838 71.0021L308.219 75.956H287.062L286.546 72.5502L292.428 70.2797V45.407C292.428 37.9762 290.227 34.2608 285.823 34.2608C281.833 34.2608 276.466 36.8409 269.723 42.0012V69.454C272.613 69.798 274.849 70.3141 276.431 71.0021L275.812 75.956H253.726L253.21 72.5502L260.538 69.8668V33.4351L252.797 34.0544L251.559 29.2037C256.169 27.2084 260.847 26.1419 265.595 26.0043L269.723 29.6165V36.4281C280.044 29.4789 287.062 26.0043 290.777 26.0043C292.772 26.3483 294.768 27.3804 296.763 29.1005C298.827 30.7518 300.134 32.4719 300.685 34.2608C301.304 36.0497 301.614 39.3867 301.614 44.2718V69.3508Z" fill="#574F48"/>
</svg>
