<svg width="124" height="33" viewBox="0 0 124 33" fill="none" xmlns="http://www.w3.org/2000/svg">
<g clip-path="url(#clip0)">
<path fill-rule="evenodd" clip-rule="evenodd" d="M89.95 12.0501C90.35 12.2501 90.75 12.4501 91.25 12.5501C92.25 12.6501 93.15 12.7501 94.15 12.8501C95.35 12.9501 116.95 12.9501 117.25 13.2501H117.45C117.85 13.1501 118.25 13.4501 118.75 13.3501C118.75 13.3501 118.85 13.3501 118.85 13.4501C119.15 13.6501 119.55 13.7501 119.85 13.8501C120.55 14.2501 122.35 15.5501 122.45 15.5501C122.75 15.7501 123.15 15.8501 123.25 16.2501L123.35 16.3501C123.65 16.6501 123.75 17.0501 123.45 17.3501C123.05 17.7501 122.65 18.1501 122.25 18.3501C121.45 18.7501 118.15 20.4501 117.75 20.4501C117.45 20.5501 115.25 20.6501 114.65 20.6501C114.25 20.6501 113.95 20.6501 113.55 20.6501C113.25 20.6501 112.85 20.7501 112.55 20.7501C112.25 20.7501 93.85 20.7501 91.95 20.8501C91.05 20.8501 90.25 20.9501 89.45 21.6501C89.15 21.9501 88.85 22.1501 88.95 22.5501C88.95 22.6501 88.95 22.6501 88.95 22.7501C88.95 23.2501 88.85 23.7501 89.05 24.2501C89.15 24.8501 89.55 25.3501 90.25 25.4501C90.45 25.4501 90.65 25.6501 90.85 25.7501C91.15 25.8501 113.05 25.9501 113.55 26.0501C113.85 26.0501 117.55 25.9501 117.65 26.0501C118.45 26.5501 121.85 28.3501 122.45 28.7501C122.65 28.8501 122.75 29.0501 122.65 29.2501C122.55 29.5501 122.35 29.8501 122.05 30.0501C121.75 30.3501 119.65 31.3501 119.05 31.7501C118.85 31.8501 116.75 32.7501 116.65 32.7501C116.55 32.7501 116.45 32.7501 116.35 32.7501C115.85 32.8501 115.35 32.8501 114.75 32.9501C114.65 32.9501 113.95 32.9501 113.85 32.9501C113.05 32.9501 92.45 32.7501 92.15 32.7501C91.95 32.6501 85.95 32.8501 82.45 32.3501C80.95 32.1501 79.55 30.9501 79.05 30.6501C78.85 30.5501 78.45 30.0501 78.35 29.9501C78.15 29.7501 77.85 29.3501 77.75 29.0501C77.65 28.7501 76.95 23.5501 76.85 22.6501C76.35 20.6501 74.75 20.3501 74.65 20.0501C74.25 19.9501 60.95 19.1501 60.85 19.1501C60.45 19.1501 59.95 19.1501 59.55 19.1501C59.05 19.1501 53.55 18.9501 53.45 18.9501C52.95 18.8501 52.25 19.6501 51.85 20.0501C51.35 20.5501 49.35 20.8501 49.25 20.8501C48.65 20.9501 48.15 21.0501 47.55 21.0501C47.25 21.0501 44.05 21.1501 42.75 21.2501C42.05 21.2501 36.35 21.1501 35.35 21.1501C34.55 21.1501 31.55 21.8501 31.45 21.7501C31.15 21.7501 19.55 22.1501 18.75 22.1501C17.95 22.1501 16.35 22.2501 16.25 22.2501C15.25 22.2501 9.84996 22.2501 9.44996 22.2501C9.04996 22.2501 5.04996 21.6501 4.64996 21.5501C4.14996 21.5501 3.64996 21.1501 3.24996 21.0501C1.24996 20.0501 1.54996 19.6501 0.849958 18.2501C0.849958 18.1501 0.149958 16.1501 0.749958 13.4501C1.24996 11.1501 2.34996 10.6501 4.14996 10.0501C4.64996 9.85013 4.74996 9.85013 5.64996 9.75013C6.34996 9.75013 7.24996 9.55013 7.94996 9.55013C8.24996 9.55013 13.65 9.35013 14.05 9.35013C15.05 9.35013 15.95 9.35013 16.95 9.45013C17.35 9.45013 17.75 9.45013 18.15 9.45013C18.75 9.45013 22.45 9.55013 23.05 9.55013C23.55 9.55013 32.15 9.65013 32.35 9.75013C32.45 9.75013 48.55 11.3501 48.45 11.2501C52.15 12.0501 52.75 13.0501 52.75 13.4501C52.85 13.4501 53.15 13.6501 53.15 13.8501C53.25 13.8501 74.35 13.5501 74.75 13.3501C75.05 13.1501 75.35 12.9501 75.65 12.6501C76.35 12.2501 77.85 8.25013 77.95 7.75013C78.05 7.35013 78.35 5.95013 78.45 5.65013C78.95 4.75013 79.65 4.05013 80.25 3.25013C80.45 3.05013 81.65 2.35013 81.95 2.15013C82.05 2.05013 85.95 1.05013 86.55 0.850134C87.05 0.750134 89.55 0.650134 90.05 0.650134C90.15 0.650134 90.35 0.550134 90.45 0.550134C90.85 0.650134 117.65 0.550134 117.95 0.450134C118.05 0.450134 118.25 0.450134 118.35 0.450134C118.55 0.550134 123.05 3.65013 123.25 3.95013C123.35 4.05013 123.35 4.25013 123.35 4.25013C123.15 4.55013 123.05 4.85013 122.85 4.95013C122.35 5.35013 121.85 5.75013 121.25 6.05013C120.65 6.35013 120.15 6.65013 119.55 7.05013C119.35 7.15013 119.15 7.35013 118.85 7.25013H118.75C118.25 7.25013 117.65 7.35013 117.15 7.35013C116.55 7.65013 94.95 8.15013 93.85 8.15013C92.85 8.15013 91.85 8.05013 90.85 8.45013H90.75C90.15 8.45013 89.85 8.65013 89.85 9.25013C89.85 9.55013 89.45 10.2501 89.45 10.3501C89.45 10.4501 89.75 11.4501 89.85 11.8501C89.75 11.8501 89.85 12.0501 89.95 12.0501ZM23.95 20.6501L24.05 20.7501C25.05 20.7501 26.05 20.8501 27.05 20.7501C27.15 20.7501 27.35 20.6501 27.45 20.5501C27.35 20.5501 27.25 20.4501 27.15 20.4501C26.15 20.4501 25.05 20.5501 23.95 20.6501C23.95 20.5501 23.95 20.6501 23.95 20.6501ZM11.45 21.2501C11.65 21.3501 11.85 21.4501 11.95 21.4501C12.95 21.4501 13.95 21.3501 14.95 21.3501C15.75 21.3501 16.65 21.3501 17.45 21.3501C18.75 21.3501 20.15 21.4501 21.45 21.0501C21.75 20.9501 22.15 20.9501 22.55 20.8501V20.7501C21.65 20.6501 20.85 20.7501 19.95 20.5501C19.45 20.4501 19.15 20.8501 18.65 20.7501C18.65 20.6501 18.65 20.6501 18.55 20.5501C18.65 20.5501 18.75 20.4501 18.85 20.4501L18.75 20.3501C18.05 20.3501 17.45 20.2501 16.75 20.2501C16.15 20.2501 15.65 20.2501 15.05 20.2501C14.15 20.2501 13.25 20.2501 12.45 20.3501C12.05 20.3501 11.75 20.5501 11.35 20.6501C11.25 20.9501 11.25 21.0501 11.45 21.2501ZM10.65 21.3501C10.55 20.9501 10.65 20.6501 10.85 20.4501C11.05 20.1501 11.35 20.1501 11.65 20.0501C12.65 19.8501 13.75 19.8501 14.85 19.8501C15.55 19.8501 16.35 19.8501 17.05 19.9501C18.05 19.9501 18.95 19.9501 19.95 19.9501C20.85 19.9501 21.85 20.1501 22.75 20.2501C23.05 20.2501 23.25 20.1501 23.45 20.4501C23.45 20.5501 23.65 20.4501 23.75 20.4501C23.95 20.4501 24.15 20.3501 24.35 20.3501C25.25 20.3501 26.15 20.2501 27.15 20.2501C27.85 20.2501 28.65 20.1501 29.25 20.1501C29.55 19.8501 29.75 19.5501 30.05 19.2501C29.85 19.2501 29.65 19.1501 29.45 19.1501C28.15 19.0501 26.95 18.9501 25.65 18.8501C24.95 18.8501 24.35 18.8501 23.65 18.7501C23.35 18.7501 23.05 18.6501 22.85 18.7501C22.45 18.7501 22.05 18.8501 21.65 18.8501C20.85 18.9501 20.15 18.9501 19.35 18.8501C18.25 18.7501 17.15 18.7501 16.15 18.7501C14.95 18.7501 13.75 18.6501 12.65 18.6501C12.15 18.6501 11.65 18.5501 11.15 18.5501C10.95 18.5501 10.75 18.6501 10.55 18.6501C9.44996 18.6501 8.34996 18.6501 7.24996 18.6501C6.84996 18.6501 6.54996 18.6501 6.14996 18.6501V18.7501C6.34996 18.9501 6.54996 19.1501 6.74996 19.2501C7.54996 19.9501 8.44996 20.5501 9.34996 20.9501C9.64996 21.2501 10.15 21.2501 10.65 21.3501ZM12.25 17.6501C12.35 17.6501 12.45 17.6501 12.65 17.6501C12.95 17.6501 13.25 17.6501 13.35 17.1501C13.35 17.0501 13.45 17.0501 13.55 16.9501C13.95 16.6501 14.15 16.3501 14.25 15.9501C13.85 15.9501 13.25 15.7501 13.05 16.1501C12.75 16.6501 12.15 16.7501 11.95 17.2501C11.95 17.3501 11.75 17.3501 11.65 17.3501C11.65 17.2501 11.65 17.0501 11.65 16.9501C11.85 16.5501 12.15 16.2501 12.45 15.9501C11.95 15.7501 11.75 15.7501 11.45 16.1501C11.35 16.2501 11.25 16.4501 11.15 16.5501C10.95 16.8501 10.65 17.0501 10.35 17.3501C10.65 17.4501 10.95 17.4501 11.25 17.5501C11.25 17.6501 11.25 17.6501 11.25 17.7501C11.05 17.7501 10.95 17.8501 10.75 17.7501C9.54996 17.5501 8.24996 17.6501 7.04996 17.9501C7.74996 17.9501 8.44996 17.8501 9.14996 17.8501C9.04996 17.9501 8.94996 18.0501 8.94996 18.1501C11.45 18.3501 13.95 18.4501 16.55 18.3501C15.95 18.2501 15.45 18.1501 14.85 18.1501C14.25 18.0501 13.65 18.1501 13.05 18.0501C12.85 17.9501 12.55 17.7501 12.25 17.6501ZM14.85 14.5501C14.45 14.4501 14.45 14.4501 14.05 15.0501C14.75 15.1501 14.75 15.1501 14.85 14.5501ZM14.05 14.6501C13.65 14.4501 13.55 14.5501 13.35 15.0501C13.75 15.0501 13.75 15.0501 14.05 14.6501ZM12.35 12.3501C12.45 12.0501 12.65 11.8501 12.85 11.6501C12.15 11.6501 11.65 12.0501 11.55 12.6501C11.95 12.7501 12.15 12.6501 12.35 12.3501ZM10.95 14.6501C11.25 14.7501 11.45 14.8501 11.75 14.8501C11.85 14.6501 11.95 14.5501 12.05 14.4501C11.35 14.2501 11.35 14.2501 10.95 14.6501ZM12.45 14.9501C12.65 14.9501 12.75 15.0501 12.85 15.0501C12.95 14.8501 13.05 14.6501 13.15 14.3501C12.75 14.3501 12.75 14.7501 12.45 14.9501ZM5.14996 20.3501C5.44996 20.7501 5.84996 20.7501 6.24996 20.8501C6.84996 21.0501 7.54996 21.1501 8.14996 21.2501C8.34996 21.2501 8.54996 21.2501 8.84996 21.3501C7.64996 20.6501 6.64996 19.9501 5.74996 19.0501C5.54996 18.8501 5.44996 18.8501 5.24996 18.9501C4.74996 19.2501 4.64996 19.8501 5.14996 20.3501ZM3.74996 16.3501C3.94996 15.9501 4.14996 15.5501 4.34996 15.0501C3.64996 15.5501 3.54996 15.7501 3.74996 16.3501ZM5.94996 14.7501C5.54996 15.4501 5.24996 16.0501 4.84996 16.7501C4.74996 16.9501 4.54996 17.1501 4.14996 16.9501C4.44996 16.4501 4.74996 16.0501 5.14996 15.5501C4.94996 15.4501 4.64996 15.7501 4.54996 15.3501C4.24996 15.9501 4.04996 16.3501 3.84996 16.8501C3.84996 16.9501 3.84996 17.1501 3.84996 17.2501C3.94996 17.7501 4.04996 18.2501 4.14996 18.7501C4.14996 18.9501 4.14996 19.1501 4.04996 19.3501C3.54996 18.8501 3.64996 18.2501 3.44996 17.6501C3.24996 17.7501 3.14996 17.7501 2.94996 17.8501C2.94996 17.6501 2.94996 17.4501 3.04996 17.3501C3.44996 17.0501 3.24996 16.6501 3.14996 16.3501C2.74996 16.5501 2.74996 17.0501 2.34996 17.2501C2.14996 17.3501 2.14996 18.1501 2.44996 18.2501C3.04996 18.6501 3.24996 19.3501 3.74996 19.8501C3.94996 20.0501 4.04996 20.1501 4.44996 20.1501C4.24996 19.5501 4.44996 19.1501 4.74996 18.7501C4.94996 18.4501 5.04996 18.2501 5.34996 18.1501C5.54996 18.0501 5.64996 17.8501 5.84996 17.7501C6.14996 17.6501 6.34996 17.6501 6.64996 17.5501C6.84996 17.4501 7.04996 17.4501 7.24996 17.3501C7.44996 17.0501 7.74996 16.7501 7.94996 16.4501C7.94996 16.4501 7.94996 16.4501 7.94996 16.3501C7.84996 16.4501 7.74996 16.4501 7.64996 16.5501C7.24996 16.8501 7.04996 16.8501 6.74996 16.4501C6.44996 16.9501 6.14996 17.3501 5.84996 17.7501C5.54996 17.7501 5.34996 17.8501 5.24996 17.3501C6.04996 17.2501 6.24996 16.5501 6.64996 15.9501C6.64996 15.9501 6.64996 15.8501 6.54996 15.8501C6.44996 15.9501 6.24996 16.0501 6.14996 16.1501C5.94996 16.2501 5.84996 16.2501 5.74996 16.1501C5.64996 15.9501 5.74996 15.8501 5.94996 15.7501C6.34996 15.5501 6.64996 15.1501 7.04996 14.8501C6.64996 14.6501 6.34996 14.7501 5.94996 14.7501ZM7.54996 14.8501C7.34996 15.2501 7.04996 15.7501 6.84996 16.1501C7.54996 16.2501 7.94996 15.8501 8.54996 14.9501C8.24996 14.9501 7.84996 14.8501 7.54996 14.8501ZM8.84996 14.6501C8.24996 14.2501 7.94996 14.1501 7.74996 14.6501C8.14996 14.5501 8.44996 14.5501 8.84996 14.6501ZM7.44996 10.7501C7.44996 11.2501 7.34996 11.7501 7.34996 12.2501C7.34996 12.2501 7.34996 12.2501 7.44996 12.2501C7.84996 11.7501 8.14996 11.2501 8.54996 10.6501C8.04996 10.4501 7.74996 10.8501 7.44996 10.7501ZM8.84996 10.9501C8.54996 11.3501 8.14996 11.7501 7.84996 12.2501C8.74996 12.2501 8.54996 11.4501 8.94996 11.0501C8.94996 11.0501 8.94996 11.0501 8.84996 10.9501ZM8.94996 15.2501C8.54996 15.9501 8.24996 16.5501 7.84996 17.1501C8.44996 17.1501 9.14996 17.1501 9.84996 17.0501C9.94996 16.7501 10.15 16.5501 10.55 16.4501C10.95 16.3501 11.15 16.0501 11.35 15.6501C10.95 15.6501 10.65 15.5501 10.25 15.4501C10.05 15.7501 9.84996 16.1501 9.64996 16.4501C9.54996 16.6501 9.24996 16.7501 9.04996 16.8501C8.84996 16.8501 8.64996 16.7501 8.44996 16.7501V16.6501C8.94996 16.2501 9.34996 15.8501 9.84996 15.4501C9.74996 15.2501 9.64996 15.1501 9.54996 15.0501C9.34996 14.9501 9.04996 15.0501 8.94996 15.2501ZM9.04996 10.7501C9.64996 10.9501 9.04996 11.4501 9.14996 11.8501C9.54996 11.4501 9.84996 11.0501 10.05 10.6501C9.64996 10.4501 9.34996 10.5501 9.04996 10.7501ZM11.55 10.5501C10.75 10.4501 10.35 10.9501 9.94996 11.5501C9.84996 11.6501 9.74996 11.8501 9.64996 11.9501C10.05 11.9501 10.25 11.8501 10.35 11.4501C10.35 11.2501 10.45 11.1501 10.55 10.9501H10.65C10.75 11.1501 10.75 11.2501 10.85 11.4501C11.35 11.5501 11.55 11.3501 11.55 10.5501C11.65 10.5501 11.55 10.5501 11.55 10.5501ZM11.95 11.4501C12.55 11.2501 13.15 11.1501 13.65 10.6501C12.85 10.3501 12.45 10.5501 11.95 11.4501ZM14.65 10.5501C14.55 10.6501 14.35 10.6501 14.25 10.7501C14.15 10.8501 14.05 10.9501 13.95 11.1501C13.85 11.3501 13.75 11.6501 13.65 11.9501C13.65 12.0501 13.65 12.1501 13.55 12.2501C14.35 11.8501 14.95 11.3501 15.45 10.6501C15.15 10.4501 14.95 10.4501 14.65 10.5501ZM16.05 10.5501C15.75 10.7501 15.55 11.0501 15.25 11.3501C15.65 11.1501 15.95 11.3501 16.25 10.9501C16.35 10.7501 16.85 10.6501 17.05 10.4501C16.75 10.4501 16.35 10.4501 16.05 10.5501ZM17.15 11.5501C16.95 11.7501 16.85 11.9501 16.65 12.0501C16.35 12.2501 16.15 12.4501 16.05 12.8501C16.35 12.8501 16.55 12.8501 16.75 12.8501C16.85 12.8501 17.05 12.7501 17.05 12.6501C17.25 12.3501 17.35 11.9501 17.55 11.5501C17.35 11.5501 17.25 11.5501 17.15 11.5501ZM18.05 13.7501C18.15 13.7501 18.25 13.5501 18.35 13.3501C17.95 13.3501 17.75 13.3501 17.45 13.3501C17.35 13.5501 17.35 13.6501 17.15 13.8501C17.55 13.7501 17.85 13.7501 18.05 13.7501ZM17.75 15.3501C18.15 15.2501 18.45 15.2501 18.75 15.1501C18.05 14.8501 18.05 14.8501 17.75 15.3501ZM16.35 15.2501C16.75 15.2501 17.15 15.2501 17.35 14.7501C16.95 14.7501 16.45 14.5501 16.35 15.2501ZM17.75 12.9501C17.95 12.9501 18.25 12.8501 18.45 12.8501C18.55 12.8501 18.55 12.7501 18.65 12.6501C18.75 12.2501 18.95 11.9501 18.95 11.5501C18.45 11.9501 18.15 12.4501 17.75 12.9501ZM18.05 11.0501C18.65 11.1501 18.65 11.1501 19.05 10.5501C18.75 10.6501 18.45 10.8501 18.05 11.0501ZM21.05 10.5501C20.75 10.5501 20.45 10.5501 20.15 10.5501C19.65 10.5501 19.55 10.5501 19.55 11.1501C19.65 11.1501 19.75 11.2501 19.85 11.3501C19.95 11.3501 19.95 11.4501 20.15 11.5501C19.85 11.5501 19.65 11.6501 19.45 11.6501C19.35 11.8501 19.35 12.0501 19.25 12.3501C19.15 12.5501 19.05 12.7501 19.05 13.0501C19.85 12.5501 20.45 11.8501 20.55 10.9501C20.75 10.7501 20.95 10.7501 21.05 10.5501C21.15 10.6501 21.05 10.6501 21.05 10.5501ZM18.95 13.8501C19.55 14.0501 19.45 13.5501 19.75 13.3501C19.35 13.3501 19.15 13.4501 18.95 13.8501ZM19.95 13.7501C20.45 13.9501 20.95 13.8501 20.95 13.3501C20.65 13.3501 20.45 13.3501 20.15 13.3501C20.05 13.4501 19.95 13.6501 19.95 13.7501ZM22.15 10.5501C21.85 10.5501 21.55 10.6501 21.45 10.9501C21.25 11.2501 20.95 11.5501 20.85 11.8501C20.65 12.2501 20.55 12.5501 20.35 13.0501C20.65 13.0501 20.95 13.1501 21.15 13.1501C21.45 13.1501 21.55 12.8501 21.45 12.6501C21.35 12.3501 21.25 12.0501 21.55 11.7501C21.65 11.6501 21.75 11.3501 21.85 11.2501C22.15 11.5501 22.65 11.4501 23.15 10.8501C22.75 10.7501 22.45 10.6501 22.15 10.5501ZM21.25 13.9501C21.65 13.7501 22.25 14.1501 22.55 13.5501C21.75 13.3501 21.45 13.4501 21.25 13.9501ZM22.95 12.9501C22.45 12.5501 22.05 12.5501 21.95 12.9501C22.25 12.9501 22.55 12.9501 22.95 12.9501ZM22.75 13.9501C23.05 13.9501 23.35 13.9501 23.65 13.9501C23.85 13.9501 23.95 13.8501 23.85 13.5501C23.55 13.5501 23.05 13.3501 22.75 13.9501ZM23.85 10.9501C23.75 11.3501 23.65 11.6501 23.55 12.0501C24.25 11.9501 24.35 11.2501 24.85 10.9501C24.45 10.8501 24.35 10.8501 23.85 10.9501ZM24.85 12.3501C25.25 12.3501 25.55 12.4501 25.95 12.4501C26.05 12.0501 26.15 11.6501 26.35 11.1501C25.35 10.8501 24.95 11.1501 24.85 12.3501ZM27.45 11.3501C27.15 11.6501 26.85 12.0501 26.55 12.4501C26.85 12.4501 27.15 12.4501 27.35 12.4501C27.45 12.1501 27.55 11.7501 27.55 11.4501C27.55 11.3501 27.45 11.3501 27.45 11.3501ZM26.25 16.4501C26.75 16.3501 26.95 16.0501 27.35 15.6501C27.05 15.6501 26.85 15.6501 26.75 15.6501C26.55 15.9501 26.35 16.1501 26.25 16.4501ZM27.95 11.2501C27.85 11.5501 27.85 11.8501 27.75 12.1501C28.35 12.3501 28.65 12.0501 28.75 11.1501C28.55 11.2501 28.35 11.2501 27.95 11.2501ZM28.75 12.8501C28.85 12.9501 28.85 12.9501 28.75 12.8501C29.05 12.9501 29.15 12.9501 29.35 12.9501C29.35 12.7501 29.45 12.6501 29.45 12.4501C29.35 12.4501 29.15 12.4501 29.05 12.4501C29.05 12.6501 28.95 12.7501 28.75 12.8501ZM29.65 11.3501C29.45 11.5501 29.25 11.7501 28.95 12.0501C29.15 12.0501 29.35 12.0501 29.55 12.0501C29.55 11.8501 29.65 11.6501 29.75 11.4501C29.75 11.4501 29.75 11.3501 29.65 11.3501ZM29.85 15.4501C29.65 15.9501 29.55 16.3501 29.35 16.9501C29.95 16.5501 30.55 16.2501 30.65 15.5501C30.45 15.2501 30.15 15.4501 29.85 15.4501ZM30.45 13.6501C30.95 13.8501 31.05 13.8501 31.25 13.2501C30.85 13.2501 30.65 13.5501 30.45 13.6501ZM31.35 15.7501C30.85 16.1501 30.65 16.7501 30.55 17.2501C30.35 17.7501 30.25 17.9501 29.65 18.0501C29.45 17.5501 30.15 17.4501 30.15 16.9501C29.85 17.1501 29.65 17.5501 29.25 17.3501C29.05 17.8501 29.05 17.8501 28.55 17.8501C28.55 17.7501 28.55 17.5501 28.65 17.4501C29.05 17.0501 29.05 16.8501 29.15 16.3501C29.05 16.3501 28.85 16.3501 28.75 16.3501C28.65 16.6501 28.45 17.0501 28.35 17.3501C28.35 17.4501 28.25 17.6501 28.15 17.6501C28.05 17.7501 27.95 17.7501 27.85 17.7501C27.85 17.6501 27.85 17.5501 27.85 17.4501C28.05 17.0501 28.25 16.7501 28.45 16.2501C28.25 16.3501 28.15 16.4501 28.05 16.4501C27.95 16.4501 27.85 16.3501 27.75 16.3501C27.55 16.7501 27.35 17.1501 27.15 17.5501C27.05 17.8501 26.85 18.0501 26.45 18.0501C26.45 17.9501 26.35 17.7501 26.35 17.5501C26.65 17.6501 26.85 17.4501 26.95 17.2501C27.15 16.8501 27.35 16.4501 27.45 16.0501L27.35 15.9501C27.15 16.1501 26.85 16.3501 26.65 16.6501C26.45 16.8501 26.35 16.9501 26.05 16.8501C26.05 16.7501 26.05 16.6501 26.15 16.4501C25.85 16.7501 25.65 16.9501 25.35 16.6501C25.65 16.3501 25.95 15.9501 26.25 15.5501C25.75 15.4501 25.45 15.5501 25.15 15.8501C24.65 16.4501 23.95 16.8501 23.45 17.3501C23.25 17.5501 23.05 17.7501 22.85 17.8501C22.55 18.0501 22.45 18.0501 22.25 17.6501C22.55 17.5501 22.75 17.4501 23.05 17.2501C23.25 17.1501 23.55 16.9501 23.75 16.7501C23.95 16.5501 23.95 16.2501 24.15 16.0501C24.45 15.8501 24.45 15.8501 24.55 15.4501C24.25 15.4501 24.05 15.4501 23.75 15.4501C23.45 15.4501 23.35 15.5501 23.15 15.8501C23.05 16.0501 22.75 16.1501 22.55 16.3501C22.35 16.4501 22.25 16.0501 21.95 16.2501C21.85 16.3501 21.65 16.5501 21.55 16.6501C21.35 16.7501 21.15 16.8501 20.95 17.0501C20.95 17.0501 20.85 16.9501 20.75 16.9501C20.95 16.3501 21.75 16.3501 22.05 15.8501C21.95 15.8501 21.95 15.7501 21.95 15.8501C21.75 15.9501 21.45 16.1501 21.25 16.0501C21.05 15.9501 20.75 15.8501 20.55 15.9501C20.25 16.1501 19.95 16.4501 19.65 16.6501C19.55 16.7501 19.55 16.8501 19.45 16.8501C19.35 16.9501 19.15 16.9501 19.05 17.0501L18.85 16.8501C18.95 16.7501 18.95 16.5501 19.05 16.4501C19.25 16.2501 19.55 16.0501 19.75 15.9501C19.25 15.6501 18.85 15.8501 18.55 16.2501C18.15 16.6501 17.75 17.0501 17.35 17.3501C17.05 17.5501 17.05 17.5501 16.65 17.5501C16.55 17.1501 16.55 17.1501 17.45 16.8501C17.25 16.2501 18.05 16.3501 18.15 15.8501C17.65 15.8501 17.05 15.6501 16.75 16.3501C16.65 16.2501 16.55 16.1501 16.35 16.0501C16.25 16.0501 16.05 16.4501 15.85 16.0501C15.25 16.3501 15.35 17.2501 14.65 17.3501C14.55 17.1501 14.45 17.1501 14.65 16.9501C14.95 16.6501 15.15 16.2501 15.45 15.9501C15.25 15.6501 15.15 15.7501 15.05 15.9501C14.55 16.4501 14.05 16.8501 13.55 17.3501L13.65 17.4501C14.15 17.4501 14.65 17.5501 15.15 17.5501C15.95 17.6501 16.75 17.7501 17.55 17.8501C18.25 17.9501 19.05 18.0501 19.75 18.0501C20.05 18.0501 20.45 17.9501 20.85 17.8501C21.35 18.3501 22.05 18.1501 22.65 18.2501C23.75 18.3501 24.95 18.3501 26.05 18.4501C26.65 18.4501 27.15 18.4501 27.75 18.5501C28.45 18.5501 29.15 18.6501 29.85 18.7501C30.25 18.7501 30.65 18.5501 30.65 18.1501C30.65 18.0501 30.65 18.0501 30.75 17.9501C30.85 17.8501 30.95 17.7501 31.05 17.6501C31.25 17.0501 31.55 16.4501 31.35 15.7501ZM39.55 20.9501C40.55 20.9501 41.45 20.8501 42.45 20.8501V20.7501C41.45 20.7501 40.55 20.8501 39.55 20.8501V20.9501ZM33.75 11.8501C34.05 12.3501 34.05 12.3501 34.55 12.1501C34.35 11.7501 33.95 12.0501 33.75 11.8501ZM33.35 12.7501C33.35 13.0501 33.65 13.1501 33.85 13.3501C34.15 13.1501 33.85 12.9501 33.85 12.7501C33.75 12.7501 33.55 12.7501 33.35 12.7501ZM34.25 12.6501C34.75 13.0501 34.75 13.8501 35.75 13.5501C35.45 13.1501 35.15 12.8501 34.85 12.4501C34.65 12.5501 34.45 12.5501 34.25 12.6501ZM35.15 15.1501C35.25 15.3501 35.35 15.4501 35.35 15.5501C35.65 16.2501 35.65 16.2501 36.55 15.9501C36.45 15.6501 36.35 15.4501 36.25 15.1501C35.85 15.2501 35.55 15.1501 35.15 15.1501ZM35.45 12.4501C35.65 12.9501 35.95 13.2501 36.25 13.6501C36.35 13.7501 36.55 13.7501 36.75 13.7501V13.6501C36.45 13.2501 36.15 12.9501 35.85 12.6501C35.85 12.4501 35.65 12.4501 35.45 12.4501ZM36.65 15.2501C36.75 15.5501 36.85 15.7501 36.95 16.0501C37.25 15.9501 37.45 15.8501 37.75 15.7501C37.45 15.3501 37.35 15.2501 36.65 15.2501ZM36.05 12.0501C36.15 12.0501 36.35 12.0501 36.45 12.1501C36.15 12.6501 36.65 12.7501 36.75 12.9501C36.85 13.1501 37.05 13.3501 37.25 13.4501C37.45 13.6501 37.65 13.8501 38.05 13.7501C37.85 13.4501 37.65 13.2501 37.45 13.0501C37.15 12.7501 36.85 12.5501 36.55 12.2501C36.35 11.9501 36.35 11.9501 36.05 12.0501ZM37.95 12.4501C37.75 12.2501 37.55 12.0501 37.15 12.0501C37.15 12.1501 37.25 12.2501 37.25 12.2501C37.65 12.7501 38.15 13.1501 38.55 13.6501C38.75 13.9501 39.05 13.9501 39.35 13.8501C38.95 13.4501 38.55 13.0501 38.25 12.7501C38.05 12.6501 38.05 12.5501 37.95 12.4501ZM38.25 12.0501C38.35 12.1501 38.35 12.2501 38.45 12.3501C38.85 12.7501 39.25 13.1501 39.65 13.5501C40.05 13.9501 40.05 13.9501 40.65 13.8501C40.35 13.4501 40.05 13.1501 39.75 12.8501C39.65 12.7501 39.65 12.7501 39.55 12.6501C39.15 12.1501 38.75 11.9501 38.25 12.0501ZM39.55 12.1501C39.95 12.5501 40.35 12.9501 40.65 13.3501L40.75 13.4501C40.95 13.9501 41.35 13.8501 41.85 13.7501C41.45 13.2501 41.05 12.8501 40.65 12.4501C40.35 12.1501 40.05 12.0501 39.55 12.1501ZM40.95 12.2501C41.45 12.7501 41.85 13.2501 42.35 13.7501C42.55 13.8501 42.85 13.8501 43.05 13.8501C43.05 13.8501 43.05 13.7501 43.15 13.7501C42.85 13.4501 42.55 13.1501 42.25 12.8501C41.85 12.4501 41.55 12.1501 40.95 12.2501ZM42.05 15.4501C42.45 15.9501 42.85 15.6501 43.25 15.8501C43.25 15.8501 43.25 15.8501 43.35 15.7501C43.25 15.6501 43.25 15.4501 43.15 15.4501C42.85 15.4501 42.55 15.4501 42.05 15.4501ZM43.25 12.3501C42.95 12.3501 42.65 12.3501 42.35 12.2501C42.75 12.7501 43.15 13.1501 43.65 13.5501C43.85 13.7501 44.25 13.8501 44.65 13.9501L44.75 13.8501C44.35 13.3501 43.95 12.9501 43.45 12.4501C43.35 12.4501 43.25 12.4501 43.25 12.3501ZM43.75 15.6501C43.85 15.7501 43.95 15.8501 44.05 15.8501C44.25 15.8501 44.45 15.7501 44.65 15.7501C44.65 15.6501 44.65 15.6501 44.65 15.5501C44.35 15.5501 44.05 15.5501 43.75 15.6501C43.75 15.5501 43.75 15.5501 43.75 15.6501ZM44.05 12.3501C43.95 12.4501 43.95 12.4501 44.05 12.3501C44.45 12.9501 44.85 13.4501 45.25 13.9501C45.55 13.9501 45.85 13.9501 46.25 13.9501C45.75 13.4501 45.45 12.9501 44.95 12.6501C44.65 12.4501 44.35 12.4501 44.05 12.3501ZM45.55 12.5501C45.85 13.1501 46.25 13.5501 46.75 14.0501C46.75 13.8501 46.75 13.7501 46.75 13.6501C46.95 13.8501 47.05 14.1501 47.45 13.8501C46.95 13.4501 46.55 13.0501 46.05 12.6501C45.95 12.6501 45.75 12.6501 45.55 12.5501ZM47.45 12.8501C47.25 12.7501 47.05 12.6501 46.85 12.5501L46.75 12.6501C47.05 12.9501 47.35 13.3501 47.75 13.6501C48.05 13.9501 48.05 13.9501 48.55 13.9501C48.15 13.5501 47.85 13.2501 47.45 12.8501ZM47.95 16.2501C48.15 16.2501 48.25 16.1501 48.45 16.1501C47.95 15.4501 47.95 15.4501 46.95 15.7501C47.05 15.9501 47.15 16.1501 47.25 16.2501C47.05 16.2501 46.95 16.2501 46.75 16.2501C46.65 16.0501 46.65 15.9501 46.55 15.7501C46.25 15.8501 45.95 15.9501 45.65 15.9501C45.75 16.1501 45.75 16.2501 45.85 16.3501C45.65 16.3501 45.55 16.3501 45.35 16.4501C45.25 16.3501 45.15 16.2501 45.05 16.1501C44.85 16.0501 44.65 16.1501 44.35 16.2501C44.45 16.3501 44.45 16.5501 44.55 16.6501C44.35 16.6501 44.25 16.7501 44.05 16.7501C43.95 16.3501 43.65 16.2501 43.15 16.2501C43.05 16.2501 42.85 16.2501 42.65 16.1501C42.75 16.3501 42.95 16.6501 43.05 16.8501C42.95 16.8501 42.85 16.8501 42.75 16.8501C42.65 16.8501 42.65 16.8501 42.55 16.8501C42.45 16.6501 42.35 16.5501 42.35 16.3501C42.15 15.8501 41.85 15.8501 41.35 15.8501C41.45 16.2501 41.65 16.5501 41.75 16.8501C41.65 16.8501 41.45 16.8501 41.35 16.8501C41.25 16.6501 41.25 16.5501 41.15 16.3501C41.05 16.1501 41.05 15.9501 40.95 15.8501C40.85 15.7501 40.65 15.7501 40.55 15.6501C39.95 15.6501 39.95 15.6501 40.05 16.2501C40.05 16.3501 40.15 16.4501 40.15 16.6501C39.95 16.6501 39.85 16.6501 39.65 16.6501C39.65 16.5501 39.55 16.4501 39.55 16.3501C39.35 15.9501 39.35 15.8501 38.95 16.0501C38.85 16.0501 38.75 16.1501 38.65 16.1501C38.75 16.3501 38.75 16.5501 38.85 16.7501C38.75 16.7501 38.55 16.7501 38.45 16.7501C38.35 16.5501 38.35 16.4501 38.25 16.2501C37.95 16.3501 37.75 16.4501 37.45 16.4501C37.45 16.5501 37.55 16.6501 37.55 16.6501C37.45 16.6501 37.25 16.6501 37.15 16.6501C37.15 16.5501 37.15 16.5501 37.05 16.4501C36.75 16.5501 36.55 16.5501 36.35 16.6501C36.25 16.6501 36.15 16.6501 36.05 16.6501C35.85 16.6501 35.65 16.6501 35.45 16.6501C35.75 16.2501 35.35 15.9501 35.25 15.5501C35.15 15.5501 35.15 15.6501 35.05 15.6501C34.55 15.7501 34.35 16.1501 34.45 16.5501V16.6501C34.35 16.6501 34.25 16.6501 34.15 16.6501C33.95 16.6501 33.85 16.7501 33.85 16.8501C33.75 16.8501 33.65 16.8501 33.55 16.8501C33.25 16.8501 33.05 17.0501 33.15 17.3501C33.05 17.3501 32.95 17.4501 32.95 17.5501C32.85 18.3501 32.75 19.1501 32.65 19.8501C32.55 20.0501 32.45 20.2501 32.35 20.5501C32.55 20.5501 32.75 20.5501 32.95 20.5501H33.05C33.05 20.5501 33.75 20.6501 33.85 20.6501C34.75 20.6501 41.35 20.7501 41.45 20.7501C41.55 20.7501 49.55 20.4501 49.55 20.4501C50.25 20.3501 50.15 20.4501 50.65 19.8501C50.85 19.7501 51.05 19.5501 51.35 19.4501C51.45 19.3501 51.55 19.0501 51.55 19.0501C51.75 19.0501 51.85 18.8501 51.85 18.7501V18.3501H51.95C52.25 18.1501 52.25 17.7501 51.95 17.5501C51.75 17.4501 51.65 17.3501 51.55 17.1501C51.35 16.8501 51.15 16.7501 50.75 16.9501C50.95 17.1501 51.05 17.3501 51.25 17.5501C51.25 17.5501 51.25 17.6501 51.15 17.6501H51.05C50.95 17.6501 50.75 17.6501 50.65 17.6501C50.45 17.3501 50.25 16.9501 49.85 16.9501C49.85 16.7501 49.75 16.5501 49.55 16.5501C49.65 16.5501 49.85 16.5501 49.95 16.4501C49.75 15.9501 49.75 15.9501 48.95 15.7501C49.05 16.2501 49.15 16.4501 49.35 16.4501C48.65 16.2501 48.25 16.2501 47.95 16.2501ZM50.45 16.2501C50.35 15.6501 50.15 15.5501 49.75 15.7501C49.95 16.0501 50.05 16.3501 50.45 16.2501ZM50.85 14.0501C50.75 13.3501 50.05 13.3501 49.65 12.8501C49.55 12.9501 49.45 13.0501 49.35 13.0501C49.45 13.2501 49.55 13.3501 49.65 13.4501C50.25 14.1501 50.45 14.1501 51.45 14.1501H51.55C51.35 13.9501 51.35 13.9501 50.85 14.0501ZM50.75 15.6501C51.05 16.2501 51.15 16.2501 51.75 15.9501C51.35 15.8501 51.05 15.7501 50.75 15.6501ZM51.35 16.5501C51.55 16.9501 52.05 17.0501 51.95 17.5501C52.15 17.2501 51.95 17.1501 51.95 16.9501C51.95 16.7501 52.05 16.5501 52.15 16.3501C51.85 16.4501 51.65 16.4501 51.35 16.5501ZM91.45 15.7501C92.25 15.6501 92.75 15.0501 93.45 14.6501C92.65 14.8501 92.05 15.2501 91.45 15.7501ZM94.15 14.6501C93.75 14.9501 93.35 15.2501 92.95 15.5501C92.65 15.7501 92.35 15.9501 91.95 16.2501C92.15 16.3501 92.25 16.3501 92.25 16.3501C92.65 15.9501 93.05 15.6501 93.55 15.4501C93.95 15.2501 94.35 14.9501 94.65 14.7501C94.35 14.4501 94.25 14.5501 94.15 14.6501ZM95.25 14.7501C94.95 15.1501 94.45 15.3501 94.05 15.6501C93.95 15.7501 93.75 15.8501 93.65 15.9501C93.65 15.9501 93.65 16.0501 93.75 16.0501C94.45 15.5501 95.25 15.1501 95.95 14.6501C95.65 14.4501 95.35 14.5501 95.25 14.7501ZM97.85 15.6501C97.65 15.8501 97.55 15.9501 97.35 16.1501V16.2501C97.85 16.0501 98.45 16.4501 98.75 15.7501C98.45 15.7501 98.15 16.3501 97.85 15.6501ZM98.35 15.2501C99.05 15.4501 99.25 14.7501 99.75 14.6501C99.35 14.6501 98.85 14.8501 98.35 15.2501ZM101.25 15.6501C100.95 15.7501 100.75 15.7501 100.45 15.8501C100.25 15.9501 100.05 16.0501 99.85 16.0501C100.35 16.3501 100.35 16.2501 101.25 15.6501ZM101.25 16.1501C101.65 16.1501 101.95 16.1501 102.35 16.1501C102.15 15.9501 102.05 15.8501 101.85 15.7501C101.65 15.8501 101.45 15.9501 101.25 16.1501ZM101.85 14.4501C101.65 14.5501 101.45 14.6501 101.15 14.7501C100.75 14.9501 100.35 15.0501 100.05 15.4501C100.55 15.3501 101.05 15.2501 101.55 15.1501C101.35 15.0501 101.05 14.9501 101.15 14.7501C101.55 14.7501 101.95 14.7501 102.35 14.8501C102.35 14.5501 102.15 14.3501 101.85 14.4501ZM102.15 15.4501C102.65 15.5501 103.05 15.7501 103.45 15.2501C102.95 15.2501 102.55 15.1501 102.15 15.4501ZM103.85 15.6501C104.35 15.8501 104.85 15.6501 105.25 15.3501C104.85 14.9501 104.45 15.0501 103.85 15.6501ZM105.85 14.7501C105.45 14.7501 105.15 14.7501 104.75 14.7501V14.8501C105.15 15.0501 105.55 15.0501 106.05 14.9501C105.95 14.8501 105.95 14.7501 105.85 14.7501ZM105.95 15.7501V15.8501C106.45 15.7501 106.95 15.6501 107.45 15.5501C106.65 15.3501 106.65 15.3501 105.95 15.7501ZM108.95 14.8501C108.45 14.8501 107.85 14.8501 107.25 14.9501C107.45 15.2501 107.65 15.3501 107.95 15.1501C108.05 15.0501 108.25 15.1501 108.35 15.1501C108.55 15.1501 108.75 15.0501 108.95 15.0501C108.95 14.9501 108.95 14.9501 108.95 14.8501ZM113.15 14.6501C113.45 14.4501 113.95 14.7501 114.25 14.4501C113.85 14.4501 113.45 14.3501 113.15 14.6501ZM113.95 15.2501C114.45 15.2501 114.95 15.5501 115.25 15.1501C114.85 15.1501 114.45 14.9501 113.95 15.2501ZM117.35 15.2501C117.35 15.3501 117.35 15.3501 117.35 15.4501C117.45 15.4501 117.65 15.4501 117.75 15.4501C117.85 15.4501 117.95 15.3501 118.05 15.4501C118.35 15.6501 118.35 15.3501 118.65 15.2501C118.15 15.0501 117.75 15.1501 117.35 15.2501ZM117.55 18.2501C118.05 17.9501 118.65 17.7501 119.05 17.2501C118.35 17.3501 118.15 18.0501 117.55 18.2501ZM120.55 17.7501C119.65 18.2501 118.75 18.8501 117.95 19.4501C119.05 19.2501 119.75 18.3501 120.55 17.7501ZM90.05 20.2501C90.35 20.2501 90.65 20.1501 90.95 20.1501C91.25 20.1501 91.45 20.0501 91.75 20.0501C91.95 20.0501 92.15 20.0501 92.35 20.0501C92.75 20.0501 93.15 20.0501 93.55 20.0501C94.15 20.0501 94.75 19.9501 95.25 19.9501C95.35 19.9501 95.45 19.9501 95.45 19.9501C95.85 20.4501 96.35 20.1501 96.85 20.1501C97.55 20.1501 98.25 20.0501 98.85 19.9501C99.25 19.9501 99.65 19.8501 100.15 19.8501C101.35 19.8501 102.55 19.8501 103.75 19.8501C103.85 19.8501 104.05 19.8501 104.15 19.8501C104.25 19.8501 104.55 19.8501 104.55 19.9501C104.95 20.3501 105.35 20.1501 105.75 20.1501C106.85 20.1501 107.85 20.1501 108.95 20.1501C109.65 20.1501 110.25 20.1501 110.95 20.1501C111.45 20.1501 111.85 20.2501 112.35 20.2501C112.85 20.2501 113.25 20.2501 113.75 20.2501C114.35 20.2501 115.05 20.2501 115.65 20.2501C116.15 20.2501 116.55 20.0501 116.95 19.7501C117.55 19.2501 118.15 18.8501 118.65 18.3501C119.05 18.0501 119.45 17.8501 119.75 17.4501C119.55 17.5501 119.45 17.5501 119.25 17.6501C118.65 18.0501 118.05 18.4501 117.45 18.8501C117.25 19.0501 116.95 19.1501 116.75 19.3501C116.65 19.2501 116.55 19.1501 116.45 19.1501C116.25 19.2501 115.95 19.2501 115.75 19.3501C115.75 19.1501 115.75 19.0501 115.65 18.8501C115.95 18.7501 116.25 18.6501 116.45 18.5501C116.95 18.1501 117.45 17.7501 117.95 17.3501C117.45 17.2501 117.45 17.2501 117.15 17.5501C116.85 17.8501 116.55 18.0501 116.25 18.3501C116.05 18.5501 115.85 18.7501 115.65 18.9501C115.45 18.9501 115.15 19.0501 115.05 18.6501C115.45 18.1501 116.35 18.0501 116.65 17.3501C116.25 17.2501 115.95 17.2501 115.65 17.5501C115.15 17.9501 114.65 18.3501 114.15 18.7501C114.05 18.8501 113.85 18.9501 113.65 19.0501C113.45 18.7501 113.65 18.5501 113.85 18.4501C114.15 18.2501 114.45 18.0501 114.65 17.8501C114.85 17.6501 115.05 17.5501 115.25 17.3501C114.75 17.2501 114.75 17.3501 114.35 17.6501C113.65 18.1501 112.95 18.5501 112.25 18.9501C112.05 19.0501 111.95 19.0501 111.85 18.8501C111.75 18.6501 111.95 18.5501 112.05 18.4501C112.45 18.2501 112.85 18.0501 113.35 17.7501C113.45 17.6501 113.65 17.5501 113.75 17.4501C113.45 17.1501 112.85 17.0501 112.55 17.3501C112.05 17.7501 111.65 18.0501 111.15 18.4501C110.85 18.6501 110.55 18.9501 110.15 19.1501C109.95 19.2501 109.75 19.4501 109.65 19.1501C109.85 18.7501 110.25 18.6501 110.55 18.3501C110.95 18.0501 111.45 17.7501 111.85 17.4501L111.95 17.3501C111.65 17.3501 111.35 17.2501 111.05 17.2501C110.85 17.2501 110.65 17.3501 110.45 17.4501C109.75 17.9501 109.05 18.4501 108.35 18.9501C108.25 19.0501 108.05 18.9501 107.95 18.9501C108.55 18.2501 109.35 17.9501 110.05 17.3501C109.55 17.2501 108.95 17.1501 108.45 17.3501C108.15 17.4501 107.85 17.7501 107.55 17.9501C107.15 18.2501 106.75 18.5501 106.35 18.8501C106.15 18.9501 105.95 19.0501 105.65 19.0501C105.85 18.5501 106.35 18.4501 106.75 18.1501C107.15 17.8501 107.55 17.5501 107.85 17.3501C107.45 17.3501 107.05 17.3501 106.55 17.3501C106.45 17.3501 106.25 17.3501 106.15 17.4501C105.75 17.7501 105.35 18.0501 104.95 18.3501C104.75 18.5501 104.45 18.6501 104.25 18.7501C104.15 18.7501 104.05 18.7501 103.95 18.6501C104.45 18.2501 105.05 17.8501 105.55 17.4501C105.35 17.4501 105.25 17.3501 105.05 17.3501C104.65 17.2501 104.25 17.3501 103.95 17.5501C103.55 17.8501 103.05 18.1501 102.55 18.4501C102.15 18.7501 101.65 19.0501 101.25 19.3501C101.15 19.4501 101.05 19.4501 100.95 19.4501C100.85 19.4501 100.75 19.3501 100.65 19.2501C100.75 19.1501 100.75 19.0501 100.85 18.9501C101.45 18.9501 101.85 18.5501 102.25 18.2501C102.65 17.9501 103.05 17.6501 103.45 17.2501C103.15 17.2501 102.95 17.1501 102.65 17.1501H102.55C101.55 17.0501 100.85 17.7501 100.15 18.2501C99.85 18.4501 99.55 18.6501 99.25 18.9501C99.15 19.0501 98.95 19.1501 98.85 18.8501C99.55 18.3501 100.25 17.8501 101.05 17.3501C101.05 17.3501 101.05 17.3501 101.05 17.2501C100.55 17.2501 100.15 17.2501 99.75 17.3501C99.35 17.4501 99.05 17.7501 98.75 17.9501C98.45 18.1501 98.25 18.3501 97.95 18.4501C97.85 18.5501 97.65 18.5501 97.45 18.5501C97.55 18.0501 97.95 18.0501 98.15 17.9501C98.45 17.7501 98.65 17.5501 99.05 17.3501C98.45 17.4501 97.95 17.4501 97.45 17.4501C97.35 17.4501 97.25 17.5501 97.15 17.5501C96.45 18.0501 95.65 18.5501 94.95 18.9501C94.65 19.1501 94.65 19.1501 94.45 18.7501C95.25 18.3501 95.95 17.9501 96.85 17.4501C95.85 17.2501 95.15 17.5501 94.55 18.0501C94.15 18.3501 93.75 18.6501 93.35 18.9501C93.15 19.1501 92.95 19.0501 92.75 18.8501C93.35 18.4501 94.05 18.0501 94.65 17.6501V17.5501C94.35 17.5501 93.95 17.5501 93.65 17.6501C93.05 17.7501 92.55 18.1501 92.05 18.4501C91.65 18.6501 91.25 18.9501 90.85 19.1501C90.75 19.1501 90.65 19.2501 90.55 19.2501C90.45 19.2501 90.35 19.1501 90.35 19.0501C90.35 18.9501 90.45 18.7501 90.55 18.7501C91.35 18.6501 91.85 18.1501 92.55 17.7501C91.95 17.8501 91.45 17.7501 91.05 17.9501C90.35 18.2501 89.75 18.6501 89.15 19.1501C88.85 19.4501 88.65 19.8501 88.35 20.1501C88.85 20.4501 89.45 20.2501 90.05 20.2501ZM78.85 24.1501C79.75 24.1501 80.35 23.7501 80.85 23.0501C79.95 23.0501 79.45 23.7501 78.85 24.1501ZM80.75 22.0501C80.35 22.0501 79.45 22.5501 78.85 23.1501C79.65 23.1501 80.25 22.6501 80.75 22.0501ZM79.35 25.0501C80.05 24.8501 80.85 24.8501 81.25 24.0501C80.45 24.0501 79.85 24.3501 79.35 25.0501ZM84.95 21.0501C85.45 20.8501 85.95 20.6501 86.45 20.4501C86.65 20.3501 86.95 20.2501 87.05 19.9501C86.35 19.9501 85.85 20.2501 85.25 20.5501C84.75 20.8501 84.15 21.1501 83.65 21.4501C83.55 21.5501 83.45 21.5501 83.25 21.6501C83.15 21.4501 83.15 21.3501 83.05 21.2501C82.65 21.3501 83.15 21.9501 82.55 21.8501C82.65 21.8501 82.65 21.9501 82.75 21.9501C83.45 21.6501 84.15 21.3501 84.95 21.0501ZM83.05 22.3501C83.15 22.3501 83.35 22.4501 83.45 22.3501C84.15 22.1501 84.45 21.9501 84.65 21.6501C84.05 21.8501 83.55 22.0501 83.05 22.2501C83.05 22.2501 83.05 22.2501 83.05 22.3501ZM86.35 27.0501C86.35 27.0501 86.35 27.1501 86.35 27.0501C86.95 26.9501 87.55 26.7501 88.15 26.5501C87.85 26.1501 87.85 26.1501 87.45 26.3501C87.15 26.6501 86.75 26.8501 86.35 27.0501ZM86.35 26.5501C85.85 26.6501 85.35 26.7501 84.85 26.8501C85.15 27.2501 85.15 27.2501 85.55 27.0501C85.85 26.9501 86.05 26.7501 86.35 26.5501ZM85.55 24.9501C85.15 24.9501 84.95 25.2501 84.55 25.3501C85.05 25.4501 85.25 25.3501 85.55 24.9501ZM85.45 23.6501C85.55 23.6501 85.65 23.5501 85.75 23.5501C86.25 23.4501 86.25 23.4501 86.05 22.9501C85.35 23.2501 84.65 23.6501 83.95 23.9501V24.0501C84.55 23.9501 84.95 23.8501 85.45 23.6501ZM84.25 23.3501C83.45 23.0501 82.55 23.3501 81.65 24.1501C82.15 24.1501 82.35 24.0501 82.95 23.4501C83.05 23.5501 83.05 23.6501 83.15 23.7501C83.45 23.6501 83.85 23.4501 84.25 23.3501ZM82.75 25.2501C83.05 25.1501 83.45 24.9501 83.85 24.7501C83.15 24.5501 83.05 24.5501 82.75 25.2501ZM82.85 24.2501C82.35 24.7501 81.85 25.1501 81.25 25.7501C81.75 25.5501 82.45 24.9501 82.85 24.2501ZM81.25 26.4501C81.75 26.5501 82.35 26.2501 82.75 25.6501C82.15 25.7501 82.05 25.8501 81.25 26.4501ZM81.85 24.6501C80.85 24.7501 80.35 25.4501 79.75 26.0501C80.15 26.0501 80.45 25.9501 80.65 25.7501C81.05 25.3501 81.45 24.9501 81.85 24.6501ZM82.75 22.3501C81.85 22.4501 81.35 23.1501 80.85 23.6501C81.65 23.4501 82.35 23.1501 82.75 22.3501ZM82.45 21.4501C81.75 21.4501 81.45 22.0501 81.15 22.4501C81.75 22.3501 82.05 21.8501 82.45 21.4501ZM84.25 19.4501C83.05 19.6501 82.35 20.6501 81.45 21.2501C82.55 20.8501 83.35 20.0501 84.25 19.4501ZM83.15 18.9501C83.45 18.7501 83.85 18.5501 84.15 18.3501C83.65 18.4501 83.15 18.6501 82.75 19.0501C82.35 19.3501 81.95 19.6501 81.55 19.9501C81.45 20.0501 81.35 20.1501 81.35 20.2501C81.85 20.0501 82.45 19.8501 83.05 19.5501C82.85 19.2501 82.95 19.0501 83.15 18.9501ZM83.85 17.2501L83.75 17.1501C82.95 17.7501 82.15 18.3501 81.35 18.9501C82.35 18.6501 83.05 17.8501 83.85 17.2501ZM82.25 17.8501C82.15 17.8501 82.15 17.8501 82.25 17.8501C81.75 17.9501 81.35 18.0501 80.95 18.2501C80.95 18.4501 80.85 18.6501 80.85 18.9501C81.25 18.5501 81.75 18.2501 82.25 17.8501ZM83.85 12.3501C84.45 12.0501 84.95 11.6501 85.55 11.2501C86.15 10.8501 86.65 10.4501 87.15 9.85013C87.45 9.35013 87.55 9.45013 87.65 8.85013C86.15 10.0501 84.85 11.0501 83.85 12.3501ZM87.45 8.25013C87.45 8.25013 87.45 8.15013 87.35 8.15013C87.15 8.25013 86.95 8.25013 86.85 8.35013C85.95 9.15013 84.95 9.75013 84.15 10.7501C84.75 10.3501 85.25 9.95013 85.85 9.55013C86.45 9.05013 86.95 8.65013 87.45 8.25013ZM83.65 14.4501C83.05 14.7501 82.45 15.0501 81.85 15.3501C81.35 15.5501 81.25 16.0501 80.95 16.3501C81.85 16.0501 83.35 15.1501 84.05 14.2501C83.85 14.3501 83.75 14.4501 83.65 14.4501ZM84.05 13.7501C84.75 13.4501 85.35 13.0501 85.85 12.4501C85.95 12.3501 86.15 12.2501 86.25 12.1501C86.35 12.1501 86.45 12.2501 86.45 12.2501C87.05 12.2501 87.35 11.7501 87.65 11.3501C87.65 11.3501 87.65 11.2501 87.65 10.9501C87.45 11.1501 87.35 11.2501 87.15 11.4501C87.05 11.5501 86.95 11.7501 86.65 11.6501C86.55 11.6501 86.45 11.7501 86.35 11.7501C86.25 11.7501 86.15 11.7501 86.05 11.7501C85.45 12.1501 84.95 12.6501 84.35 13.0501C84.05 13.2501 83.75 13.4501 83.55 13.7501C83.75 13.9501 83.95 13.8501 84.05 13.7501ZM83.65 15.5501C83.25 15.7501 82.75 15.9501 82.45 16.2501C82.05 16.5501 81.75 16.9501 81.35 17.3501C81.35 17.3501 81.35 17.3501 81.35 17.4501C82.15 16.9501 82.85 16.4501 83.65 15.9501C83.65 15.7501 83.65 15.6501 83.65 15.5501ZM81.55 14.9501C82.25 14.4501 82.85 14.0501 83.55 13.5501C84.15 13.0501 84.65 12.6501 85.25 12.1501C85.25 12.2501 85.15 12.2501 85.15 12.3501C85.25 12.2501 85.45 12.2501 85.55 12.2501C85.95 11.7501 86.45 11.5501 86.95 11.1501C87.25 10.9501 87.25 10.9501 87.25 10.3501C86.95 10.6501 86.75 10.9501 86.55 11.2501C86.25 11.4501 85.95 11.6501 85.65 11.8501C84.85 12.2501 84.15 12.7501 83.45 13.3501C82.75 13.8501 82.05 14.3501 81.35 14.8501C81.15 14.9501 81.05 15.1501 80.85 15.3501C81.05 15.2501 81.35 15.1501 81.55 14.9501ZM83.75 11.5501C83.75 11.5501 83.75 11.4501 83.75 11.5501C83.35 11.6501 83.05 11.7501 82.65 11.9501C82.55 11.9501 82.65 12.1501 82.65 12.2501C83.15 12.0501 83.45 11.7501 83.75 11.5501ZM81.75 13.3501L81.85 13.4501C82.15 13.2501 82.55 13.0501 82.85 12.7501C83.15 12.5501 83.35 12.3501 83.55 12.1501C83.55 12.1501 83.55 12.1501 83.45 12.0501C82.95 12.5501 82.35 12.9501 81.75 13.3501ZM81.75 12.7501C81.95 12.6501 82.05 12.5501 82.15 12.3501L82.05 12.2501C81.45 12.5501 80.85 12.9501 80.25 13.2501C80.05 13.3501 80.05 13.8501 79.75 13.7501C79.75 13.7501 79.65 13.8501 79.75 13.8501L79.85 13.9501C80.05 13.8501 80.15 13.8501 80.25 13.7501C80.85 13.4501 81.25 13.1501 81.75 12.7501ZM80.15 12.9501C80.85 12.5501 81.65 12.1501 82.25 11.6501C82.45 11.4501 82.75 11.4501 82.95 11.2501C83.05 11.0501 83.25 10.9501 83.45 10.7501C83.65 10.5501 83.85 10.4501 84.05 10.2501C84.45 9.95013 84.95 9.55013 85.35 9.25013C85.45 9.15013 85.45 9.05013 85.55 8.85013C85.55 8.85013 85.55 8.85013 85.45 8.85013C83.55 10.2501 81.65 11.5501 79.75 12.9501C79.75 12.9501 79.75 13.0501 79.85 13.0501C79.85 13.0501 80.05 13.0501 80.15 12.9501ZM83.95 9.45013C84.15 9.35013 84.35 9.25013 84.55 9.15013C85.05 8.75013 85.65 8.25013 86.15 7.85013C86.25 7.75013 86.35 7.45013 86.55 7.75013L86.65 7.65013C87.05 7.35013 87.35 6.95013 87.45 6.45013C87.45 6.35013 87.45 6.15013 87.45 6.05013C86.25 7.25013 85.05 8.35013 83.95 9.45013ZM87.65 4.95013C87.05 5.45013 86.45 5.95013 85.85 6.45013C86.65 6.25013 87.45 5.55013 87.65 4.95013ZM84.75 14.3501C84.85 14.3501 84.85 14.4501 84.75 14.3501C85.55 13.9501 86.35 13.7501 86.95 13.0501C87.15 12.7501 87.55 12.5501 87.75 12.3501C87.85 12.2501 88.15 12.0501 87.85 11.7501C86.85 12.6501 85.85 13.4501 84.75 14.3501ZM85.95 14.4501C85.45 14.9501 84.85 15.2501 84.35 15.6501H84.25C84.15 16.2501 83.45 16.2501 83.15 16.6501C83.05 16.7501 82.85 16.7501 82.65 16.8501C82.55 16.9501 82.35 16.9501 82.45 17.1501C83.45 16.8501 84.15 16.2501 84.95 15.5501C85.35 15.2501 85.75 14.8501 86.15 14.5501C86.95 13.8501 87.65 13.1501 88.45 12.4501C88.45 12.4501 88.45 12.3501 88.35 12.3501C88.25 12.3501 88.15 12.4501 88.05 12.4501C87.35 13.2501 86.65 13.7501 85.95 14.4501ZM87.15 14.6501C87.65 14.4501 87.95 14.0501 88.35 13.6501L88.25 13.5501C87.85 13.9501 87.55 14.2501 87.15 14.6501ZM84.65 17.5501C85.55 17.2501 86.25 16.5501 86.85 15.9501C87.55 15.3501 88.25 14.7501 88.85 14.0501L88.75 13.9501C87.35 15.0501 86.05 16.2501 84.65 17.5501ZM85.85 18.0501L85.95 18.1501C86.65 17.5501 87.25 16.9501 87.95 16.3501C87.55 16.3501 87.25 16.5501 86.75 17.0501C86.45 17.3501 86.15 17.7501 85.85 18.0501ZM87.05 18.1501C86.95 18.2501 86.75 18.3501 86.55 18.4501C86.05 18.7501 85.65 18.9501 85.15 19.2501C84.55 19.6501 84.05 20.0501 83.55 20.5501V20.6501C84.15 20.3501 84.75 20.1501 85.25 19.7501C85.95 19.2501 86.65 18.7501 87.25 18.1501C87.75 17.7501 88.25 17.4501 88.65 17.1501C88.95 16.9501 89.15 16.7501 89.45 16.4501C88.55 16.4501 88.55 16.4501 87.95 17.1501C87.65 17.3501 87.35 17.7501 87.05 18.1501ZM88.65 26.9501C88.25 26.9501 87.95 27.1501 87.55 27.3501C87.15 27.4501 86.75 27.5501 86.45 27.8501C87.55 27.6501 88.75 27.3501 89.85 26.8501C89.35 26.4501 89.05 26.8501 88.65 26.9501ZM90.65 27.0501C89.85 27.3501 88.95 27.5501 88.05 27.8501C88.75 27.8501 89.35 28.0501 89.85 27.7501C90.15 27.6501 90.35 27.4501 90.65 27.3501C90.65 27.3501 90.65 27.2501 90.65 27.0501ZM96.05 28.0501C96.85 28.2501 97.05 28.2501 97.45 27.6501C97.05 27.7501 96.55 27.9501 96.05 28.0501ZM98.25 27.4501C98.05 27.5501 97.95 27.7501 97.75 28.0501C98.45 27.9501 98.45 27.9501 99.05 27.4501C98.75 27.4501 98.45 27.3501 98.25 27.4501ZM100.75 27.2501C99.95 27.2501 99.85 27.2501 99.45 27.7501C99.95 27.5501 100.35 27.4501 100.75 27.3501C100.75 27.3501 100.75 27.3501 100.75 27.2501ZM102.85 27.2501C102.85 27.1501 102.85 27.1501 102.85 27.2501C102.85 27.1501 102.85 27.1501 102.85 27.2501C102.05 27.3501 101.35 27.5501 100.85 27.8501C101.65 27.7501 102.35 27.9501 102.85 27.2501C102.95 27.4501 103.05 27.5501 103.05 27.7501C103.35 27.7501 104.05 27.5501 104.85 27.2501C104.25 27.0501 103.55 27.1501 102.85 27.2501ZM106.35 27.0501C106.25 27.4501 106.75 27.3501 106.75 27.6501C107.15 27.4501 107.65 27.5501 107.75 27.0501C107.25 26.7501 106.85 27.0501 106.35 27.0501ZM110.55 27.0501C110.15 26.9501 109.75 26.8501 109.45 26.9501C108.95 27.0501 108.45 27.3501 108.05 27.5501C107.95 27.6501 107.85 27.7501 107.75 27.9501C108.65 27.6501 109.65 27.4501 110.55 27.0501C110.55 27.1501 110.55 27.0501 110.55 27.0501ZM114.05 26.6501C113.75 26.7501 113.45 26.8501 113.15 26.9501C112.95 26.9501 112.65 26.9501 112.45 26.9501C112.05 27.0501 111.65 27.1501 111.35 27.2501C110.75 27.4501 110.15 27.5501 109.55 27.7501C109.45 27.7501 109.25 27.7501 109.25 28.0501C109.45 28.0501 109.75 27.9501 109.95 28.0501C110.65 28.1501 111.25 28.0501 111.95 27.7501C112.65 27.4501 113.35 27.1501 114.15 26.7501C114.05 26.7501 114.05 26.7501 114.05 26.6501ZM114.95 26.8501C114.15 27.2501 113.25 27.6501 112.45 28.0501C113.45 27.9501 114.15 27.2501 114.95 26.8501C115.05 26.8501 115.05 26.8501 114.95 26.8501ZM115.55 27.0501C115.15 27.2501 114.75 27.5501 114.35 27.7501V27.8501C114.85 27.6501 115.25 27.3501 115.85 27.1501C115.65 27.0501 115.55 26.9501 115.55 27.0501ZM115.95 27.7501C116.45 28.1501 116.65 27.6501 117.05 27.5501C116.65 27.2501 116.35 27.6501 115.95 27.7501ZM107.15 31.7501C107.35 31.7501 107.65 31.8501 107.85 31.8501C108.05 31.8501 108.35 31.6501 108.55 31.6501C109.75 31.6501 110.85 31.7501 112.05 31.7501C112.95 31.7501 113.85 31.6501 114.75 31.7501C115.45 31.8501 115.95 31.5501 116.45 31.3501C116.65 31.2501 116.85 31.1501 117.05 30.9501C117.55 30.5501 118.05 30.2501 118.55 29.8501L118.65 29.7501C118.35 29.6501 117.95 29.6501 117.65 29.5501C117.55 29.5501 117.35 29.6501 117.25 29.6501C116.45 30.1501 115.75 30.6501 114.95 31.2501C114.75 31.3501 114.55 31.4501 114.45 31.4501C114.35 31.4501 114.25 31.3501 114.15 31.3501C114.15 31.2501 114.25 31.1501 114.25 31.0501C114.35 30.9501 114.45 30.9501 114.55 30.8501C114.85 30.7501 115.05 30.6501 115.35 30.4501C115.75 30.1501 116.15 29.8501 116.65 29.4501C116.05 29.3501 115.65 29.2501 115.25 29.6501C114.85 30.0501 114.35 30.3501 113.95 30.6501C113.65 30.8501 113.45 31.0501 113.15 31.2501C112.95 30.8501 112.95 30.7501 113.35 30.5501C113.85 30.2501 114.35 29.8501 114.85 29.5501C114.95 29.4501 114.95 29.4501 115.15 29.3501C114.75 29.3501 114.55 29.2501 114.25 29.2501C114.15 29.2501 114.05 29.3501 113.95 29.4501C113.25 29.9501 112.45 30.5501 111.75 31.0501C111.65 30.9501 111.65 30.7501 111.55 30.6501C112.25 30.2501 112.85 29.8501 113.45 29.4501C112.65 29.1501 112.75 28.9501 112.15 29.5501C111.75 29.9501 111.25 30.2501 110.75 30.5501C110.45 30.6501 110.35 30.6501 110.25 30.2501C110.65 30.0501 111.15 29.7501 111.55 29.5501C111.35 29.4501 111.15 29.2501 110.95 29.4501C110.15 29.2501 109.65 29.7501 109.15 30.1501C109.05 30.2501 108.85 30.2501 108.75 30.3501C108.45 30.0501 108.45 29.9501 108.75 29.8501C108.95 29.7501 109.05 29.6501 109.25 29.5501C109.25 29.5501 109.25 29.5501 109.25 29.4501C108.95 29.4501 108.65 29.4501 108.25 29.4501C107.85 29.4501 107.65 29.7501 107.35 29.9501C106.95 30.1501 106.55 30.5501 106.25 30.8501C105.95 31.0501 105.65 31.3501 105.25 31.6501C105.95 31.7501 106.55 31.7501 107.15 31.7501ZM105.15 31.2501C105.85 30.7501 106.55 30.2501 107.35 29.6501C106.85 29.6501 106.55 29.6501 106.25 29.7501C105.45 30.0501 104.75 30.5501 104.15 31.1501C103.95 31.3501 103.75 31.4501 103.45 31.6501C104.35 31.7501 104.45 31.7501 105.15 31.2501ZM103.05 31.5501C103.55 31.1501 104.05 30.7501 104.55 30.3501C104.65 30.2501 104.55 30.1501 104.65 29.9501C104.85 29.8501 105.15 29.7501 105.45 29.6501V29.5501C105.05 29.5501 104.75 29.5501 104.35 29.5501C104.15 29.5501 104.05 29.7501 103.95 29.8501C103.35 30.4501 102.75 31.0501 102.05 31.6501C102.35 31.7501 102.65 31.8501 103.05 31.5501ZM101.45 31.4501C101.75 31.2501 102.05 31.0501 102.35 30.8501C102.75 30.4501 103.05 30.0501 103.45 29.5501C102.95 29.4501 102.55 29.5501 102.25 29.8501C101.95 30.1501 101.55 30.5501 101.15 30.7501C100.75 30.9501 100.55 31.3501 100.25 31.6501C100.65 31.7501 101.05 31.6501 101.45 31.4501ZM99.85 31.3501C100.55 30.8501 101.15 30.2501 101.85 29.7501C101.85 29.7501 101.95 29.6501 102.05 29.5501C101.55 29.4501 101.25 29.5501 100.85 29.8501C100.25 30.4501 99.55 31.0501 98.85 31.6501C99.25 31.8501 99.55 31.5501 99.85 31.3501ZM97.45 31.7501C98.05 31.7501 98.55 31.3501 98.95 31.0501C99.55 30.6501 100.05 30.0501 100.65 29.5501C100.25 29.5501 99.95 29.4501 99.65 29.4501C99.55 29.4501 99.35 29.4501 99.25 29.5501C98.45 30.1501 97.75 30.8501 96.95 31.5501C96.95 31.5501 96.85 31.6501 96.65 31.7501C97.05 31.6501 97.25 31.7501 97.45 31.7501ZM96.05 31.6501C96.25 31.6501 96.55 31.4501 96.75 31.2501C96.95 31.0501 97.15 30.8501 97.35 30.6501C97.75 30.2501 98.25 29.8501 98.65 29.5501C98.35 29.3501 97.75 29.2501 97.45 29.5501C97.05 29.8501 96.65 30.1501 96.35 30.5501C95.95 30.8501 95.55 31.2501 95.15 31.6501C95.45 31.5501 95.75 31.6501 96.05 31.6501ZM94.85 31.3501C95.55 30.6501 96.35 30.0501 97.15 29.3501C96.65 29.2501 96.25 29.3501 95.95 29.7501C95.45 30.2501 94.95 30.6501 94.35 31.0501C94.15 31.2501 93.95 31.3501 93.75 31.5501C94.25 31.6501 94.55 31.6501 94.85 31.3501ZM93.75 31.1501C94.35 30.5501 95.05 30.0501 95.65 29.5501C95.75 29.4501 95.75 29.3501 95.85 29.2501C95.45 29.2501 95.15 29.1501 94.85 29.1501C93.95 29.9501 93.05 30.6501 92.15 31.4501C92.85 31.5501 93.35 31.5501 93.75 31.1501ZM92.55 30.7501C92.95 30.4501 93.25 30.1501 93.55 29.8501C93.75 29.6501 94.05 29.4501 94.35 29.1501C93.75 29.0501 93.35 29.1501 93.05 29.5501C92.65 29.9501 92.15 30.2501 91.65 30.5501C91.35 30.7501 91.05 30.9501 90.95 31.3501C91.65 31.5501 92.05 31.0501 92.55 30.7501ZM86.95 31.0501C88.05 31.0501 89.15 31.2501 90.15 31.3501C90.35 31.1501 90.45 31.0501 90.55 30.9501C91.05 30.6501 91.55 30.3501 91.95 29.9501C92.25 29.7501 92.45 29.4501 92.75 29.0501C89.95 29.2501 87.15 28.9501 84.45 28.1501C84.25 28.5501 84.05 28.8501 83.95 29.2501C83.95 29.6501 83.75 30.0501 83.65 30.4501C84.75 30.7501 85.85 31.0501 86.95 31.0501ZM83.45 27.9501C83.05 28.0501 82.75 28.0501 82.55 28.4501C82.95 28.4501 83.25 28.3501 83.45 27.9501ZM83.35 26.3501C82.95 26.5501 82.35 26.5501 82.05 27.0501C82.55 26.9501 83.15 26.8501 83.35 26.3501ZM82.15 27.4501C81.85 27.5501 81.55 27.6501 81.25 27.7501C81.55 28.0501 81.75 27.9501 82.15 27.4501ZM81.45 26.9501C81.05 27.0501 80.65 27.1501 80.35 27.4501C80.75 27.4501 81.15 27.4501 81.45 26.9501ZM80.85 26.2501C80.35 26.3501 80.15 26.8501 79.55 26.9501C80.25 26.9501 80.55 26.8501 80.85 26.2501ZM78.85 26.3501C79.25 25.9501 79.55 25.6501 79.95 25.2501C79.95 25.2501 79.95 25.2501 79.95 25.1501C79.55 25.2501 79.15 25.3501 78.75 25.5501C78.75 25.8501 78.85 26.0501 78.85 26.3501ZM79.95 21.8501C80.05 21.8501 80.05 21.7501 80.15 21.6501C80.15 21.5501 80.15 21.4501 80.25 21.4501C80.65 21.4501 80.85 21.0501 81.05 20.9501C81.55 20.9501 81.65 20.5501 82.05 20.4501C81.15 20.5501 79.55 21.3501 78.75 22.1501C79.05 22.0501 79.55 21.9501 79.95 21.8501ZM79.75 20.0501C79.15 20.2501 78.65 20.5501 78.15 20.9501C78.95 20.9501 79.25 20.3501 79.75 20.0501ZM59.95 16.0501C59.25 16.1501 59.25 16.1501 59.05 16.4501C59.35 16.4501 59.65 16.4501 60.05 16.4501C60.05 16.3501 60.05 16.2501 60.05 16.1501C59.95 16.0501 59.95 16.0501 59.95 16.0501ZM60.45 16.4501C60.95 16.4501 61.45 16.4501 61.95 16.4501C62.05 16.4501 62.05 16.3501 62.15 16.2501C61.75 15.8501 60.85 15.9501 60.45 16.4501ZM62.85 16.1501C62.75 16.1501 62.75 16.3501 62.55 16.4501C62.95 16.4501 63.15 16.4501 63.45 16.4501C63.35 16.1501 63.15 16.0501 62.85 16.1501ZM64.05 15.4501C64.25 15.8501 64.95 15.8501 65.35 15.5501C64.85 15.1501 64.45 15.6501 64.05 15.4501ZM69.45 16.3501C69.75 16.3501 70.05 16.5501 70.25 16.0501C69.45 15.9501 69.45 15.9501 69.45 16.3501ZM70.95 16.0501C70.85 16.0501 70.85 16.1501 70.95 16.0501C70.95 16.2501 71.05 16.3501 71.05 16.3501C71.25 16.2501 71.65 16.4501 71.75 16.0501C71.45 16.0501 71.15 16.0501 70.95 16.0501ZM72.25 16.2501C72.55 16.5501 72.95 16.2501 73.25 16.3501C73.25 16.3501 73.35 16.1501 73.35 16.0501C72.95 15.9501 72.65 15.8501 72.25 16.2501ZM73.85 16.1501C74.45 16.2501 74.55 16.2501 74.75 15.8501C74.45 16.0501 74.05 15.6501 73.85 16.1501ZM74.55 17.2501C74.05 17.2501 73.55 17.1501 73.05 17.1501C71.75 17.1501 70.55 17.0501 69.25 17.0501C68.25 17.0501 67.25 17.1501 66.35 17.2501C65.85 17.2501 65.35 17.2501 64.75 17.2501C63.95 17.2501 63.15 17.2501 62.25 17.1501C61.45 17.1501 60.55 17.0501 59.75 17.0501C58.75 17.0501 57.65 17.1501 56.65 17.1501C55.95 17.1501 55.25 17.2501 54.55 17.5501C54.45 17.6501 54.25 17.6501 54.15 17.7501C55.15 17.5501 56.05 17.1501 57.15 17.6501C56.95 17.7501 56.85 17.8501 56.75 17.8501V17.9501C57.95 17.7501 59.05 18.1501 60.25 17.9501C60.15 17.9501 60.15 17.8501 60.05 17.8501V17.7501C60.85 17.7501 61.65 17.8501 62.45 17.8501C62.85 17.8501 63.25 17.8501 63.65 17.8501C63.75 17.8501 63.85 17.8501 63.95 17.9501C63.65 18.0501 63.25 18.1501 62.95 18.1501C62.65 18.1501 62.35 18.1501 61.95 18.1501C62.25 18.3501 62.65 18.2501 62.95 18.2501C63.35 18.2501 63.85 18.2501 64.35 18.1501C64.15 18.0501 64.05 17.9501 63.85 17.8501C65.05 17.8501 66.35 17.9501 67.55 17.9501C67.05 17.5501 66.35 17.8501 65.75 17.6501C65.15 17.4501 64.45 17.5501 63.85 17.5501C63.25 17.5501 62.55 17.4501 61.95 17.4501C62.05 17.3501 62.05 17.3501 62.15 17.3501C61.95 17.3501 61.65 17.3501 61.45 17.3501C61.95 17.1501 62.45 17.1501 63.05 17.3501C63.25 17.4501 63.45 17.4501 63.75 17.4501C64.55 17.4501 65.25 17.3501 66.05 17.3501C66.25 17.3501 66.45 17.3501 66.65 17.3501C67.05 17.3501 67.55 17.3501 67.95 17.3501C68.15 17.3501 68.25 17.3501 68.45 17.3501C68.55 17.3501 68.75 17.3501 68.85 17.3501C68.95 17.3501 68.95 17.4501 69.05 17.4501C69.65 17.1501 70.25 17.4501 70.85 17.3501C71.45 17.2501 72.05 17.4501 72.65 17.4501C72.95 17.4501 73.35 17.4501 73.65 17.4501C74.45 17.4501 75.25 17.4501 76.15 17.4501C76.05 17.3501 75.95 17.2501 75.85 17.2501C75.35 17.3501 74.95 17.3501 74.55 17.2501ZM75.55 15.8501C75.35 15.8501 75.35 15.8501 75.25 16.1501C76.25 16.2501 76.25 16.2501 76.55 16.0501C76.25 15.6501 75.85 15.9501 75.55 15.8501ZM76.85 18.3501C76.75 18.2501 76.45 18.3501 76.15 18.3501V18.4501C76.45 18.6501 76.85 18.9501 77.25 19.2501C77.35 18.7501 77.15 18.5501 76.85 18.3501ZM78.85 15.2501C78.75 15.1501 78.75 15.0501 78.65 15.0501C78.45 15.0501 78.25 15.0501 78.15 14.9501C78.05 14.8501 77.95 14.7501 77.75 14.6501C77.75 14.6501 77.65 14.6501 77.65 14.7501C78.05 15.1501 77.95 15.6501 77.75 16.2501C77.95 16.1501 78.05 16.0501 78.15 16.0501C78.45 15.8501 78.45 15.9501 78.65 16.2501C78.65 16.3501 78.75 16.3501 78.75 16.4501C78.75 16.5501 78.75 16.5501 78.85 16.6501C79.15 16.3501 79.35 16.1501 79.65 15.8501C79.35 15.6501 79.15 15.5501 78.95 15.4501C78.85 15.3501 78.85 15.2501 78.85 15.2501ZM79.35 12.0501C79.85 11.8501 80.25 11.6501 80.55 11.4501C81.45 10.8501 82.35 10.2501 83.05 9.45013C83.55 9.05013 84.05 8.65013 84.55 8.25013C84.95 7.95013 85.25 7.65013 85.55 7.45013L85.45 7.35013C84.95 7.75013 84.35 8.15013 83.75 8.55013C82.95 9.05013 82.15 9.55013 81.45 10.0501C81.35 10.0501 81.25 10.1501 81.25 10.1501C80.95 10.6501 80.55 10.9501 80.05 11.1501C79.85 11.2501 79.65 11.3501 79.35 11.5501C79.35 11.6501 79.35 11.8501 79.35 12.0501ZM79.85 10.4501C80.45 10.3501 80.85 9.85013 81.15 9.45013C81.55 9.05013 81.95 8.75013 82.35 8.45013C82.35 8.45013 82.35 8.35013 82.25 8.35013C81.75 8.65013 81.25 8.85013 80.75 9.25013C80.55 9.45013 80.05 9.75013 79.85 10.4501ZM80.65 8.75013C81.75 8.05013 82.65 7.25013 83.55 6.25013C82.35 6.75013 81.65 7.95013 80.65 8.75013ZM83.55 3.75013C83.05 4.15013 82.45 4.45013 82.15 5.05013L82.25 5.15013C82.65 4.65013 83.15 4.25013 83.55 3.75013ZM81.45 6.65013C82.05 6.65013 82.45 6.35013 82.85 6.05013C83.45 5.55013 83.95 5.05013 84.45 4.45013C84.55 4.45013 84.55 4.35013 84.65 4.25013C83.55 4.95013 82.55 5.75013 81.45 6.65013ZM85.75 4.95013C85.25 5.45013 84.75 5.85013 84.15 6.25013C83.65 6.75013 83.15 7.25013 82.55 7.65013L82.65 7.75013C84.05 6.85013 85.35 5.85013 86.65 4.75013C86.25 4.65013 86.05 4.75013 85.75 4.95013ZM88.65 2.15013C88.35 2.35013 88.05 2.45013 87.75 2.75013C87.55 2.85013 87.55 3.05013 87.45 3.25013C87.45 3.25013 87.45 3.35013 87.55 3.35013C88.35 2.85013 89.15 2.35013 89.95 1.85013C89.55 1.85013 89.15 1.95013 88.65 2.15013ZM88.15 3.45013C89.05 3.15013 89.85 2.45013 90.75 1.95013C89.85 2.25013 89.05 2.85013 88.15 3.45013ZM92.05 1.65013C91.15 2.15013 90.35 2.65013 89.55 3.15013C89.35 3.25013 89.25 3.25013 89.05 3.35013C89.05 3.35013 89.05 3.45013 89.05 3.55013C88.75 3.65013 88.55 3.85013 88.35 4.05013C88.65 4.15013 88.85 4.15013 88.95 3.85013C89.05 3.75013 89.25 3.55013 89.35 3.55013C89.65 3.65013 89.85 3.45013 90.15 3.25013C90.95 2.75013 91.65 2.25013 92.45 1.75013C92.25 1.75013 92.15 1.75013 92.05 1.65013ZM92.25 2.35013C93.05 2.65013 93.35 1.95013 93.85 1.75013C93.25 1.65013 92.75 1.95013 92.25 2.35013ZM93.35 2.55013C93.95 2.75013 94.25 2.35013 94.75 2.05013C94.05 1.85013 93.75 2.35013 93.35 2.55013ZM94.35 2.75013C95.15 2.75013 95.95 2.55013 96.65 2.15013C95.75 2.15013 95.05 2.35013 94.35 2.75013ZM96.45 2.85013C96.85 3.05013 97.05 3.05013 97.35 2.55013C96.95 2.45013 96.85 2.55013 96.45 2.85013ZM99.65 2.35013C98.95 2.45013 98.45 2.85013 97.75 3.05013V3.15013C98.35 2.95013 99.05 2.65013 99.65 2.45013C99.65 2.35013 99.65 2.35013 99.65 2.35013ZM110.15 2.75013C110.65 2.65013 111.25 2.65013 111.75 2.55013C111.15 2.45013 110.65 2.35013 110.15 2.75013ZM111.45 1.95013C111.75 1.95013 112.15 2.15013 112.45 1.95013C112.65 1.85013 112.95 1.95013 113.25 1.95013C113.35 1.95013 113.45 1.95013 113.45 1.85013C112.85 1.85013 112.15 1.85013 111.45 1.95013ZM115.15 3.05013C115.65 2.95013 115.95 2.85013 116.45 2.75013C115.75 2.65013 115.55 2.75013 115.15 3.05013ZM117.75 6.85013C117.85 6.85013 118.05 6.75013 118.15 6.85013C118.35 6.95013 118.55 6.85013 118.65 6.65013C118.95 6.15013 119.45 5.95013 119.85 5.65013C120.25 5.45013 120.65 5.15013 120.95 4.95013V4.85013C120.75 4.95013 120.55 5.05013 120.35 5.15013C119.75 5.45013 119.25 5.85013 118.65 6.15013C118.15 6.35013 117.85 6.65013 117.35 6.85013C117.35 6.85013 117.25 6.95013 117.25 7.05013C117.45 6.95013 117.65 6.85013 117.75 6.85013ZM107.25 7.25013C107.25 7.25013 107.35 7.25013 107.25 7.25013C107.35 7.25013 107.35 7.25013 107.35 7.25013C108.35 7.25013 109.35 7.25013 110.45 7.15013C110.95 7.15013 111.55 7.05013 112.05 7.05013H112.15C112.75 7.35013 113.25 7.15013 113.85 7.15013C114.85 7.05013 115.75 7.05013 116.75 6.95013C116.85 6.95013 116.95 6.95013 117.05 6.95013C117.05 6.55013 117.25 6.35013 117.65 6.25013C118.35 5.85013 119.15 5.45013 119.95 4.95013C119.35 4.75013 118.95 4.75013 118.55 5.15013C117.85 5.65013 117.05 6.15013 116.35 6.65013C116.15 6.75013 116.05 6.85013 115.85 6.65013C116.05 6.15013 116.55 6.05013 117.05 5.75013C117.45 5.45013 117.85 5.15013 118.35 4.85013C117.85 4.65013 117.85 4.65013 117.55 4.85013C117.25 5.05013 116.95 5.25013 116.65 5.45013C115.95 5.95013 115.05 6.35013 114.45 6.95013C114.25 7.15013 114.05 7.15013 113.75 6.95013C114.85 6.25013 115.85 5.55013 116.95 4.85013C116.85 4.85013 116.75 4.75013 116.65 4.75013C116.15 4.75013 115.75 4.95013 115.25 5.25013C114.65 5.75013 113.95 6.15013 113.25 6.55013C112.85 6.75013 112.45 6.95013 112.05 7.05013C112.15 6.95013 112.15 6.75013 112.25 6.75013C112.65 6.45013 113.15 6.15013 113.65 5.85013C113.85 5.65013 114.15 5.45013 114.35 5.35013C114.55 5.15013 114.75 5.05013 115.05 4.85013C114.15 4.75013 113.55 4.95013 112.85 5.45013C112.35 5.75013 111.75 5.95013 111.25 6.25013C111.15 6.35013 111.05 6.35013 110.95 6.45013C110.65 6.75013 110.25 6.95013 109.75 7.15013C109.75 6.85013 109.75 6.75013 109.95 6.65013C110.85 6.15013 111.75 5.55013 112.65 5.05013C112.65 5.05013 112.65 5.05013 112.75 4.95013C112.35 4.75013 111.95 4.85013 111.65 5.05013C110.55 5.65013 109.45 6.35013 108.35 6.95013C108.05 7.15013 107.85 7.35013 107.55 7.55013L107.25 7.25013C107.35 7.25013 107.25 7.25013 107.25 7.25013C106.85 7.25013 106.55 7.25013 106.15 7.25013V7.15013C106.45 7.15013 106.75 7.15013 107.05 7.15013C107.15 7.05013 107.15 6.85013 107.25 6.85013C108.15 6.35013 109.05 5.85013 109.95 5.35013C110.25 5.15013 110.55 4.95013 110.95 4.65013C110.65 4.65013 110.45 4.55013 110.25 4.55013C109.85 4.55013 109.45 4.65013 109.05 4.85013C108.15 5.25013 107.35 5.85013 106.45 6.25013C106.05 6.45013 105.75 6.65013 105.35 6.85013C105.15 6.95013 104.85 7.05013 104.55 7.25013C105.35 7.45013 106.25 7.35013 107.25 7.25013ZM89.75 6.85013C89.85 6.85013 90.05 6.75013 90.15 6.75013C90.25 6.75013 90.55 6.75013 90.55 6.85013C90.65 7.15013 90.85 7.05013 90.95 7.05013C91.95 7.05013 92.85 6.95013 93.75 6.85013C94.05 6.85013 94.45 6.85013 94.65 6.55013C94.65 6.55013 94.75 6.45013 94.85 6.45013C95.15 6.65013 95.55 6.45013 95.85 6.45013C96.05 6.45013 96.25 6.45013 96.35 6.65013C96.35 6.75013 96.65 6.75013 96.75 6.75013C96.85 6.75013 97.05 6.75013 97.15 6.65013C97.35 6.55013 97.65 6.45013 97.85 6.45013C98.05 6.45013 98.25 6.65013 98.45 6.75013C98.65 6.75013 98.85 6.75013 98.95 6.65013C99.15 6.55013 99.35 6.65013 99.35 6.75013C99.45 7.25013 99.85 7.05013 100.15 7.05013C100.35 7.05013 100.55 7.05013 100.75 7.05013C101.15 7.15013 101.65 7.15013 102.05 7.15013C102.25 7.15013 102.45 7.25013 102.65 7.25013C102.95 7.25013 103.25 7.25013 103.45 7.35013C103.55 7.35013 103.65 7.25013 103.65 7.25013C104.05 7.35013 104.05 7.05013 104.15 6.85013C104.25 6.75013 104.35 6.65013 104.45 6.55013C105.25 6.15013 105.95 5.75013 106.75 5.35013C107.25 5.05013 107.85 4.85013 108.35 4.55013C108.45 4.55013 108.45 4.45013 108.55 4.35013C107.65 4.25013 106.85 4.25013 106.05 4.75013C105.55 5.05013 104.95 5.25013 104.45 5.55013C103.95 5.85013 103.35 6.15013 102.85 6.45013C102.85 6.35013 102.75 6.25013 102.75 6.25013C102.85 6.05013 103.05 5.95013 103.25 5.85013C104.15 5.35013 105.15 4.95013 106.05 4.45013L106.15 4.35013C105.85 4.15013 105.45 4.25013 105.15 4.25013C105.05 4.25013 104.95 4.35013 104.85 4.25013C104.35 4.05013 104.05 4.35013 103.65 4.55013C103.05 4.85013 102.45 5.15013 101.85 5.45013C101.75 5.55013 101.65 5.55013 101.55 5.65013C101.25 5.95013 100.95 6.05013 100.45 5.95013C101.45 5.25013 102.45 4.95013 103.35 4.25013C102.65 4.25013 102.05 4.25013 101.45 4.35013C100.85 4.45013 100.25 4.75013 99.65 4.95013C99.65 4.55013 99.95 4.55013 100.15 4.35013C99.65 4.35013 99.15 4.35013 98.65 4.45013C97.55 4.45013 96.35 4.45013 95.25 4.45013C95.05 4.45013 94.85 4.45013 94.65 4.45013C94.45 4.35013 94.25 4.45013 94.05 4.55013C93.85 4.65013 93.65 4.65013 93.45 4.65013C92.75 4.65013 92.15 4.55013 91.45 4.55013C91.25 4.55013 91.05 4.55013 90.85 4.55013C90.25 4.55013 89.85 4.95013 89.55 5.45013C89.45 5.55013 89.35 5.65013 89.25 5.75013C89.05 6.05013 88.75 6.35013 88.75 6.75013C89.15 6.95013 89.45 6.85013 89.75 6.85013ZM88.05 15.9501C88.25 16.0501 88.35 16.0501 88.45 15.9501C89.05 15.3501 89.65 14.7501 90.35 14.0501L90.25 13.9501C89.55 14.6501 88.75 15.3501 88.05 15.9501Z" fill="#271812"/>
</g>
<defs>
<clipPath id="clip0">
<rect width="123.1" height="32.2" fill="white" transform="translate(0.549988 0.650146)"/>
</clipPath>
</defs>
</svg>
