<svg width="35" height="124" viewBox="0 0 35 124" fill="none" xmlns="http://www.w3.org/2000/svg">
<g clip-path="url(#clip0)">
<path fill-rule="evenodd" clip-rule="evenodd" d="M22.25 121.95C21.85 122.15 18.55 124.05 18.15 123.85C17.05 123.25 15.95 122.75 14.75 122.15C14.05 121.85 9.24998 117.75 8.84998 117.35C8.44998 116.85 7.94998 116.25 7.44998 115.75C6.94998 115.25 5.94998 113.95 5.94998 113.85C5.84998 113.75 5.84998 113.55 5.74998 113.45C5.54998 113.25 4.84998 111.85 4.84998 111.85C4.24998 110.85 3.84998 109.65 3.54998 108.45C3.24998 107.25 2.84998 106.05 2.44998 104.75C2.24998 103.95 2.04998 103.15 1.84998 102.45C1.84998 102.25 1.54998 100.35 1.44998 99.8501C1.24998 98.55 1.04998 97.25 0.849976 96.05C0.749976 94.9501 0.649976 93.85 0.549976 92.75C0.449976 90.85 0.349976 82.15 0.349976 82.05C0.649976 80.8501 -0.0500244 74.3501 1.14998 73.9501C1.34998 73.8501 3.54998 73.65 4.54998 73.55C5.24998 73.55 12.95 73.15 12.95 73.05C13.15 72.75 13.35 72.75 13.65 72.65C13.95 72.55 14.55 72.05 14.65 71.9501C14.85 71.3501 15.15 70.65 15.35 70.05C15.55 69.55 15.55 56.85 15.45 56.35C15.35 55.45 15.15 52.35 15.25 52.25C15.15 51.9501 15.05 51.55 14.95 51.25C14.85 50.85 14.75 50.55 14.65 50.15C14.55 49.35 14.35 48.65 14.25 47.85C14.05 46.65 13.95 45.55 13.75 44.35C13.55 43.25 13.55 35.35 13.15 35.25C13.05 34.9501 12.95 34.55 12.85 34.25C12.85 34.05 12.95 33.85 13.05 33.75C13.35 33.4501 13.35 33.15 13.35 32.65C13.25 31.55 12.95 27.85 12.95 27.15C12.95 26.25 13.05 17.35 13.05 16.95C13.05 16.45 12.95 16.05 12.95 15.55C12.95 14.95 12.95 14.35 13.05 13.75C13.05 13.05 13.15 12.45 13.15 11.75C13.15 11.35 13.15 11.05 13.15 10.65C13.15 10.35 13.25 8.55005 13.25 8.35005C13.35 7.15005 13.25 5.85005 13.55 4.65005C13.55 4.55005 13.65 4.45005 13.65 4.35005C13.95 3.75005 14.35 0.950049 18.25 0.550049C18.65 0.650049 18.95 0.550049 19.35 0.550049C19.95 0.650049 20.65 0.750049 21.25 1.05005C21.45 1.25005 21.75 1.45005 21.85 1.65005C22.45 2.35005 22.95 2.95005 23.25 3.75005C23.65 4.75005 23.95 10.45 23.95 11.05C23.95 12.15 23.95 13.25 23.95 14.25C23.95 16.15 23.55 25.75 23.55 26.55C23.55 27.35 23.55 28.15 23.55 29.05C23.55 29.75 23.55 30.35 23.45 31.05C23.45 31.35 23.45 31.65 23.45 31.95C23.45 32.05 23.45 32.25 23.65 32.15L23.75 32.25C24.15 33.05 24.05 33.85 23.55 34.55C23.45 34.75 23.35 34.9501 23.35 35.25C23.25 36.4501 23.35 37.65 23.15 38.85C23.05 39.65 22.25 47.55 21.85 48.05C21.85 48.15 21.85 48.1501 21.75 48.25C21.55 48.9501 21.45 49.75 21.25 50.4501C21.25 50.6501 20.95 51.85 20.95 52.35C20.75 53.35 20.55 54.25 20.55 55.25C20.55 55.85 20.55 57.05 20.55 57.15C20.35 57.85 20.55 64.05 20.55 64.9501C20.55 65.8501 20.65 70.2501 21.25 71.4501C21.35 71.65 21.35 71.8501 21.45 72.05C21.55 72.4501 21.75 72.55 22.15 72.55C22.45 72.55 31.05 72.75 31.55 72.75C31.85 72.75 34.05 73.05 34.35 73.55C34.55 73.8501 34.45 76.9501 34.45 77.3501C34.45 78.1501 34.35 79.05 34.35 79.8501C34.35 80.05 34.35 83.25 34.35 83.55C34.35 84.75 34.25 85.9501 34.25 87.05C34.25 87.75 33.85 94.05 33.75 95.05C33.65 96.15 33.55 97.2501 33.45 98.4501C33.35 99.55 33.25 100.65 33.15 101.75C31.95 110.45 29.45 113.35 29.05 114.05C28.65 114.75 27.25 116.95 26.95 117.25C26.15 118.15 22.45 121.85 22.25 121.95ZM20.15 48.05C20.15 48.25 20.15 48.4501 20.15 48.55C20.35 48.9501 20.95 48.8501 21.05 49.4501C20.85 49.4501 20.65 49.55 20.45 49.4501C20.25 49.3501 20.15 49.25 20.05 49.05C20.25 49.85 20.25 49.85 20.55 50.05C20.55 50.4501 20.25 50.45 19.95 50.35C19.95 50.65 19.95 50.85 19.85 51.15C20.05 51.25 20.15 51.25 20.25 51.05C20.25 50.9501 20.35 50.85 20.35 50.85C20.85 50.35 20.85 49.65 21.05 49.05C21.05 48.9501 21.05 48.75 20.95 48.65C20.75 48.45 20.45 48.25 20.15 48.05ZM18.35 50.4501C18.05 50.55 17.85 50.55 17.65 50.55L17.55 50.65C17.65 50.75 17.75 51.05 17.85 50.9501C18.15 50.9501 18.15 50.75 18.35 50.4501ZM20.25 46.9501C20.15 47.6501 20.35 47.85 21.35 48.25C21.35 47.9501 21.35 47.75 21.35 47.55C20.95 47.35 20.65 47.1501 20.25 46.9501ZM20.25 45.55C20.25 45.9501 20.15 46.25 20.25 46.4501C20.55 46.6501 20.95 46.75 21.25 46.9501L21.35 46.85C21.35 46.15 20.75 46.05 20.25 45.55ZM21.55 45.05C21.15 44.85 20.75 44.65 20.35 44.35C20.35 44.65 20.25 44.75 20.25 44.9501C20.25 45.05 20.25 45.25 20.35 45.25C20.65 45.4501 21.05 45.75 21.45 45.75C21.55 45.55 21.55 45.25 21.55 45.05ZM21.25 42.4501C21.05 42.3501 20.75 42.25 20.45 42.15C20.45 42.75 20.75 42.95 21.55 43.15C21.55 43.25 21.65 43.35 21.65 43.55C21.15 43.75 20.85 43.45 20.65 43.15C20.45 43.45 20.35 43.75 20.45 44.15C20.85 44.25 21.35 44.35 21.85 44.55C21.95 44.05 21.95 43.4501 22.05 43.05C21.75 42.75 21.55 42.55 21.25 42.4501ZM22.05 41.4501C21.55 41.25 21.15 40.9501 20.55 40.75C20.55 41.05 20.55 41.25 20.55 41.55C20.55 41.75 20.65 41.8501 20.85 41.9501C21.25 42.05 21.65 42.25 22.05 42.35C22.05 42.05 22.05 41.75 22.05 41.4501ZM22.05 38.75C21.55 38.55 21.05 38.35 20.55 38.05C20.55 38.85 20.55 39.6501 20.55 40.4501C20.85 40.55 21.15 40.65 21.45 40.85C21.65 40.95 21.85 40.95 21.95 40.65C21.95 40.55 22.05 40.45 22.05 40.35C21.55 40.05 21.15 39.85 20.65 39.55V39.4501C20.75 39.4501 20.85 39.3501 20.95 39.4501C21.05 39.4501 21.25 39.55 21.35 39.65C21.55 39.75 21.75 39.85 21.85 39.65C22.25 39.35 22.25 38.9501 22.05 38.75C22.15 38.75 22.15 38.75 22.05 38.75ZM20.65 36.65C20.65 36.95 20.65 37.1501 20.65 37.4501C20.65 37.55 20.65 37.75 20.75 37.75C21.25 37.9501 21.65 38.25 22.15 38.25C22.45 37.35 22.35 37.25 21.65 36.9501C21.55 36.8501 21.35 36.85 21.15 36.85C20.95 36.75 20.75 36.65 20.65 36.65ZM22.05 36.05C21.55 35.85 21.05 35.6501 20.55 35.4501C20.55 36.1501 20.55 36.25 21.05 36.35C21.35 36.45 21.55 36.55 21.85 36.55C21.95 36.55 21.95 36.55 22.05 36.55C21.95 36.35 22.05 36.25 22.05 36.05ZM21.65 34.65C21.25 34.45 20.85 34.35 20.35 34.15C20.35 34.45 20.45 34.65 20.45 34.85C20.95 35.15 21.45 35.4501 22.05 35.4501C22.15 34.8501 22.25 34.95 21.65 34.65ZM20.55 33.25C20.55 33.4501 20.55 33.55 20.55 33.75C21.05 33.9501 21.55 34.35 22.05 34.35C22.05 34.05 22.05 33.85 22.05 33.55C21.55 33.4501 21.05 33.35 20.55 33.25ZM20.95 32.15C20.75 32.15 20.65 32.15 20.55 32.45C20.55 32.75 20.65 32.9501 21.05 33.05C21.35 33.05 21.75 33.15 22.15 33.15C22.15 32.95 22.15 32.85 22.25 32.65C22.05 32.55 21.85 32.45 21.75 32.45C21.45 32.25 21.25 32.15 20.95 32.15ZM20.75 31.05C20.75 32.05 21.55 31.85 22.15 31.95C22.15 31.65 22.15 31.4501 22.25 31.25C21.75 31.15 21.25 31.15 20.75 31.05ZM21.75 26.55C21.65 26.85 21.55 27.05 21.45 27.35C21.85 27.45 21.85 27.15 21.95 26.95C22.05 26.95 21.95 26.75 21.75 26.55ZM22.65 25.15C22.45 25.45 22.25 25.75 22.15 26.05C22.05 26.25 22.05 26.45 22.45 26.55C22.55 26.05 22.65 25.55 22.65 25.15C22.75 25.15 22.65 25.15 22.65 25.15ZM17.95 25.75C17.75 25.75 17.55 25.75 17.35 25.75C17.35 25.9501 17.35 26.05 17.35 26.15C17.75 26.15 17.75 26.15 17.95 25.75ZM18.85 25.35C19.05 25.35 19.25 25.45 19.55 25.45C19.65 25.25 19.65 25.15 19.75 24.95C19.55 24.85 19.35 24.65 19.25 24.75C19.05 24.85 18.85 25.05 18.85 25.35ZM17.95 24.45C17.85 24.45 17.75 24.45 17.65 24.45C17.55 24.45 17.35 24.55 17.35 24.55C17.35 24.65 17.35 24.85 17.45 24.85C17.55 24.95 17.75 25.05 17.95 25.15C17.95 24.95 17.95 24.75 17.95 24.45ZM22.75 24.25C22.25 24.35 21.95 24.75 22.15 25.25C22.35 24.85 22.95 24.75 22.75 24.25ZM21.55 23.95C21.65 23.95 21.75 24.05 21.85 24.05C21.75 24.25 21.65 24.35 21.55 24.55C21.65 24.55 21.75 24.65 21.75 24.65C21.95 24.45 22.05 24.15 22.25 23.95C21.65 23.65 21.65 23.65 21.55 23.95ZM19.35 23.65C18.85 23.45 18.65 23.45 18.45 23.65C18.65 23.75 18.85 23.95 19.15 24.05C19.25 23.95 19.35 23.85 19.35 23.65C19.35 23.75 19.35 23.65 19.35 23.65ZM18.05 23.85C17.85 23.75 17.65 23.65 17.35 23.45C17.35 23.65 17.25 23.85 17.35 23.85C17.55 23.95 17.75 23.95 18.05 23.95C17.95 23.95 18.05 23.95 18.05 23.85ZM22.25 22.75C22.05 22.85 21.95 23.05 21.95 23.35C21.95 23.45 22.25 23.55 22.25 23.55C22.45 23.35 22.55 23.25 22.75 23.05C22.55 22.95 22.35 22.85 22.25 22.75ZM19.25 22.45C19.05 22.45 18.95 22.45 18.65 22.45C18.95 22.75 19.15 22.85 19.35 23.05C19.35 23.05 19.55 22.95 19.65 22.95C19.65 22.75 19.45 22.55 19.25 22.45ZM22.85 21.65C22.75 21.55 22.75 21.35 22.65 21.25C22.55 21.15 22.45 21.05 22.35 20.95C22.15 21.25 21.95 21.55 21.85 21.85C22.25 22.25 22.45 21.75 22.85 21.75C22.75 21.9501 22.65 22.15 22.55 22.25C22.65 22.35 22.85 22.45 22.95 22.65C23.25 22.15 23.25 22.15 22.85 21.65ZM19.95 10.05C19.75 10.25 19.55 10.45 19.35 10.75C19.65 10.75 19.75 10.75 19.85 10.75C19.95 10.45 19.95 10.25 19.95 10.05ZM20.65 10.75C20.95 10.85 21.15 10.85 21.35 10.85C21.25 10.65 21.15 10.45 21.05 10.15C20.95 10.35 20.75 10.55 20.65 10.75ZM16.55 9.85005C16.45 10.35 16.55 10.75 16.95 11.15C17.25 10.85 17.45 10.55 17.65 10.25C17.35 9.95005 16.95 9.95005 16.55 9.85005ZM17.45 11.35C17.75 11.45 18.05 11.65 18.25 11.75C18.75 11.25 18.75 11.05 18.65 10.75C18.55 10.85 18.45 10.95 18.45 11.15C17.95 11.15 18.35 10.65 17.95 10.45C17.85 10.75 17.65 11.05 17.45 11.35ZM16.25 11.35C16.25 11.65 16.25 11.85 16.35 12.15C16.35 12.45 16.55 12.75 16.85 12.85C17.05 12.85 17.25 12.95 17.35 12.95C17.75 13.15 17.95 12.85 18.15 12.65C18.25 12.55 18.35 12.45 18.45 12.25C17.65 11.85 16.95 11.65 16.25 11.35ZM18.25 13.15C18.45 13.25 18.65 13.55 19.05 13.45C18.95 13.25 18.95 13.15 18.85 12.95C18.95 12.95 19.05 12.85 19.15 12.75C19.05 12.65 18.95 12.55 18.85 12.45C18.65 12.65 18.45 12.95 18.25 13.15ZM21.65 13.65C21.75 13.65 21.85 13.55 21.85 13.55C21.95 13.35 21.95 13.15 22.05 12.95C21.65 12.95 21.55 12.85 21.35 12.65C21.25 12.55 20.95 12.55 20.85 12.55C20.75 12.55 20.75 12.95 20.85 13.05C20.85 13.05 20.95 13.15 21.05 13.15C21.25 13.15 21.45 13.15 21.75 13.15C21.55 13.35 21.55 13.55 21.65 13.65ZM17.25 13.55C16.95 13.65 16.95 13.65 16.85 13.95C17.45 14.25 17.95 14.45 18.55 14.75C18.55 14.55 18.55 14.45 18.65 14.25C18.45 14.15 18.15 14.15 18.35 13.75C18.35 13.75 18.25 13.55 18.15 13.55C17.85 13.45 17.65 13.45 17.25 13.55ZM17.15 14.55C17.05 15.05 16.95 15.35 16.85 15.65C17.05 15.75 17.25 15.75 17.35 15.85C17.55 16.05 17.65 16.05 17.85 15.95C18.25 15.95 18.65 15.95 19.15 15.95C19.25 15.85 19.35 15.65 19.45 15.55C19.25 15.35 19.05 15.25 18.85 15.35C18.45 15.55 18.25 15.55 17.95 15.15C17.75 15.05 17.45 14.85 17.15 14.55ZM16.85 16.05C16.95 16.45 16.95 16.75 17.15 16.95C17.45 17.15 17.85 17.55 18.25 17.55C18.65 17.55 18.95 17.65 19.35 17.65C19.35 17.55 19.35 17.45 19.35 17.45C19.15 17.35 18.95 17.15 18.75 17.05C18.15 16.75 17.55 16.45 16.85 16.05ZM20.35 17.65C20.35 17.35 20.35 17.05 20.35 16.75C19.85 17.15 19.85 17.45 20.35 17.65ZM20.85 17.85C21.05 17.95 21.15 18.05 21.25 18.15C21.35 17.95 21.45 17.75 21.55 17.65C21.65 17.55 21.75 17.35 21.55 17.25C21.35 17.15 21.15 17.25 21.05 17.35C20.95 17.55 20.85 17.65 20.85 17.85ZM17.35 17.95C17.25 18.45 17.15 18.95 17.75 19.15C17.95 19.25 18.05 19.35 18.25 19.25C18.35 19.15 18.55 19.25 18.65 19.25C18.85 19.25 19.15 19.25 19.45 19.15V19.05C18.75 18.65 18.05 18.25 17.35 17.95ZM19.05 18.25V18.35C19.35 18.55 19.65 18.65 19.95 18.85C19.95 18.65 19.95 18.45 19.95 18.35C19.55 18.25 19.25 18.15 19.05 18.25ZM20.65 19.35C20.75 19.15 20.95 18.95 21.05 18.65C20.85 18.55 20.75 18.55 20.55 18.45C20.45 18.75 20.35 18.75 20.05 18.65C20.05 19.05 20.35 19.15 20.65 19.35ZM20.95 19.45C21.15 19.65 21.35 19.75 21.55 19.95C21.65 19.75 21.85 19.55 22.05 19.35C21.85 19.15 21.65 19.05 21.35 18.75C21.15 19.05 21.05 19.25 20.95 19.45ZM21.75 20.25C21.95 20.35 22.05 20.45 22.15 20.55C22.55 20.05 22.55 19.95 22.25 19.55C22.05 19.75 21.95 19.9501 21.75 20.25ZM19.95 19.65C19.55 19.65 19.15 19.65 18.65 19.65C19.05 19.95 19.45 20.15 19.85 20.45C19.85 20.15 19.85 19.95 19.95 19.65ZM17.35 19.35C17.35 19.75 17.35 20.15 17.35 20.55C17.75 20.65 18.05 20.75 18.45 20.85C18.55 20.55 18.65 20.35 18.85 20.05C18.75 19.95 18.65 19.85 18.55 19.85C18.45 19.95 18.25 20.15 18.15 20.35C18.05 19.95 17.95 19.75 17.95 19.45C17.55 19.45 17.45 19.45 17.35 19.35ZM20.85 21.05C21.05 20.75 21.15 20.55 21.35 20.35C21.15 20.25 21.05 20.15 20.85 20.15C20.75 20.15 20.55 20.35 20.55 20.45C20.55 20.55 20.65 20.75 20.85 21.05ZM21.05 21.35C21.15 21.45 21.25 21.55 21.45 21.65C21.65 21.35 21.75 21.05 21.85 20.85C21.85 20.75 21.75 20.65 21.75 20.55C21.65 20.55 21.55 20.55 21.45 20.65C21.35 20.85 21.25 21.15 21.05 21.35ZM17.75 21.35C17.75 21.55 17.75 21.75 17.65 22.05C17.85 22.05 17.95 22.05 18.15 22.05C18.35 21.35 18.25 21.25 17.75 21.35ZM23.05 18.95C23.35 19.25 23.15 19.65 23.15 19.95C23.15 20.45 22.65 20.45 22.45 20.85C22.65 21.05 22.95 21.25 23.25 21.55C23.25 20.85 23.25 20.15 23.35 19.45C23.35 19.25 23.35 19.05 23.05 18.95ZM21.95 17.75C21.85 18.05 21.65 18.25 21.55 18.55C21.75 18.75 21.95 18.85 22.15 19.05C22.65 18.55 22.55 18.35 21.95 17.75ZM23.05 17.25C22.95 17.05 22.85 16.85 22.75 16.65C22.65 16.85 22.55 17.05 22.45 17.15C22.75 17.35 22.95 17.55 23.35 17.75C23.35 17.4501 23.35 17.25 23.25 17.05C23.05 17.15 23.05 17.25 23.05 17.25ZM22.35 16.45C22.15 16.25 22.05 16.15 21.85 15.95H21.75C21.75 16.15 21.65 16.25 21.75 16.45C21.85 16.55 21.95 16.65 22.05 16.75C22.15 16.65 22.25 16.55 22.35 16.45ZM22.65 14.85C21.95 15.85 22.05 15.65 22.55 16.15C22.75 15.95 22.95 15.75 23.15 15.55C22.95 15.35 22.85 15.05 22.65 14.85ZM21.95 14.35C21.75 14.65 21.45 14.95 21.55 15.35C21.95 15.25 22.05 14.95 22.15 14.65C22.25 14.65 22.05 14.45 21.95 14.35ZM22.95 13.65C22.85 13.45 22.65 13.25 22.45 12.95C22.35 13.25 22.25 13.35 22.15 13.55C21.95 13.95 21.95 14.05 22.45 14.25C22.65 14.05 22.85 13.85 22.95 13.65ZM23.15 12.25C22.95 12.45 22.65 12.55 22.65 12.65C22.55 13.05 22.95 13.05 23.25 13.25C23.15 12.95 23.15 12.65 23.15 12.25ZM21.55 11.55C21.35 11.75 21.25 11.85 21.55 12.05C21.75 12.25 21.95 12.45 22.15 12.65L22.25 12.45C22.05 12.05 21.85 11.75 21.55 11.55ZM19.75 11.35C19.55 11.35 19.35 11.35 19.15 11.45C19.15 11.65 19.05 11.95 18.95 12.25C19.55 12.05 19.65 11.65 19.75 11.35ZM23.15 10.05C22.85 9.65005 22.55 9.35005 22.15 9.05005C21.95 9.15005 21.75 9.25005 21.55 9.35005C21.55 9.65005 21.75 9.95005 22.05 10.05C22.25 10.15 22.35 10.25 22.25 10.55C22.25 10.65 22.25 10.75 22.35 10.85C22.45 10.95 22.65 11.05 22.75 11.15C22.85 10.95 23.05 10.65 23.15 10.45C23.15 10.35 23.25 10.15 23.15 10.05ZM18.35 4.95005C17.85 5.55005 17.75 5.75005 18.15 6.15005C18.35 5.85005 18.55 5.55005 18.75 5.25005C18.55 5.15005 18.45 5.05005 18.35 4.95005ZM19.45 5.15005C19.75 5.25005 19.95 5.15005 20.05 4.95005C20.15 4.75005 20.15 4.65005 19.95 4.45005C19.65 4.65005 19.55 4.85005 19.45 5.15005ZM19.25 6.65005C19.55 6.65005 19.85 6.65005 20.05 6.65005C20.05 6.35005 20.35 6.15005 19.95 5.75005C19.75 6.15005 19.55 6.35005 19.25 6.65005ZM16.95 6.15005C16.85 6.55005 16.85 6.85005 17.05 7.25005C17.15 6.95005 17.35 6.75005 17.35 6.65005C17.15 6.45005 17.05 6.35005 16.95 6.15005ZM17.45 7.45005C17.65 7.55005 17.85 7.75005 18.05 7.85005C18.25 7.55005 18.45 7.25005 18.65 6.85005C18.55 6.75005 18.45 6.65005 18.45 6.65005C18.35 6.75005 18.15 6.85005 18.05 7.05005C17.85 6.85005 17.75 6.75005 17.65 7.05005C17.55 7.15005 17.45 7.25005 17.45 7.45005ZM15.95 7.45005C16.05 8.15005 16.15 8.85005 16.25 9.45005C16.75 9.65005 17.25 9.75005 17.85 9.85005C18.05 9.35005 18.15 8.95005 18.35 8.45005C18.35 8.45005 18.35 8.45005 18.25 8.45005C18.15 8.55005 18.05 8.75005 17.95 8.85005C17.85 8.75005 17.75 8.65005 17.65 8.55005C17.65 8.45005 17.75 8.25005 17.85 8.15005C17.25 7.85005 16.75 7.45005 15.95 7.45005ZM23.35 8.55005C23.15 8.85005 22.95 9.25005 23.35 9.55005C23.35 9.25005 23.35 8.85005 23.35 8.55005ZM21.95 6.05005C21.95 6.25005 21.95 6.55005 21.85 6.85005C22.05 6.95005 22.25 7.05005 22.45 7.25005C22.55 7.35005 22.55 7.45005 22.55 7.65005C22.25 7.65005 22.05 7.35005 21.85 7.25005C21.75 7.15005 21.55 7.05005 21.45 6.95005C21.55 7.15005 21.75 7.35005 21.75 7.55005C21.75 7.75005 21.55 7.95005 21.55 8.15005C21.95 8.55005 22.35 8.85005 22.85 9.25005C22.85 8.95005 22.85 8.75005 22.85 8.55005C22.85 8.25005 22.85 8.05005 22.65 7.85005C22.65 7.85005 22.65 7.75005 22.55 7.65005C22.65 7.65005 22.75 7.55005 22.75 7.55005C22.95 6.95005 22.55 6.25005 21.95 6.05005ZM22.75 6.15005C22.75 5.65005 22.35 5.35005 22.05 4.95005C21.85 5.45005 22.05 5.75005 22.75 6.15005ZM21.85 3.75005C21.85 3.85005 21.75 3.95005 21.75 3.95005C22.05 4.35005 22.25 4.75005 22.55 5.15005C22.65 4.75005 22.45 4.35005 21.85 3.75005ZM21.25 2.45005C21.25 2.45005 21.25 2.55005 21.25 2.45005C21.55 2.95005 21.95 3.35005 22.35 3.75005C22.25 3.15005 21.85 2.75005 21.25 2.45005ZM18.65 1.85005C18.05 1.85005 17.65 2.25005 17.15 2.45005C17.75 3.35005 17.75 3.35005 17.45 3.65005C17.25 3.45005 17.15 3.15005 16.95 2.95005C16.75 2.75005 16.55 2.75005 16.45 2.95005C16.25 3.25005 16.05 3.55005 16.05 3.95005C15.85 4.95005 15.85 5.95005 15.95 6.95005C16.15 6.95005 16.25 7.05005 16.45 7.05005C16.45 6.95005 16.45 6.85005 16.45 6.75005C16.45 6.25005 16.45 5.75005 16.45 5.25005C16.45 5.05005 16.45 4.85005 16.75 4.85005C16.85 5.75005 16.85 5.75005 17.05 5.75005C16.75 5.35005 16.85 5.05005 16.95 4.65005C17.05 4.15005 17.15 4.15005 17.65 4.35005C18.05 4.55005 18.05 4.55005 18.35 4.15005C18.45 3.95005 18.65 3.75005 18.75 3.55005C18.65 3.45005 18.65 3.35005 18.55 3.25005C18.35 3.45005 18.15 3.65005 17.85 3.95005C17.75 3.65005 17.75 3.65005 18.05 2.95005C17.95 2.95005 17.85 2.85005 17.75 2.85005C17.65 2.85005 17.55 2.75005 17.45 2.75005C17.55 2.25005 17.55 2.25005 18.25 2.65005C18.75 2.45005 18.75 2.15005 18.65 1.85005ZM14.05 30.15C14.35 29.95 13.95 29.75 14.15 29.65C14.65 29.45 15.15 29.25 15.75 29.05C15.75 28.75 15.75 28.55 15.75 28.35C15.35 28.25 14.95 28.15 14.45 28.15C14.95 27.65 15.45 28.15 15.95 28.05C16.05 27.75 16.15 27.45 16.25 27.05C15.95 26.95 15.65 26.95 15.35 26.85C15.25 26.85 15.05 26.75 15.05 26.75C15.05 26.65 15.05 26.45 15.15 26.45C15.25 26.35 15.35 26.35 15.55 26.45C15.85 26.55 16.05 26.65 16.35 26.75C16.35 26.25 16.35 25.75 16.45 25.35C16.45 25.05 16.45 25.05 16.25 24.95C15.85 24.75 15.35 24.65 14.95 24.55C14.85 24.55 14.75 24.45 14.65 24.35C14.75 24.25 14.85 24.15 14.95 24.15C15.25 24.15 15.45 24.25 15.75 24.35C15.95 24.45 16.25 24.55 16.55 24.65C16.55 24.15 16.55 23.65 16.65 23.15C16.25 23.05 15.85 22.9501 15.45 22.75C15.45 22.65 15.55 22.55 15.55 22.35C15.95 22.45 16.25 22.55 16.55 22.55C16.65 22.35 16.75 22.15 16.85 21.85C16.35 21.65 15.95 21.35 15.45 21.15C15.15 21.05 15.15 20.85 15.35 20.65C15.85 20.85 16.35 21.15 16.85 21.35C16.95 20.75 16.95 20.65 16.35 20.45C16.05 20.35 15.85 20.25 15.55 20.05C15.75 19.65 15.75 19.65 16.05 19.85C16.25 19.95 16.45 20.05 16.65 20.15C16.65 19.65 16.65 19.25 16.65 18.85C16.25 18.75 15.95 18.35 15.45 18.55C15.45 18.35 15.45 18.25 15.45 18.15C15.95 18.05 16.35 18.35 16.85 18.45C16.85 18.35 16.85 18.25 16.85 18.15C16.85 17.65 16.85 17.65 16.35 17.55C16.15 17.55 15.95 17.45 15.75 17.35C16.05 16.75 16.45 17.25 16.75 17.15C16.75 16.85 16.75 16.55 16.75 16.25C16.75 15.95 16.65 15.85 16.45 15.85C16.25 15.75 15.95 15.75 15.75 15.65C15.55 15.65 15.45 15.45 15.55 15.35C15.55 15.25 15.75 15.25 15.85 15.25C16.15 15.35 16.45 15.45 16.75 15.55C16.85 15.15 16.95 14.75 17.05 14.35C16.75 14.25 16.55 14.25 16.25 14.15C16.15 14.35 16.15 14.45 16.05 14.65C15.85 14.45 15.55 14.35 15.75 14.05C15.85 13.75 16.05 13.75 16.35 13.85C16.65 13.85 16.85 13.95 17.15 13.95C16.75 13.55 16.75 13.55 16.35 13.45C16.15 13.35 15.85 13.25 15.95 13.05C16.05 12.55 15.85 12.15 15.75 11.75C15.65 11.55 15.65 11.25 15.55 10.95C15.55 10.85 15.65 10.75 15.65 10.55C15.65 9.75005 15.55 8.95005 15.55 8.15005C15.55 7.45005 15.65 6.75005 15.55 6.05005C15.45 5.15005 15.55 4.35005 15.85 3.45005C15.95 3.05005 16.15 2.55005 16.55 2.35005C16.85 2.25005 16.95 2.05005 16.95 1.85005C16.75 1.75005 16.45 1.65005 16.25 1.85005C15.85 2.15005 15.55 2.45005 15.35 2.85005C15.15 3.15005 14.95 3.45005 14.75 3.75005V3.85005C14.85 3.85005 14.95 3.95005 15.15 4.05005C15.05 4.25005 14.95 4.45005 14.85 4.55005C14.65 4.85005 14.45 5.15005 14.25 5.45005C14.15 5.65005 14.05 5.95005 13.85 6.15005C13.65 6.35005 13.65 6.55005 13.75 6.85005C13.85 6.55005 14.05 6.35005 14.15 6.15005C14.25 5.95005 14.35 5.85005 14.55 5.95005C14.65 6.05005 14.65 6.25005 14.55 6.35005C14.45 6.65005 14.25 6.85005 14.05 7.05005C14.55 7.25005 14.55 7.75005 14.25 8.05005C13.85 8.45005 13.55 9.05005 13.65 9.55005C13.95 8.95005 13.95 8.95005 14.25 9.15005C14.15 9.35005 14.05 9.65005 14.05 9.85005C14.45 10.15 14.45 10.15 14.25 10.45C13.95 10.95 13.85 11.45 13.55 11.95C13.85 11.95 13.95 11.35 14.25 11.75C13.95 12.35 13.75 12.95 13.45 13.55C13.45 13.55 13.45 13.65 13.45 13.75C13.55 13.75 13.55 13.65 13.65 13.65C13.75 13.65 13.85 13.65 13.95 13.65C13.95 13.75 13.95 13.85 13.95 13.95C13.75 14.35 13.55 14.85 13.45 15.25V15.35C13.55 15.35 13.75 15.35 13.85 15.35C13.95 15.65 14.05 15.95 13.65 16.15C13.55 16.05 13.55 16.05 13.45 15.95C13.05 16.65 13.75 16.65 13.95 16.85C13.85 17.35 13.35 17.65 13.35 18.15C13.75 18.35 13.95 18.85 13.65 19.05C13.35 19.35 13.45 19.65 13.45 19.95C13.65 19.95 13.75 20.05 13.95 20.05C13.95 20.25 13.95 20.45 13.95 20.55C13.85 20.95 13.75 21.25 13.95 21.55C13.95 21.65 13.95 21.75 13.95 21.85C13.85 22.85 13.75 23.75 13.95 24.75C13.95 24.9501 14.05 25.05 14.15 25.25C14.15 25.4501 14.15 25.75 14.25 25.95C14.15 25.95 14.05 26.05 13.85 26.05C13.75 25.75 13.65 25.55 13.55 25.25H13.45C13.55 26.35 13.55 27.55 13.65 28.65C13.65 28.65 13.65 28.65 13.75 28.65C13.75 28.15 13.75 27.65 13.85 27.15C13.95 27.15 14.15 27.15 14.25 27.05C14.45 27.65 14.35 28.25 14.35 28.75C14.35 29.05 14.25 29.35 13.85 29.45C13.85 29.45 13.85 29.55 13.85 29.65C13.95 29.55 13.95 29.95 14.05 30.15ZM14.15 42.35C14.15 41.75 14.05 41.05 14.05 40.4501H13.95C13.95 41.05 13.95 41.75 13.95 42.35C14.05 42.35 14.15 42.35 14.15 42.35ZM16.75 52.4501C17.05 52.1501 17.05 52.1501 17.05 51.75C17.05 51.6501 17.05 51.55 17.15 51.55C17.35 51.05 17.35 51.05 16.85 50.65C16.65 50.65 16.55 50.75 16.25 50.75C16.35 50.4501 16.35 50.25 16.55 50.25C17.05 50.1501 17.55 50.15 18.05 50.05C18.55 50.05 18.65 49.85 18.55 49.35C18.05 49.45 17.45 49.55 16.95 49.55C16.85 49.15 16.85 49.05 17.25 49.05C17.65 49.05 18.05 49.05 18.45 48.9501C18.55 48.9501 18.75 48.85 18.85 48.75C18.95 48.55 18.75 48.4501 18.65 48.4501C18.15 48.3501 17.65 48.15 17.25 48.35C17.15 48.35 17.05 48.35 16.95 48.35C16.95 47.95 16.95 47.95 17.25 47.85C17.65 47.75 18.15 47.8501 18.55 47.9501C19.05 48.05 19.15 47.8501 19.15 47.4501C19.15 47.3501 19.15 47.25 19.25 47.05C18.85 47.05 18.45 47.05 18.05 47.05C17.85 47.05 17.55 47.05 17.35 47.05C17.15 47.05 17.05 46.85 17.15 46.65C17.95 46.65 18.65 46.75 19.45 46.75C19.45 46.35 19.15 45.85 18.75 45.75C18.25 45.6501 17.75 45.55 17.25 45.55C17.15 45.55 17.05 45.45 17.05 45.35C17.15 45.25 17.25 45.15 17.25 45.15C17.45 45.15 17.65 45.1501 17.75 45.25C18.25 45.35 18.75 45.3501 19.25 45.4501C19.05 45.1501 18.95 45.05 18.85 44.85C19.05 44.75 19.15 44.75 19.25 44.65V44.55C18.55 44.25 17.85 43.9501 16.95 44.05C16.95 43.85 17.05 43.75 17.05 43.55C17.75 43.65 18.35 43.75 18.95 43.9501C18.85 43.75 18.85 43.6501 18.75 43.4501C18.95 43.4501 19.05 43.35 19.25 43.35C19.15 43.25 19.15 43.15 19.15 43.15C19.05 43.05 18.85 43.05 18.75 43.05C18.35 42.9501 18.05 42.95 17.65 42.85C17.55 42.85 17.35 42.85 17.35 42.55C17.35 42.35 17.55 42.35 17.75 42.35C17.85 42.35 17.95 42.3501 17.95 42.4501C18.25 42.55 18.55 42.55 18.85 42.65C18.65 42.15 19.05 42.25 19.35 42.15C19.25 41.75 18.95 41.4501 18.55 41.4501C18.15 41.3501 17.75 41.1501 17.25 41.25C17.15 41.25 17.05 41.15 16.95 41.05C17.05 40.9501 17.05 40.85 17.15 40.85C17.25 40.85 17.35 40.85 17.45 40.85C18.05 40.95 18.55 40.9501 19.15 41.05C19.05 40.25 19.05 40.1501 18.35 39.9501C17.85 39.8501 17.25 39.75 16.75 39.65C16.75 39.55 16.85 39.4501 16.95 39.25C17.65 39.35 18.35 39.55 19.05 39.65C19.05 39.55 19.05 39.4501 19.05 39.4501C19.05 39.3501 19.05 39.25 19.05 39.15C19.05 38.75 18.95 38.65 18.65 38.65C18.05 38.65 17.55 38.4501 16.95 38.25C16.95 37.85 17.15 37.9501 17.35 37.9501C17.85 38.1501 18.45 38.35 18.95 38.25C18.95 37.9501 19.05 37.75 19.05 37.55C18.35 37.35 17.65 37.15 16.95 37.05C16.75 36.9501 16.65 36.95 16.75 36.65C17.55 36.55 18.25 37.05 18.95 37.05C18.95 36.75 18.95 36.4501 18.95 36.25C18.95 36.1501 18.85 35.9501 18.75 35.9501C18.45 35.8501 18.05 35.85 17.75 35.75C17.55 35.75 17.35 35.75 17.05 35.75C16.95 35.75 16.85 35.65 16.85 35.55C16.85 35.4501 16.95 35.35 17.05 35.35C17.35 35.35 17.65 35.35 17.85 35.35C18.15 35.35 18.55 35.4501 18.95 35.55C18.95 35.35 18.95 35.1501 18.95 34.9501C18.35 34.75 17.75 34.55 17.15 34.35C17.05 34.35 16.85 34.25 16.75 34.25C16.55 34.1501 16.55 33.9501 16.65 33.75C17.25 33.9501 17.75 34.15 18.35 34.35C18.45 34.35 18.65 34.35 18.75 34.35C18.75 34.05 18.75 33.75 18.75 33.55C18.05 33.4501 17.45 33.45 16.85 33.35C16.45 33.35 16.35 33.15 16.55 32.85C16.85 32.85 17.25 32.9501 17.55 32.9501C17.85 32.9501 18.15 33.05 18.45 33.05C18.55 33.05 18.65 32.95 18.65 32.85C18.65 32.75 18.55 32.65 18.55 32.55C18.45 32.45 18.35 32.45 18.25 32.45C17.75 32.35 17.25 32.25 16.65 32.15C16.55 32.15 16.35 32.05 16.15 31.85C16.65 31.55 16.95 31.75 17.35 31.75C17.75 31.85 18.05 31.85 18.45 31.95C18.45 31.85 18.45 31.75 18.45 31.65C18.35 31.65 18.25 31.55 18.15 31.55C17.65 31.45 17.25 31.25 16.75 31.45C16.65 31.45 16.45 31.35 16.45 31.25C16.45 31.15 16.55 30.95 16.65 30.95C17.05 30.95 17.35 30.95 17.75 30.95C17.95 30.95 18.25 31.05 18.55 31.15C18.55 30.35 18.35 30.25 17.75 30.35H17.65C17.25 30.35 16.75 30.25 16.35 30.35C16.05 30.35 15.65 30.45 15.35 30.55C14.95 30.65 14.65 30.95 14.15 30.85C14.05 30.85 13.85 31.15 13.75 31.25C13.65 31.35 13.65 31.45 13.65 31.65C13.55 31.95 13.25 32.25 13.35 32.65C13.35 32.85 13.45 32.9501 13.65 33.05C14.25 33.25 14.45 33.55 14.45 34.15C14.45 34.65 14.15 34.95 13.85 35.15C13.85 35.65 13.95 36.05 13.95 36.4501C13.95 36.75 13.85 37.05 14.15 37.35C14.25 37.45 14.25 37.55 14.25 37.75C14.25 37.9501 14.15 38.15 14.15 38.35C14.15 39.35 14.15 40.4501 14.25 41.4501C14.25 42.1501 14.25 42.8501 14.55 43.4501C14.55 43.55 14.55 43.6501 14.55 43.75C14.35 44.05 14.35 44.45 14.35 44.85C14.35 45.05 14.35 45.35 14.45 45.55C14.55 46.55 14.55 47.55 14.75 48.4501C14.95 49.25 15.05 50.1501 15.25 50.9501C15.25 51.05 15.25 51.15 15.35 51.15C15.75 51.35 15.85 51.75 15.95 52.05C16.35 52.05 16.55 52.25 16.75 52.4501ZM17.95 52.65C18.05 52.55 18.25 52.4501 18.35 52.4501C18.55 52.55 18.65 52.4501 18.85 52.4501C19.25 52.3501 19.45 51.9501 19.75 51.75V51.65C19.65 51.55 19.55 51.55 19.45 51.4501C19.45 51.55 19.35 51.65 19.35 51.85C19.35 51.65 19.35 51.4501 19.25 51.25C18.75 51.9501 18.15 52.15 17.35 52.35C17.55 52.45 17.75 52.55 17.95 52.65ZM18.95 66.15C18.85 66.15 18.65 66.15 18.55 66.15C18.55 66.55 18.45 66.9501 18.85 67.15C18.85 66.85 18.95 66.55 18.95 66.15ZM18.55 64.35C18.55 64.75 18.55 65.15 18.55 65.55C18.95 65.25 18.95 65.25 18.55 64.35ZM18.65 63.05C18.65 63.4501 18.65 63.75 18.65 64.15C18.75 63.85 19.25 63.95 19.15 63.65C19.05 63.45 18.85 63.25 18.65 63.05ZM18.75 61.75C18.75 62.05 18.75 62.35 18.75 62.65C18.85 62.65 19.05 62.6501 19.15 62.75C19.15 62.4501 19.15 62.15 19.15 61.85C19.05 61.85 18.85 61.85 18.75 61.75ZM18.75 60.4501C18.75 60.75 18.75 60.9501 18.75 61.25C18.95 61.25 19.05 61.35 19.15 61.35C19.15 61.05 19.15 60.75 19.15 60.4501C18.95 60.4501 18.85 60.4501 18.75 60.4501ZM18.95 57.4501C18.75 57.9501 18.75 57.95 19.05 58.35C19.15 58.45 19.05 58.6501 19.05 58.75C19.05 58.85 18.85 58.85 18.75 58.85C18.85 59.25 18.75 59.6501 19.25 59.9501C19.25 59.1501 19.35 58.35 19.35 57.65C19.15 57.55 19.05 57.4501 18.95 57.4501ZM18.95 56.4501C18.95 56.6501 18.95 56.85 18.95 57.05C19.15 57.05 19.25 57.05 19.45 56.9501C19.45 56.75 19.55 56.55 19.25 56.4501C19.05 56.4501 18.95 56.4501 18.95 56.4501ZM16.65 61.65C16.75 61.35 16.75 61.05 16.75 60.85C16.75 60.55 16.75 60.35 16.65 60.05H16.55C16.65 60.55 16.65 61.05 16.65 61.65ZM18.15 72.65C17.95 71.85 17.95 71.05 18.15 70.3501C18.15 70.2501 18.25 70.05 18.35 69.9501C18.45 69.8501 18.65 69.9501 18.75 69.9501C18.75 69.55 18.65 69.15 18.25 68.9501C17.85 68.65 17.85 68.75 17.95 68.25C18.05 68.25 18.15 68.25 18.25 68.25C18.25 68.05 18.25 67.75 18.15 67.65C18.05 67.35 18.05 67.1501 18.15 66.8501C18.35 66.3501 18.25 65.9501 18.05 65.55C17.95 65.15 17.85 64.8501 17.95 64.4501C17.95 64.05 18.15 63.55 17.75 63.35C17.85 63.15 17.95 63.05 17.95 62.85C17.95 61.95 17.85 61.05 17.95 60.15C18.05 59.55 17.95 58.85 17.95 58.25C17.95 57.35 17.85 56.55 17.85 55.65C17.85 55.45 17.75 55.35 17.55 55.35C17.45 56.25 17.35 57.05 17.35 57.85C17.25 58.45 17.25 59.05 17.25 59.65C17.25 60.65 17.25 61.65 17.25 62.55C17.25 63.75 17.15 64.9501 17.15 66.05C17.15 66.65 17.15 67.15 16.95 67.65C16.75 68.15 16.65 68.7501 16.65 69.3501C16.65 69.55 16.65 69.6501 16.55 69.8501C16.45 70.2501 16.35 70.65 16.15 71.05C16.05 71.25 15.95 71.55 15.95 71.75C16.35 72.05 15.95 72.25 15.85 72.55C16.55 72.8501 17.35 72.9501 18.15 72.65ZM22.45 118.05C21.95 118.55 21.85 118.65 22.15 118.95C22.55 118.55 22.65 118.25 22.45 118.05ZM21.75 117.55C21.65 117.85 21.35 118.05 21.75 118.35C21.85 118.15 21.95 117.95 22.15 117.75C21.95 117.75 21.85 117.65 21.75 117.55ZM23.35 115.55C23.45 115.45 23.65 115.45 23.65 115.25C23.85 114.65 24.45 114.55 24.85 114.15C24.85 114.15 24.95 114.15 25.05 114.15C25.25 114.05 25.35 114.05 25.55 113.95C25.55 113.95 25.45 113.75 25.45 113.55C25.75 113.15 26.25 112.75 26.25 112.05C26.15 112.05 26.05 112.15 25.95 112.15C26.05 112.05 26.05 111.85 26.15 111.75C26.65 111.35 26.65 111.35 26.65 110.95C26.45 111.15 26.25 111.35 26.05 111.65C25.95 111.85 25.75 112.05 25.95 112.25V112.35C25.55 112.55 25.45 112.95 25.35 113.35C25.35 113.45 25.15 113.55 25.05 113.75C25.05 113.45 25.05 113.35 25.05 113.05C24.85 113.35 24.65 113.55 24.45 113.75C24.35 113.75 24.25 113.75 24.15 113.75C24.05 113.75 23.95 113.75 23.85 113.75C23.95 113.65 24.05 113.45 24.15 113.35C25.25 112.75 25.55 111.75 25.85 110.55C25.25 110.95 24.75 111.25 24.65 111.85C24.65 112.05 24.65 112.35 24.65 112.55C24.65 112.75 24.55 112.95 24.15 112.85C24.15 112.55 24.25 112.15 24.25 111.75C24.05 111.85 23.85 111.95 23.75 112.05C23.35 112.35 22.95 112.75 22.55 113.05C22.35 113.15 22.15 113.25 21.95 113.45C22.15 113.25 22.35 113.05 22.55 112.85C22.95 112.45 23.35 112.15 23.75 111.85C24.45 111.45 24.65 110.65 24.95 110.05C24.95 110.05 24.85 110.05 24.85 109.95C24.45 110.45 24.05 110.95 23.65 111.55C23.55 111.35 23.45 111.25 23.45 111.05C23.45 110.95 23.35 110.85 23.35 110.75C23.45 110.65 23.45 110.55 23.55 110.45C23.95 110.25 24.05 109.85 24.05 109.45C23.85 109.65 23.65 109.75 23.55 109.95C23.45 110.15 23.15 110.35 23.45 110.65C23.45 110.75 23.45 110.85 23.45 110.95C23.45 111.25 23.25 111.35 23.05 111.25C22.65 111.15 22.55 111.45 22.35 111.65C22.65 111.95 22.55 112.25 22.35 112.55C22.15 112.85 21.95 113.15 21.75 113.55C21.95 113.55 21.95 113.55 22.05 113.45C22.05 113.55 21.95 113.65 21.95 113.75C21.55 113.85 21.45 114.15 21.25 114.65C21.45 114.55 21.55 114.55 21.65 114.45C21.85 114.25 21.85 113.95 21.95 113.75C22.05 113.75 22.05 113.75 22.15 113.75C22.55 113.85 22.55 114.05 22.35 114.35C22.15 114.55 21.95 114.75 21.95 115.05C22.05 115.05 22.05 115.05 22.15 114.95C22.55 114.55 23.05 114.15 23.45 113.75C23.55 113.65 23.75 113.65 23.85 113.55C23.75 113.75 23.75 114.05 23.65 114.25C23.75 114.15 23.85 114.05 23.95 113.95C24.05 113.75 24.05 113.75 24.25 113.85C23.85 114.45 23.35 114.85 23.35 115.55ZM22.85 114.65L22.75 114.55C22.55 114.75 22.35 114.95 22.15 115.15C22.25 115.25 22.25 115.35 22.35 115.35C22.55 115.15 22.65 114.95 22.85 114.65ZM20.65 103.35C20.45 103.35 20.35 103.35 20.05 103.25C20.05 103.85 20.05 104.35 19.95 104.85H20.05C20.45 104.25 20.75 103.65 21.15 103.05C21.15 103.05 21.05 103.05 21.05 102.95C20.95 103.05 20.85 103.25 20.65 103.35ZM20.25 91.75C20.35 91.75 20.35 91.85 20.25 91.75C20.65 91.55 21.05 91.3501 21.25 91.05C21.45 90.75 21.55 90.2501 21.75 89.8501H21.65C21.15 90.4501 20.75 91.15 20.25 91.75ZM19.35 89.9501C18.75 90.3501 18.65 90.55 18.85 91.15C19.05 90.75 19.25 90.4501 19.35 89.9501ZM22.45 91.05C22.15 91.55 21.95 91.9501 21.75 92.3501C21.75 92.3501 21.85 92.3501 21.85 92.4501C22.25 92.3501 22.45 91.9501 22.75 91.65C22.65 91.4501 22.55 91.25 22.45 91.05ZM23.35 91.75C23.35 92.05 23.75 91.95 23.65 92.25C23.75 91.85 24.25 91.75 24.25 91.25C23.85 91.45 23.65 91.55 23.35 91.75ZM19.85 91.15C19.45 91.35 19.25 91.75 19.15 92.15C19.05 92.35 19.05 92.55 18.85 92.75C18.75 92.85 18.65 93.15 18.85 93.25C19.35 92.75 19.95 91.55 19.85 91.15ZM18.85 94.8501C18.85 94.6501 18.95 94.45 18.95 94.25C19.05 94.35 19.15 94.4501 19.35 94.55C19.45 94.4501 19.65 94.25 19.75 94.15C19.55 93.85 19.55 93.55 19.75 93.25C19.85 93.15 19.75 92.9501 19.75 92.8501C19.25 93.2501 18.75 94.4501 18.85 94.8501ZM23.85 93.55C23.95 93.75 23.95 93.8501 24.05 93.9501H24.15C24.25 93.65 24.35 93.4501 24.55 93.05C24.25 93.25 24.05 93.4501 23.85 93.55ZM21.75 95.8501C21.75 95.8501 21.85 95.8501 21.85 95.9501C22.15 95.4501 22.45 94.9501 22.75 94.4501C22.75 94.4501 22.65 94.3501 22.55 94.3501C22.35 94.8501 22.05 95.3501 21.75 95.8501ZM21.85 96.8501C22.15 96.7501 22.35 96.55 22.55 96.4501C22.75 96.3501 22.85 96.05 23.05 95.9501C23.45 95.7501 23.35 95.2501 23.15 94.8501C22.65 95.55 22.25 96.1501 21.85 96.8501ZM19.75 95.25C19.35 95.65 19.45 96.05 19.65 96.3501H19.75C19.75 96.05 19.75 95.65 19.75 95.25ZM19.15 96.3501C19.05 96.6501 18.85 97.05 18.75 97.3501H18.85C19.35 96.9501 19.35 96.7501 19.15 96.3501ZM21.65 97.4501C21.05 97.8501 20.65 98.4501 20.45 99.15C20.75 98.75 20.95 98.4501 21.25 97.9501C21.35 98.15 21.45 98.2501 21.45 98.3501C21.85 97.8501 22.35 97.45 22.55 96.75C22.25 97.05 21.95 97.2501 21.65 97.4501ZM19.45 97.8501C19.05 98.3501 19.05 98.55 19.15 99.25C19.65 98.85 19.55 98.3501 19.45 97.8501ZM20.25 101.15C20.15 101.35 20.15 101.55 20.05 101.75H20.15C20.35 101.45 20.55 101.15 20.85 100.95C21.35 100.75 21.55 100.35 21.85 99.9501C22.15 99.4501 22.55 99.05 22.95 98.4501C23.35 97.7501 23.65 97.05 23.55 96.25C23.55 96.25 23.55 96.25 23.45 96.15C23.35 96.25 23.25 96.2501 23.15 96.3501C23.45 96.6501 23.45 96.65 23.25 96.9501C23.15 97.15 22.95 97.2501 22.75 97.4501C21.95 98.7501 21.05 99.9501 20.25 101.15ZM21.05 102.25C21.25 102.15 21.45 102.15 21.55 101.95C21.85 101.55 22.15 101.45 22.55 101.15C22.95 100.85 23.45 100.55 23.55 99.9501C23.65 99.65 23.75 99.3501 23.85 98.9501C23.85 98.9501 23.75 98.9501 23.65 98.9501C23.75 98.65 24.05 98.55 23.85 98.15C22.75 99.4501 21.85 100.75 21.05 102.25ZM26.65 105.75C26.85 105.45 27.05 105.15 27.25 104.85C27.45 104.55 27.65 104.35 27.85 104.05L27.75 103.95C27.25 104.35 26.85 104.65 26.35 105.05C26.05 105.25 25.95 105.45 26.15 105.75C26.25 105.75 26.35 105.75 26.45 105.85C26.35 106.05 26.25 106.15 26.15 106.25C26.35 106.25 26.45 106.35 26.55 106.35C26.75 106.05 26.85 105.65 27.05 105.35C26.95 105.55 26.85 105.65 26.65 105.75ZM28.25 109.65C28.35 109.75 28.45 109.85 28.55 109.95C28.75 109.75 28.95 109.65 29.05 109.35C29.35 108.95 29.55 108.45 29.75 108.05C29.85 107.95 29.85 107.85 29.95 107.65C29.35 107.95 28.85 108.25 28.45 108.55C28.35 108.65 28.25 108.75 28.15 108.85C27.95 109.15 27.75 109.55 27.65 109.85C27.55 110.05 27.45 110.35 27.25 110.55C27.95 110.55 27.95 110.05 28.25 109.65ZM24.15 109.75C25.35 109.25 25.75 108.25 25.85 107.45C24.85 107.95 24.35 108.75 24.15 109.75ZM25.25 105.85C24.25 106.75 23.45 107.75 23.05 109.15C24.45 108.55 25.15 106.85 25.25 105.85ZM24.85 110.65C24.95 110.75 24.95 110.75 24.85 110.65C25.15 110.55 25.35 110.45 25.55 110.25C26.05 109.85 26.25 109.35 26.05 108.65C25.85 108.75 25.65 108.85 25.55 109.05C25.35 109.55 25.15 110.15 24.85 110.65ZM26.05 110.85L26.15 110.95C26.25 110.75 26.45 110.55 26.55 110.35C26.55 110.25 26.75 109.75 26.75 109.55C26.45 110.05 26.25 110.45 26.05 110.85ZM28.15 108.25C28.45 107.75 28.75 107.35 29.05 106.85L28.95 106.75C28.65 106.95 28.25 107.15 27.95 107.35C27.75 107.45 27.65 107.65 27.55 107.75C27.35 107.95 27.25 108.25 27.15 108.55C27.05 108.75 27.05 108.95 27.25 109.05C27.45 108.85 27.55 108.55 27.75 108.55C27.95 108.75 28.05 108.45 28.15 108.25ZM28.45 105.35H28.35C27.95 105.65 27.55 106.05 27.15 106.35C26.75 106.65 26.65 106.95 26.75 107.45C27.35 106.85 28.15 106.25 28.45 105.35ZM25.05 104.25C24.35 104.95 24.35 105.95 23.95 106.75C24.15 106.55 24.45 106.45 24.55 106.25C24.75 105.95 25.15 105.85 25.25 105.55C25.25 105.05 25.15 104.65 25.05 104.25ZM24.05 103.15C23.85 103.55 23.65 103.95 23.55 104.35C23.85 104.05 24.05 103.75 24.35 103.45C24.55 103.25 24.55 103.15 24.55 102.95C24.45 103.05 24.25 103.15 24.05 103.15C24.15 103.15 24.15 103.15 24.05 103.15C24.05 103.05 24.15 103.05 24.15 102.95C24.45 102.65 24.65 102.35 24.55 101.85C24.55 101.85 24.55 101.85 24.45 101.75C24.35 101.85 24.35 101.95 24.35 101.95C24.35 102.45 24.05 102.75 24.05 103.15ZM23.95 104.75C24.25 104.45 24.55 104.25 24.65 103.75C24.25 104.05 24.05 104.35 23.95 104.75ZM25.95 104.65C26.15 104.15 26.35 103.65 26.65 103.15C25.65 103.55 25.65 103.65 25.95 104.65ZM26.85 103.45C27.15 103.05 27.45 102.75 27.75 102.35L27.65 102.25C27.35 102.55 27.05 102.95 26.85 103.45C26.85 103.35 26.85 103.35 26.85 103.45ZM27.15 101.95C27.25 101.55 27.55 101.15 27.65 100.75H27.55C26.95 101.25 26.35 101.65 25.85 102.15C25.45 102.55 25.45 102.75 25.75 103.35C26.35 102.95 26.85 102.55 27.15 101.95ZM25.45 102.05C25.75 101.35 26.15 100.65 26.45 99.9501C26.45 99.9501 26.45 99.9501 26.35 99.9501C26.05 100.25 25.75 100.55 25.45 100.85C25.15 101.25 25.25 101.65 25.25 102.05C25.35 102.05 25.35 102.05 25.45 102.05ZM24.25 100.35C24.25 100.25 24.25 100.25 24.25 100.35C23.75 100.85 23.35 101.45 23.15 102.25C23.25 102.25 23.35 102.25 23.35 102.15C23.45 101.85 23.75 101.75 24.05 101.55C24.45 101.05 24.55 100.95 24.25 100.35ZM21.15 102.45C21.25 102.55 21.35 102.55 21.45 102.65C21.65 102.35 21.85 102.15 22.05 101.85L21.95 101.75C21.75 102.05 21.45 102.25 21.15 102.45ZM21.05 103.95C21.15 103.95 21.15 103.95 21.05 103.95C21.45 103.75 21.85 103.45 22.15 103.15C22.35 102.95 22.55 102.75 22.65 102.45C22.85 101.95 22.95 101.45 23.05 100.95C22.45 101.95 21.75 102.95 21.05 103.95ZM19.75 104.35C19.65 104.85 19.65 105.35 19.55 105.85C19.95 105.35 19.75 104.85 19.85 104.35C19.75 104.35 19.75 104.35 19.75 104.35ZM20.15 106.55C20.25 106.45 20.35 106.25 20.45 106.15C20.55 106.05 20.75 105.85 20.85 105.85C21.15 105.85 21.25 105.75 21.35 105.45C21.35 105.35 21.45 105.25 21.45 105.25C21.85 105.05 21.95 104.65 22.15 104.35C22.35 104.05 22.45 103.65 22.55 103.25C22.25 103.45 21.95 103.75 21.75 104.05C21.55 104.25 21.45 104.55 21.25 104.75C21.15 104.85 20.95 105.05 20.85 105.05C20.65 105.05 20.55 105.15 20.45 105.35C20.05 105.65 20.05 106.05 20.15 106.55ZM21.35 106.75C21.65 106.55 21.95 106.25 22.35 106.05C22.55 105.85 22.75 105.75 22.85 105.55C23.05 105.05 23.25 104.55 23.35 104.05C23.35 104.05 23.25 103.95 23.15 103.95C23.35 103.75 23.45 103.55 23.65 103.25C23.45 103.25 23.25 103.25 23.05 103.35C23.25 103.05 23.35 102.75 23.55 102.55C23.75 102.35 23.95 102.05 24.15 101.75C23.95 101.85 23.75 101.95 23.55 102.05C23.35 102.15 23.25 102.35 23.05 102.45C22.85 102.75 22.55 103.15 22.75 103.55C22.85 103.75 22.75 103.95 22.65 104.15C22.85 104.05 22.95 103.95 23.05 103.95C22.95 104.25 22.85 104.45 22.75 104.75L22.65 104.85C22.15 104.95 21.85 105.35 21.55 105.75C21.45 105.85 21.35 106.05 21.35 106.05C21.65 106.35 21.45 106.55 21.35 106.75ZM20.55 108.85C21.05 108.05 21.55 107.25 22.15 106.45C21.25 107.05 20.75 107.85 20.55 108.85ZM20.75 109.25C21.05 108.95 21.45 108.75 21.55 108.35C21.55 108.25 21.75 108.25 21.85 108.15C22.45 107.85 23.05 107.35 23.45 106.85C23.75 106.35 23.95 105.65 24.15 105.15C24.15 105.05 24.15 104.95 24.15 104.85C23.75 105.05 23.35 105.25 23.15 105.65C22.95 106.15 22.85 106.75 22.65 107.25C22.55 107.45 22.55 107.65 22.25 107.65C22.25 107.45 22.25 107.25 22.15 106.95C21.75 107.85 21.25 108.55 20.75 109.25ZM20.65 111.25C20.65 111.25 20.75 111.25 20.75 111.35C20.95 111.15 21.25 110.95 21.35 110.65C21.45 110.45 21.55 110.35 21.75 110.25C22.05 110.15 22.25 109.95 22.45 109.75C22.65 109.65 22.45 109.45 22.45 109.35C22.45 109.25 22.45 109.15 22.55 109.15C22.65 108.95 22.75 108.65 22.85 108.45C22.95 108.35 22.95 108.15 22.95 107.95C22.95 107.95 22.85 107.95 22.85 107.85C22.65 108.05 22.35 108.25 22.15 108.45C21.45 109.25 21.05 110.25 20.65 111.25ZM19.95 110.95C19.65 111.75 19.65 111.75 19.85 112.05C20.05 111.65 20.25 111.35 19.95 110.95ZM21.05 112.35C21.15 112.25 21.25 112.25 21.35 112.15C21.55 111.75 21.85 111.55 22.15 111.35C22.35 111.15 22.55 111.05 22.75 110.75C22.95 110.35 23.15 109.85 23.35 109.45C23.35 109.45 23.35 109.45 23.25 109.35C22.35 109.95 21.35 111.15 21.05 112.35ZM20.95 112.75L21.05 112.85C21.45 112.55 22.05 112.35 22.15 111.75C21.75 112.05 21.35 112.45 20.95 112.75ZM21.55 115.55C21.35 115.75 21.25 115.85 21.05 116.05C21.25 116.15 21.55 116.35 21.75 116.45C21.85 116.15 21.85 115.95 21.95 115.75C21.95 115.65 21.75 115.55 21.55 115.55ZM25.05 114.95C24.75 115.35 24.55 115.85 24.25 116.25C25.05 115.95 25.35 115.55 25.05 114.95ZM26.45 113.65C25.75 113.95 25.85 114.55 25.65 114.95C26.15 114.75 26.25 114.15 26.45 113.65ZM26.95 112.05C26.45 112.35 26.35 112.95 26.15 113.55C26.75 113.05 27.05 112.55 26.95 112.05ZM27.75 112.25C27.95 111.85 28.25 111.45 28.05 110.95C27.65 111.55 27.65 111.65 27.75 112.25ZM30.85 108.95C30.75 109.05 30.65 109.15 30.55 109.15C30.25 108.95 30.25 109.25 30.05 109.35C29.85 109.45 29.75 109.55 29.55 109.65C29.35 109.85 29.25 110.05 29.15 110.25C29.05 110.45 29.15 110.55 29.25 110.65C29.25 110.75 29.25 110.95 29.15 111.05C29.05 111.25 28.95 111.45 28.85 111.65C29.65 110.75 30.65 110.15 30.85 108.95ZM31.35 106.85C30.65 107.05 30.15 107.45 30.05 108.15C30.05 108.35 29.95 108.55 30.25 108.65C30.05 108.25 30.35 107.95 30.65 107.85C31.05 107.65 31.25 107.25 31.35 106.85ZM32.25 102.85C31.75 103.05 31.25 103.35 30.85 103.65C30.05 104.25 29.55 105.05 28.75 105.65C28.35 105.95 28.15 106.55 27.95 106.95C27.95 106.95 28.05 106.95 28.05 107.05C29.05 106.15 30.25 105.55 31.15 104.55C31.35 104.55 31.55 104.55 31.75 104.65C31.45 105.05 30.95 105.25 30.75 105.65C30.45 106.05 30.05 106.35 29.75 106.75C29.55 107.15 29.15 107.45 28.85 107.85L28.95 107.95C29.25 107.75 29.55 107.55 29.85 107.35C30.15 107.15 30.45 106.85 30.75 106.65C30.75 106.65 30.85 106.75 30.95 106.75C31.05 106.65 31.15 106.55 31.25 106.55C31.65 106.45 31.75 106.25 31.75 105.95C31.85 105.45 31.95 104.95 32.05 104.55C32.05 103.95 32.15 103.35 32.25 102.85ZM32.45 99.9501C32.15 100.25 31.85 100.55 31.55 100.85C31.65 100.95 31.65 101.05 31.75 101.15C31.45 101.25 31.75 101.35 31.75 101.55C31.65 101.55 31.55 101.65 31.55 101.65C30.95 102.25 30.45 102.85 29.85 103.45C29.75 103.55 29.65 103.65 29.45 103.45C29.95 102.85 30.55 102.25 31.05 101.65C29.35 102.65 28.15 103.95 27.35 105.65C27.45 105.65 27.55 105.65 27.55 105.65C27.95 105.05 28.85 104.85 29.25 104.15H29.35C29.85 103.85 30.35 103.55 30.85 103.25C31.25 102.95 31.75 102.65 32.15 102.25C32.25 102.25 32.25 102.15 32.35 102.05C32.45 101.45 32.55 100.75 32.45 99.9501ZM32.75 97.9501C32.55 98.15 32.35 98.3501 32.25 98.4501C32.15 98.65 31.85 98.55 31.75 98.8501C31.75 98.8501 31.55 98.9501 31.45 98.9501C31.45 99.15 31.35 99.2501 31.15 99.3501C30.95 99.4501 30.75 99.65 30.55 99.75C30.55 99.85 30.45 99.9501 30.45 100.15C30.85 100.25 30.85 99.55 31.35 99.75C31.25 99.85 31.25 100.05 31.15 100.05C30.85 100.25 30.55 100.45 30.25 100.55C29.65 100.85 29.15 101.25 28.65 101.75C28.05 102.35 27.55 102.85 27.05 103.45C26.75 103.75 26.45 104.15 26.25 104.75C27.55 103.75 28.75 102.95 29.15 101.35C29.55 101.75 29.05 102.05 29.05 102.55C29.45 102.25 29.75 102.15 30.05 101.85C30.65 101.15 31.45 100.65 32.15 99.8501C32.45 99.4501 32.85 99.15 32.85 98.55C32.85 98.4501 32.95 98.35 32.95 98.25C32.85 98.15 32.75 98.15 32.75 97.9501ZM33.15 94.15C32.55 94.75 31.85 95.05 31.25 95.75C31.45 95.65 31.65 95.65 31.85 95.55C31.75 95.65 31.75 95.7501 31.75 95.8501C31.35 96.1501 30.95 96.45 30.65 96.75C30.35 96.95 29.95 97.15 29.65 97.4501C28.95 98.05 28.15 98.65 27.35 99.25C27.25 99.35 27.15 99.55 27.05 99.75C26.95 99.85 26.95 99.9501 26.85 100.15C26.55 100.75 26.25 101.25 26.05 101.85C26.45 101.55 26.75 101.25 27.05 100.95C27.25 100.75 27.55 100.65 27.75 100.45C27.85 100.35 27.95 100.35 28.05 100.25C28.25 99.75 28.65 99.55 29.05 99.25H29.15C29.15 99.35 29.15 99.4501 29.15 99.55C29.35 99.4501 29.45 99.35 29.55 99.25H29.45C29.45 99.15 29.45 98.9501 29.55 98.9501C29.85 98.65 30.25 98.3501 30.55 98.05C31.25 97.4501 31.95 96.85 32.65 96.25C32.85 96.05 32.95 95.8501 33.35 95.8501C33.35 95.9501 33.35 96.05 33.35 96.15C32.95 96.55 32.55 96.85 32.15 97.15C31.85 97.35 31.65 97.7501 31.35 97.9501C31.35 97.9501 31.35 98.05 31.45 98.05C31.65 97.9501 31.75 97.85 31.95 97.75C32.05 98.05 31.85 98.1501 31.65 98.3501C31.25 98.7501 30.75 98.9501 30.35 99.3501C29.75 99.8501 29.05 100.25 28.35 100.75C28.55 100.95 28.55 101.05 28.45 101.25C28.25 101.55 28.25 101.85 28.05 102.05C28.05 102.05 28.15 102.05 28.15 102.15C28.75 101.65 29.35 101.25 29.85 100.75C30.15 100.45 30.55 100.15 30.85 99.8501C31.15 99.55 31.45 99.3501 31.65 99.05C31.75 98.8501 32.05 98.8501 32.05 98.8501C32.15 98.3501 32.65 98.2501 32.95 97.9501C33.05 97.8501 33.25 97.65 33.35 97.4501C33.45 97.05 33.55 96.65 33.55 96.25C33.65 95.75 33.65 95.3501 33.65 94.8501C33.25 94.55 33.25 94.35 33.15 94.15ZM33.35 92.15C33.25 92.15 33.15 92.15 33.05 92.25C32.75 92.75 32.25 92.95 31.85 93.25C31.35 93.65 30.85 93.9501 30.35 94.3501C29.85 94.7501 29.45 95.15 28.95 95.55C28.65 95.8501 28.15 95.9501 27.95 96.3501L27.85 96.4501C27.25 96.9501 26.75 97.4501 26.15 98.05C26.05 98.15 26.05 98.25 25.95 98.25C25.85 98.35 25.85 98.4501 25.75 98.55C25.65 98.65 25.95 98.7501 25.75 98.9501C25.35 99.4501 25.25 100.05 24.95 100.75C25.95 100.25 26.65 99.4501 27.25 98.55C27.35 98.55 27.45 98.55 27.55 98.65C27.65 98.55 27.75 98.35 27.85 98.25C28.25 98.15 28.35 97.9501 28.55 97.65C28.85 97.25 29.25 96.9501 29.55 96.65C29.95 96.25 30.45 95.9501 30.85 95.55C31.55 94.9501 32.15 94.3501 32.85 93.8501C33.25 93.55 33.35 93.2501 33.35 92.8501C33.35 92.6501 33.35 92.4501 33.35 92.15ZM28.35 73.9501C28.35 74.05 28.25 74.05 28.15 74.05C27.25 74.4501 26.45 75.05 25.75 75.65C25.55 75.85 25.35 75.95 25.05 76.25C25.45 76.15 25.55 76.25 25.45 76.55C25.15 76.65 24.85 76.7501 24.55 76.8501C24.25 76.9501 24.05 77.1501 23.85 77.3501C23.65 77.55 23.45 77.7501 23.25 77.9501L23.15 77.8501C23.25 77.7501 23.45 77.55 23.55 77.4501C23.55 77.4501 23.55 77.3501 23.45 77.3501C23.15 77.55 22.85 77.7501 22.55 77.9501C22.15 78.2501 21.95 78.15 22.35 78.9501C22.65 78.7501 22.85 78.45 23.15 78.25C23.25 78.15 23.35 78.15 23.35 78.15C23.35 78.15 23.35 78.2501 23.45 78.3501C23.45 78.4501 23.45 78.4501 23.45 78.55C24.05 78.3501 24.65 77.8501 25.35 77.8501C25.15 78.3501 24.45 78.25 24.45 78.75C24.25 78.75 24.05 78.65 23.95 78.65C23.55 78.85 23.25 79.05 22.85 79.25C22.25 79.55 22.25 79.8501 22.45 80.4501C22.85 80.15 23.15 79.65 23.65 79.4501C23.95 79.9501 23.35 79.95 23.25 80.25C24.15 79.75 24.95 79.3501 25.85 78.8501C25.85 78.8501 25.95 78.8501 26.05 78.8501C26.15 78.8501 26.35 78.8501 26.45 78.8501C26.35 79.05 26.35 79.05 26.25 79.15C25.75 79.35 25.15 79.55 24.65 79.8501C24.25 80.05 23.85 80.3501 23.45 80.55C23.15 80.65 22.85 80.8501 22.55 80.9501C22.55 81.2501 22.55 81.45 22.55 81.75C22.95 81.35 23.25 81.05 23.45 80.55C23.55 80.55 23.75 80.55 23.65 80.75C23.45 81.05 23.75 81.35 23.45 81.65C23.85 81.55 24.15 81.35 24.45 81.15C24.75 80.9501 25.15 80.85 25.45 80.75C25.45 80.75 25.45 80.8501 25.55 80.8501C25.45 80.9501 25.35 81.05 25.25 81.15C24.85 81.35 24.45 81.55 24.05 81.75C23.95 81.85 23.75 81.9501 23.65 82.05C23.35 82.25 23.05 82.3501 22.85 82.55C22.75 82.65 22.65 82.7501 22.65 82.8501C22.65 83.05 22.75 83.25 22.75 83.55C22.95 83.4501 23.05 83.25 23.15 83.15C23.45 82.9501 23.65 82.55 24.05 82.55C24.15 82.55 24.45 82.45 24.35 82.25C24.35 82.25 24.55 82.15 24.65 82.15C24.75 82.15 24.85 82.15 24.95 82.15C25.45 81.9501 25.95 81.65 26.45 81.4501C26.65 81.7501 26.45 81.8501 26.25 81.9501C25.15 82.4501 24.15 83.05 23.15 83.8501C22.95 84.05 22.65 84.25 22.85 84.65C23.15 84.4501 23.55 84.15 23.85 83.9501C24.45 83.55 25.05 83.15 25.65 82.75C25.85 82.65 26.05 82.55 26.25 82.65C26.25 82.85 26.25 82.9501 26.05 83.05C25.65 83.25 25.15 83.4501 25.05 83.8501C24.15 84.05 23.55 84.75 22.75 85.15C23.05 85.55 23.25 85.85 22.95 86.25C23.95 85.55 24.85 84.75 26.25 84.65C25.95 84.9501 25.75 85.1501 25.55 85.3501C25.45 85.2501 25.45 85.25 25.45 85.15C24.75 85.65 23.95 86.15 23.25 86.55C23.05 86.65 22.95 86.8501 23.05 87.05C23.15 87.3501 23.15 87.55 23.25 87.8501C23.45 87.7501 23.65 87.55 23.85 87.4501C24.05 87.3501 24.25 87.25 24.45 87.15C24.65 87.05 24.75 86.85 24.95 86.75C25.15 86.65 25.35 86.65 25.55 86.55C25.55 86.55 25.55 86.65 25.65 86.65C25.45 86.75 25.35 86.8501 25.15 86.9501C24.75 87.2501 24.25 87.55 23.85 87.75C23.55 87.95 23.35 88.25 23.15 88.55C22.85 88.8501 22.85 88.95 23.15 89.25C23.75 88.95 24.35 88.65 24.95 88.25C25.05 88.35 25.15 88.4501 25.15 88.55C24.55 88.8501 24.05 89.15 23.55 89.4501C23.15 89.65 23.15 89.75 23.45 90.15C23.65 89.9501 23.85 89.75 24.05 89.55C24.15 90.15 23.45 90.25 23.55 90.75C23.95 90.65 24.25 90.2501 24.85 90.3501C24.75 91.05 24.15 91.3501 23.95 91.8501C23.95 92.05 23.95 92.3501 23.95 92.55C24.15 92.4501 24.35 92.3501 24.55 92.3501C24.95 92.2501 25.05 92.05 25.15 91.65C25.25 91.4501 25.25 91.15 25.35 90.9501C25.45 90.7501 25.55 90.6501 25.85 90.8501C25.45 92.1501 25.05 93.55 24.55 94.8501C24.95 95.05 24.95 94.4501 25.35 94.4501C25.25 94.55 25.25 94.65 25.15 94.75C24.95 94.95 24.75 95.15 24.85 95.55C24.85 95.65 24.75 95.9501 24.45 95.9501C24.45 96.2501 24.55 96.4501 24.55 96.8501C24.65 96.55 24.75 96.25 24.85 96.05C25.05 95.55 25.45 95.05 25.55 94.55C25.65 93.9501 26.05 93.7501 26.25 93.3501C26.35 93.1501 26.45 93.2501 26.55 93.3501C26.05 94.4501 25.55 95.4501 25.05 96.55C25.05 96.65 25.05 96.75 25.05 96.75C25.25 96.95 25.05 97.15 24.95 97.25C24.55 97.75 24.75 98.25 24.85 98.75C24.95 98.65 25.05 98.4501 25.05 98.3501C25.15 98.2501 25.25 98.05 25.25 98.05C25.55 98.05 25.65 97.75 25.75 97.55C25.95 97.15 26.05 96.8501 26.15 96.4501C26.05 96.4501 25.95 96.55 25.75 96.55C26.05 96.15 26.55 95.9501 26.55 95.4501C26.85 95.55 27.05 95.35 27.15 95.15C27.25 95.05 27.45 94.9501 27.65 94.8501L27.75 94.9501C27.05 95.4501 26.55 96.05 26.45 96.8501C26.65 96.6501 26.75 96.4501 26.95 96.3501C27.25 96.05 27.55 95.85 27.85 95.65C29.25 94.4501 30.65 93.25 32.25 92.15C32.55 91.9501 32.85 91.85 33.15 91.65C33.25 91.55 33.35 91.4501 33.35 91.3501C33.45 90.8501 33.55 90.3501 33.45 89.8501C33.35 89.1501 33.45 88.4501 33.45 87.65C33.45 87.35 33.45 86.9501 33.45 86.65C33.45 86.15 33.55 85.75 33.55 85.25C31.55 86.45 29.85 87.9501 28.15 89.55C28.15 89.15 28.35 88.9501 28.55 88.8501C29.25 88.1501 29.95 87.55 30.75 86.9501C31.45 86.3501 32.15 85.8501 32.85 85.3501C33.15 85.1501 33.45 85.05 33.55 84.75C33.65 84.45 33.65 84.15 33.65 83.75C33.25 84.05 32.95 84.3501 32.65 84.55C32.55 84.65 32.35 84.85 32.15 84.65C32.15 84.55 32.15 84.4501 32.25 84.4501C32.55 84.15 32.95 83.85 33.35 83.65C33.75 83.4501 33.75 83.1501 33.75 82.8501C33.75 82.1501 33.75 81.55 33.75 80.8501C33.75 80.2501 33.85 79.65 33.85 79.05L33.75 78.9501C33.65 79.2501 33.65 79.45 33.55 79.75C33.35 79.85 33.35 79.85 33.35 79.65C33.35 79.35 33.45 79.05 33.45 78.75C33.15 78.95 32.85 79.1501 32.55 79.3501C30.95 80.6501 29.45 82.05 27.95 83.55C27.95 83.55 27.85 83.55 27.85 83.4501C27.85 83.3501 27.95 83.25 27.95 83.25C28.45 82.65 28.95 82.05 29.45 81.4501C30.05 80.8501 30.65 80.3501 31.25 79.8501C31.45 79.6501 31.75 79.45 31.95 79.25C32.05 79.15 32.15 79.25 32.25 79.15C32.25 79.05 32.35 78.9501 32.45 78.8501C32.75 78.6501 33.05 78.45 33.45 78.25C33.45 77.95 33.55 77.55 33.65 77.15C32.15 77.9501 31.05 79.15 29.75 79.9501C29.95 79.65 30.05 79.4501 30.25 79.15C30.25 79.15 30.35 79.15 30.35 79.05C30.85 78.75 31.45 78.65 31.65 78.05H31.75C32.35 77.65 32.85 77.2501 33.45 76.8501C33.75 76.55 33.85 76.4501 33.75 76.05C33.75 75.9501 33.65 75.85 33.65 75.75C33.55 75.35 33.55 75.3501 33.15 75.55C32.85 75.75 32.65 75.9501 32.35 76.15C32.05 76.35 31.65 76.55 31.45 76.8501C31.15 77.1501 30.65 77.15 30.55 77.55H30.45C30.25 77.65 30.15 77.8501 29.95 77.9501C29.65 78.2501 29.45 78.45 29.15 78.75L29.05 78.65C30.25 77.15 31.95 76.15 33.45 74.9501C33.35 74.7501 33.15 74.55 33.05 74.3501C32.85 74.1501 32.55 73.9501 32.35 73.9501C31.85 73.9501 31.35 73.9501 30.75 74.05C30.55 74.05 30.35 74.15 30.15 74.25C29.75 74.65 29.15 74.85 28.75 75.25C28.55 75.45 28.35 75.55 27.95 75.8501C28.35 74.9501 29.15 74.65 29.65 74.05C29.35 73.9501 29.15 73.8501 28.95 73.8501C28.75 73.7501 28.45 73.65 28.35 73.9501ZM19.95 88.25C19.75 88.75 19.25 88.9501 19.35 89.65C19.85 89.25 20.05 88.75 19.95 88.25ZM20.75 81.9501C21.25 81.7501 21.25 81.75 21.15 81.05C20.95 81.25 20.65 81.4501 20.75 81.9501ZM19.25 80.05C18.85 80.25 18.95 80.85 18.35 80.75C18.35 81.05 18.45 81.35 18.45 81.65C18.85 81.15 19.25 80.75 19.25 80.05ZM19.15 81.75C18.75 82.25 18.35 82.6501 18.65 83.3501C19.15 82.9501 19.35 82.45 19.15 81.75ZM19.65 84.15C19.75 83.9501 19.95 83.75 19.95 83.65C19.95 83.4501 19.85 83.25 19.85 83.05C19.65 83.25 19.45 83.75 19.65 84.15ZM20.65 83.8501C21.15 83.55 21.25 83.05 21.35 82.65C21.15 82.9501 20.65 83.2501 20.65 83.8501ZM19.25 83.55C19.05 84.05 18.65 84.6501 18.85 85.3501C19.55 84.8501 19.15 84.15 19.25 83.55ZM19.55 86.15C19.95 85.75 20.15 85.25 20.05 84.65C19.45 85.05 19.55 85.55 19.55 86.15ZM20.75 86.65C21.15 86.15 21.45 85.7501 21.75 85.3501L21.65 85.25C21.45 85.45 21.15 85.6501 20.95 85.8501C20.55 86.05 20.65 86.25 20.75 86.65ZM19.15 86.15C19.05 86.4501 18.65 86.75 18.95 87.15C19.15 86.75 19.25 86.65 19.15 86.15ZM20.95 88.15C21.55 87.65 21.75 87.2501 21.75 86.8501C21.55 87.2501 21.05 87.55 20.95 88.15ZM19.15 78.25C18.95 78.15 18.75 78.05 18.65 78.25C18.55 78.35 18.35 78.55 18.65 78.75C18.85 78.65 18.95 78.45 19.15 78.25ZM22.45 77.55C22.85 77.25 23.25 76.9501 23.75 76.8501C24.05 76.7501 24.35 76.55 24.65 76.25C25.05 75.75 25.55 75.3501 25.95 74.9501C25.55 74.9501 25.25 75.1501 24.85 75.3501C24.45 75.55 23.85 75.75 23.55 76.05C23.15 76.3501 22.75 76.55 22.35 76.8501C22.25 76.9501 22.15 77.05 22.05 77.15C21.95 77.25 21.95 77.4501 22.05 77.55C22.15 77.65 22.35 77.65 22.45 77.55ZM26.75 73.4501C26.45 73.4501 26.25 73.55 25.95 73.55C25.75 73.65 25.55 73.8501 25.35 73.9501C24.95 74.15 24.45 74.3501 24.05 74.55C23.55 74.8501 23.05 75.15 22.55 75.4501C22.15 75.65 22.15 76.05 21.85 76.3501C21.85 76.3501 21.85 76.4501 21.85 76.55C21.95 76.55 21.95 76.55 22.05 76.4501C22.95 75.9501 23.85 75.4501 24.75 74.9501C25.25 74.7501 25.65 74.4501 26.25 74.65H26.35C26.65 74.4501 26.95 74.25 27.25 74.05C27.05 73.9501 26.85 73.9501 26.65 73.8501C26.75 73.7501 26.75 73.65 26.75 73.4501ZM22.05 74.75C21.85 74.85 21.65 75.05 21.85 75.25C22.95 74.65 24.15 74.05 25.25 73.4501C24.85 73.4501 24.45 73.4501 24.05 73.4501C23.95 73.7501 23.85 73.8501 23.65 73.9501C23.05 74.15 22.55 74.45 22.05 74.75ZM23.15 73.65C22.55 73.4501 22.25 73.8501 21.85 74.05C21.75 74.05 21.75 74.25 21.75 74.55C22.25 74.15 22.65 73.9501 23.15 73.65ZM14.45 75.75C14.55 76.25 14.85 76.6501 15.45 76.8501C16.15 77.05 16.85 77.2501 17.45 77.3501C17.65 77.3501 17.85 77.35 18.05 77.25C18.55 77.05 19.05 76.75 19.35 76.25C19.45 76.05 19.65 75.85 19.75 75.65C19.95 75.05 20.05 74.35 20.45 73.75C20.55 73.65 20.55 73.55 20.55 73.3501C20.55 73.2501 20.55 73.05 20.45 72.9501C20.25 73.05 20.15 73.15 20.05 73.15C19.65 73.25 19.25 73.4501 18.85 73.55C18.55 73.65 18.55 73.7501 18.75 73.9501C18.95 74.15 18.95 74.3501 18.75 74.55C18.45 74.8501 18.15 75.15 17.85 75.4501C17.65 75.65 17.45 75.55 17.15 75.65C16.75 75.75 16.75 75.4501 16.65 75.15C16.65 75.15 16.65 75.05 16.55 75.05C16.25 74.75 15.95 74.4501 15.65 74.15C15.55 74.05 15.45 73.9501 15.35 73.8501C15.35 73.7501 15.35 73.75 15.35 73.75C15.65 73.45 15.65 73.4501 15.25 73.15C15.35 73.25 15.35 73.15 15.35 73.05C14.85 73.05 14.75 73.65 14.25 73.55C14.25 74.3501 14.25 75.05 14.45 75.75ZM1.84998 76.9501C2.14998 76.4501 2.44998 76.05 2.64998 75.65C2.54998 75.55 2.44998 75.45 2.34998 75.25C2.14998 75.55 2.04998 75.75 1.84998 76.05C1.84998 76.25 1.64998 76.55 1.84998 76.9501ZM1.34998 80.3501C1.34998 80.2501 1.34998 80.25 1.44998 80.15C1.94998 79.4501 2.44998 78.75 2.94998 78.05C3.84998 76.8501 4.54998 75.65 5.64998 74.65C5.24998 74.65 4.84998 74.65 4.54998 74.65C4.14998 74.75 3.74998 74.75 3.44998 75.05C2.94998 75.65 2.44998 76.25 2.14998 77.05C2.04998 77.05 1.84998 77.05 1.74998 76.9501C1.64998 77.2501 1.64998 77.55 1.54998 77.75C1.44998 78.05 1.24998 78.25 1.14998 78.55C1.04998 79.05 1.04998 79.65 0.949976 80.15C1.24998 80.35 1.34998 80.3501 1.34998 80.3501ZM18.15 122.05C18.25 121.95 18.35 121.85 18.45 121.65C18.55 121.35 18.55 121.05 18.55 120.75C18.55 119.85 18.55 118.85 18.45 117.95C18.35 116.85 18.35 112.05 18.35 111.35C18.25 110.25 18.25 109.05 18.15 107.95C18.15 106.95 18.15 105.95 18.05 104.95C18.05 104.35 17.65 96.85 17.65 96.15C17.55 95.05 17.65 93.9501 17.55 92.8501C17.55 92.1501 17.55 91.35 17.45 90.65C17.45 90.15 17.25 89.7501 17.45 89.3501C17.45 89.2501 17.35 86.85 17.25 85.75C17.25 85.05 17.15 84.25 17.15 83.55C17.15 83.05 17.05 82.65 17.05 82.15C17.15 81.75 17.15 81.4501 17.05 81.05C16.95 79.75 16.45 78.75 15.25 78.05C15.15 77.9501 14.95 77.85 14.95 77.75C14.85 77.45 14.65 77.15 14.35 77.05C14.15 76.9501 14.15 76.8501 14.15 76.55C14.15 76.4501 13.95 76.35 13.85 76.25V76.15C13.85 75.75 13.85 75.2501 13.75 74.8501C13.75 74.4501 13.35 74.2501 12.95 74.4501C12.75 74.55 12.45 74.65 12.35 74.55C11.75 74.25 9.04998 74.4501 8.64998 74.4501C8.14998 74.4501 7.64998 74.4501 7.24998 74.55C6.54998 74.75 6.04998 75.05 5.64998 75.4501C4.94998 76.05 4.34998 76.85 3.74998 77.65C3.04998 78.4501 2.54998 79.35 1.84998 80.25C1.34998 80.95 0.949976 81.75 1.04998 82.65C1.04998 83.15 1.04998 83.65 1.04998 84.25C1.04998 84.55 1.04998 84.8501 1.04998 85.05C1.04998 85.75 0.949976 86.3501 0.949976 87.05C0.949976 87.75 0.949976 88.45 0.949976 89.25H1.04998C1.34998 88.55 1.54998 88.15 1.84998 87.75C2.44998 86.85 2.94998 85.9501 3.54998 85.15C4.14998 84.35 4.84998 83.55 5.44998 82.8501C5.74998 82.4501 6.14998 82.05 6.64998 81.9501C6.64998 82.05 6.64998 82.2501 6.54998 82.3501C6.24998 82.6501 5.94998 82.9501 5.64998 83.3501C4.94998 84.1501 4.24998 85.05 3.64998 85.8501C3.24998 86.3501 2.84998 86.8501 2.54998 87.3501C2.24998 87.7501 2.14998 88.15 1.84998 88.55C1.34998 88.9501 1.14998 89.55 0.949976 90.25C0.949976 90.35 0.949976 90.55 0.949976 90.65C0.949976 90.9501 0.949976 91.2501 1.04998 91.4501C1.14998 92.4501 1.14998 93.3501 1.24998 94.4501C1.64998 93.8501 1.94998 93.4501 2.24998 92.9501C2.84998 92.05 3.44998 91.2501 4.04998 90.3501C4.44998 89.7501 4.84998 89.25 5.34998 88.75C5.84998 88.15 6.24998 87.65 6.74998 87.15C6.94998 86.9501 7.14998 86.85 7.44998 86.65L7.54998 86.75C7.44998 86.85 7.44998 87.05 7.34998 87.15C5.94998 88.4501 4.84998 89.9501 3.74998 91.4501C3.44998 91.9501 3.04998 92.4501 2.74998 92.8501C2.44998 93.2501 2.14998 93.75 1.94998 94.15C1.84998 94.4501 1.74998 94.7501 1.34998 94.8501C1.44998 95.3501 1.54998 95.75 1.64998 96.25C3.54998 93.55 5.44998 90.9501 7.94998 88.8501C7.84998 89.05 7.84998 89.2501 7.64998 89.4501C7.14998 89.8501 6.74998 90.15 6.34998 90.55C5.24998 91.8501 4.04998 93.05 3.14998 94.4501C2.74998 95.05 2.34998 95.55 2.04998 96.15C1.94998 96.4501 1.74998 96.65 1.64998 96.9501C1.64998 97.05 1.54998 97.15 1.54998 97.25C1.64998 97.65 1.64998 98.05 1.74998 98.4501C1.74998 98.7501 1.84998 99.05 1.84998 99.3501C1.84998 99.6501 1.94998 99.9501 2.04998 100.35C2.54998 99.6501 2.94998 99.05 3.34998 98.4501C3.84998 97.7501 4.34998 97.15 4.84998 96.4501C5.24998 95.8501 5.74998 95.35 6.24998 94.75C6.64998 94.25 7.14998 93.8501 7.54998 93.3501C7.64998 93.2501 7.84998 93.25 7.94998 93.15C7.94998 93.35 7.84998 93.4501 7.74998 93.55C7.24998 94.15 6.64998 94.7501 6.14998 95.3501C6.04998 95.4501 5.94998 95.65 5.84998 95.75C5.54998 96.05 5.34998 96.45 4.94998 96.75C4.64998 97.05 4.44998 97.45 4.24998 97.75C3.64998 98.45 3.24998 99.2501 2.64998 99.9501C2.44998 100.25 2.14998 100.45 2.14998 100.75C2.14998 101.25 2.34998 101.75 2.44998 102.35C2.54998 102.25 2.54998 102.15 2.64998 102.15C3.24998 101.25 3.84998 100.35 4.54998 99.55C5.24998 98.65 6.04998 97.8501 6.74998 96.9501C7.24998 96.4501 7.74998 95.8501 8.34998 95.55C8.24998 95.75 8.14998 95.9501 7.94998 96.05C7.14998 96.9501 6.24998 97.75 5.44998 98.75C4.64998 99.65 3.94998 100.75 3.24998 101.75C2.54998 102.65 2.54998 102.75 2.94998 103.75C3.04998 104.05 3.14998 104.35 3.34998 104.65C3.44998 104.45 3.54998 104.35 3.64998 104.25C4.54998 102.95 5.44998 101.65 6.34998 100.25C6.54998 99.95 6.64998 99.6501 6.84998 99.3501C7.24998 98.7501 7.64998 98.25 8.04998 97.75C8.14998 97.55 8.34998 97.45 8.54998 97.75C8.14998 98.25 7.84998 98.65 7.44998 99.15C6.84998 100.05 6.14998 100.95 5.54998 101.85C4.94998 102.75 4.34998 103.65 3.74998 104.55C3.54998 104.75 3.44998 105.05 3.54998 105.35C3.74998 105.75 3.84998 106.25 4.04998 106.65C4.34998 106.15 4.64998 105.55 4.94998 105.05C5.34998 104.35 5.74998 103.75 6.24998 103.05C6.54998 102.65 6.84998 102.25 7.14998 101.85C7.54998 101.35 7.94998 100.95 8.44998 100.55C8.54998 100.45 8.64997 100.45 8.74998 100.45C8.74998 100.45 8.74998 100.55 8.84998 100.55C8.74998 100.65 8.74998 100.75 8.64998 100.85C8.24998 101.35 7.74998 101.85 7.34998 102.35C6.94998 102.85 6.44998 103.35 6.04998 103.95C5.54998 104.85 4.84998 105.75 4.44998 106.75C4.44998 106.85 4.34998 106.85 4.34998 106.95C4.04998 107.15 4.14998 107.35 4.14998 107.55C4.44998 108.55 5.04998 109.35 5.44998 110.25C5.44998 110.35 5.54998 110.35 5.64998 110.35C5.64998 110.15 5.74998 110.05 5.74998 109.85C6.04998 109.35 6.34998 108.95 6.74998 108.45C7.34998 107.55 7.94998 106.75 8.54998 105.85C8.84998 105.35 9.24998 104.95 9.54998 104.45C9.64998 104.35 9.84998 104.35 10.05 104.25C10.05 104.45 10.05 104.55 10.05 104.55C9.64998 104.95 9.34998 105.35 9.14998 105.75C8.04998 107.25 6.84998 108.75 6.04998 110.45C6.04998 110.55 5.84998 110.55 5.74998 110.65C5.74998 111.25 6.24998 111.65 6.44998 112.15C6.64998 112.65 7.14998 113.05 7.34998 113.55C7.64998 114.05 8.04998 114.45 8.54998 114.85C8.74998 114.35 8.84998 113.95 9.04998 113.55C9.24998 113.15 9.54998 112.85 9.84998 112.45C10.05 111.95 10.15 111.85 10.45 111.85C10.25 112.15 10.35 112.55 9.84998 112.65C9.74998 112.85 9.64998 113.05 9.54998 113.25C9.34998 113.65 9.14998 113.95 9.14998 114.35C9.14998 114.75 8.94998 114.85 8.84998 115.15C8.94998 115.35 9.04998 115.45 9.14998 115.65C8.94998 115.65 8.84998 115.65 8.74998 115.65V115.75C9.34998 116.25 9.84998 116.75 10.45 117.15C11.25 117.75 12.05 118.45 12.85 119.05C13.65 119.65 14.55 120.05 15.25 120.65C16.25 121.65 17.15 121.75 18.15 122.05Z" fill="#271812"/>
<path fill-rule="evenodd" clip-rule="evenodd" d="M8.14998 91.05C8.24998 90.95 8.54998 90.85 8.34998 90.55C8.24998 90.55 8.24998 90.55 8.24998 90.55C7.14998 91.35 6.34998 92.45 5.44998 93.55C4.34998 95.05 3.34998 96.5501 2.24998 97.9501C2.04998 98.2501 2.04998 98.45 2.24998 98.75C2.34998 98.55 2.44998 98.45 2.54998 98.25C2.84998 97.85 3.04998 97.3501 3.24998 96.9501C3.84998 96.0501 4.44998 95.2501 5.14998 94.4501C5.74998 93.7501 6.24998 93.0501 6.84998 92.3501C7.24998 91.9501 7.74998 91.55 8.14998 91.05Z" fill="#271812"/>
<path fill-rule="evenodd" clip-rule="evenodd" d="M7.14996 84.55C7.14996 84.55 7.24996 84.45 7.24996 84.35C7.14996 84.35 7.04995 84.35 6.94995 84.35C6.64995 84.55 6.24996 84.85 5.94995 85.05C4.94995 85.95 4.14996 86.85 3.34996 87.95C2.64996 88.85 2.04996 89.85 1.44996 90.85C1.34996 91.15 1.04996 91.55 1.24996 92.05C1.34996 91.85 1.54996 91.75 1.64996 91.55C1.94996 91.05 2.14996 90.45 2.44996 90.05C2.84996 89.45 3.34996 88.75 3.74996 88.15C4.04996 87.65 4.44996 87.25 4.84996 86.75C5.14996 86.35 5.44995 86.05 5.84996 85.75C6.24996 85.35 6.74996 84.95 7.14996 84.55Z" fill="#271812"/>
<path fill-rule="evenodd" clip-rule="evenodd" d="M6.65 78.8501C6.65 78.8501 6.65 78.7501 6.55 78.7501C6.45 78.8501 6.25 78.8501 6.15 78.9501C5.15 79.6501 4.35 80.4501 3.65 81.4501C2.95 82.4501 2.25 83.4501 1.45 84.4501C1.35 84.6501 1.35 84.8501 1.45 85.1501C1.95 84.3501 2.45 83.6501 2.95 82.8501C3.45 82.0501 4.05 81.4501 4.65 80.7501C5.35 80.1501 6.05 79.5501 6.65 78.8501Z" fill="#271812"/>
<path fill-rule="evenodd" clip-rule="evenodd" d="M7.44995 75.65C7.44995 75.65 7.44995 75.55 7.34995 75.55C7.24995 75.55 7.14995 75.55 7.04995 75.55C6.54995 75.95 6.04995 76.35 5.64995 76.75C4.84995 77.75 4.04995 78.75 3.34995 79.75C2.94995 80.35 2.44995 80.8501 2.04995 81.4501C1.94995 81.6501 1.94995 81.85 1.94995 82.05H2.04995C2.74995 80.85 3.64995 79.85 4.54995 78.75C5.34995 77.65 6.34995 76.65 7.44995 75.65Z" fill="#271812"/>
<path fill-rule="evenodd" clip-rule="evenodd" d="M7.64999 111.05C8.44999 109.95 9.14999 108.75 10.05 107.75C10.25 107.45 10.45 107.15 10.65 106.85C10.75 106.65 10.75 106.55 10.55 106.45C10.45 106.65 10.35 106.85 10.25 106.95C9.64999 107.75 9.04999 108.55 8.44999 109.35C7.84999 110.15 7.34999 111.05 6.84999 111.95C6.74999 112.05 6.84999 112.25 6.84999 112.35H6.94999C7.14999 112.05 7.24999 111.75 7.44999 111.45C7.54999 111.35 7.54999 111.15 7.64999 111.05Z" fill="#271812"/>
<path fill-rule="evenodd" clip-rule="evenodd" d="M9.14998 103.35C9.24998 103.25 9.34998 103.05 9.14998 102.95C7.34998 104.45 6.24998 106.35 5.34998 108.45C5.54998 108.55 5.64998 108.45 5.74998 108.35C6.04998 107.65 6.34998 107.05 6.74998 106.45C7.24998 105.75 7.74998 104.95 8.34998 104.25C8.64998 103.85 8.94998 103.55 9.14998 103.35Z" fill="#271812"/>
<path fill-rule="evenodd" clip-rule="evenodd" d="M10.55 109.55C10.45 109.45 10.35 109.45 10.35 109.35C9.74995 109.95 9.24995 110.55 8.94995 111.35C8.64995 112.05 8.14995 112.65 7.94995 113.55C8.34995 113.45 8.44995 113.15 8.54995 112.95C8.94995 112.25 9.24995 111.45 9.74995 110.85C10.05 110.45 10.25 109.95 10.55 109.55Z" fill="#271812"/>
<path fill-rule="evenodd" clip-rule="evenodd" d="M10.25 115.75C10.25 115.45 10.45 115.25 10.55 114.95C10.65 114.75 10.75 114.65 10.55 114.35C10.35 114.65 10.15 114.95 9.84998 115.15C9.54998 115.45 9.64998 115.75 9.84998 116.05C10.05 115.95 10.25 115.95 10.25 115.75Z" fill="#271812"/>
<path fill-rule="evenodd" clip-rule="evenodd" d="M10.85 116.35C10.75 117.15 10.75 117.15 11.35 117.15C11.35 116.35 11.25 116.35 10.85 116.35Z" fill="#271812"/>
<path fill-rule="evenodd" clip-rule="evenodd" d="M11.85 117.45C11.95 117.65 11.95 117.85 12.05 117.95C12.15 118.15 12.35 118.15 12.55 117.95C12.35 117.45 12.35 117.45 11.85 117.45Z" fill="#271812"/>
<path fill-rule="evenodd" clip-rule="evenodd" d="M32.95 80.05C32.85 80.25 32.65 80.35 32.45 80.45C31.55 81.15 30.75 81.85 29.85 82.55C28.95 83.25 28.15 84.05 27.25 84.65C27.15 84.65 27.15 84.7501 27.05 84.8501C27.05 84.9501 27.05 85.05 27.05 85.15C27.25 85.05 27.35 85.05 27.45 84.95C27.85 84.45 28.35 84.15 28.95 83.75C29.45 83.35 29.95 82.95 30.45 82.55C30.65 82.35 30.85 82.25 31.05 82.05C31.35 81.85 31.55 81.65 31.85 81.45C32.45 81.05 33.05 80.55 33.45 79.95C33.35 79.95 33.15 79.85 32.95 80.05Z" fill="#271812"/>
<path fill-rule="evenodd" clip-rule="evenodd" d="M29.45 91.1501C28.85 91.5501 28.35 92.0501 27.75 92.4501C27.75 92.4501 27.75 92.5501 27.65 92.6501C27.75 92.6501 27.85 92.7501 27.95 92.6501C28.15 92.4501 28.35 92.2501 28.45 92.0501C28.55 91.9501 28.75 91.7501 28.85 91.7501C29.05 91.7501 29.15 91.6501 29.25 91.5501C29.45 91.4501 29.55 91.2501 29.75 91.1501C30.85 90.3501 31.95 89.6501 33.05 88.8501C32.85 88.6501 32.65 88.6501 32.45 88.8501C31.55 89.7501 30.45 90.4501 29.45 91.1501Z" fill="#271812"/>
<path fill-rule="evenodd" clip-rule="evenodd" d="M27.95 86.55C28.05 86.55 28.05 86.55 28.05 86.45C28.95 85.75 29.95 85.05 30.85 84.35C31.55 83.75 32.3499 83.15 33.15 82.65C33.3499 82.55 33.45 82.45 33.25 82.15C32.85 82.45 32.55 82.75 32.15 82.95C31.55 83.35 30.95 83.85 30.35 84.25C29.75 84.65 29.35 85.25 28.65 85.55C28.35 85.75 28.25 86.25 27.95 86.55Z" fill="#271812"/>
<path fill-rule="evenodd" clip-rule="evenodd" d="M27.65 77.4501C27.55 77.5501 27.55 77.65 27.55 77.65C27.55 77.65 27.65 77.65 27.65 77.75C29.05 76.55 30.55 75.4501 32.25 74.4501C32.15 74.3501 32.15 74.25 32.05 74.05C31.75 74.25 31.55 74.45 31.25 74.65C30.45 75.15 29.65 75.75 28.85 76.25C28.35 76.65 28.05 77.0501 27.65 77.4501Z" fill="#271812"/>
<path fill-rule="evenodd" clip-rule="evenodd" d="M28.8499 90.4501C28.6499 90.4501 28.5499 90.6501 28.7499 90.9501C29.1499 90.6501 29.4499 90.4501 29.7499 90.2501C30.1499 89.9501 30.5499 89.5501 30.9499 89.2501C31.3499 88.9501 31.7499 88.7501 32.1499 88.4501C32.5499 88.1501 33.1499 87.9501 33.3499 87.2501C33.1499 87.3501 32.9499 87.4501 32.7499 87.5501C32.3499 87.8501 32.0499 88.1501 31.6499 88.3501C31.0499 88.8501 30.4499 89.2501 29.7499 89.7501C29.4499 89.9501 29.2499 90.3501 28.8499 90.4501Z" fill="#271812"/>
<path fill-rule="evenodd" clip-rule="evenodd" d="M28.65 94.15C28.85 93.95 29.05 93.75 29.25 93.65C30.05 92.95 30.95 92.45 31.75 91.85C32.05 91.65 32.35 91.45 32.55 91.25C32.85 91.05 33.05 90.85 33.45 90.65C33.35 90.65 33.25 90.65 33.25 90.65C32.85 90.65 32.65 91.05 32.25 91.15C31.75 91.45 31.35 91.85 30.95 92.15C29.95 92.85 28.95 93.55 28.15 94.45C28.25 94.45 28.45 94.35 28.65 94.15Z" fill="#271812"/>
<path fill-rule="evenodd" clip-rule="evenodd" d="M31.85 85.05C31.45 85.35 31.15 85.55 30.85 85.85C30.55 86.05 30.25 86.35 29.95 86.65C30.15 86.65 30.25 86.65 30.35 86.55C30.75 86.25 31.15 86.05 31.55 85.75C31.75 85.55 32.15 85.45 32.25 85.05C32.05 84.95 31.95 84.95 31.85 85.05Z" fill="#271812"/>
<path fill-rule="evenodd" clip-rule="evenodd" d="M28.05 94.35C27.95 94.35 27.85 94.35 27.75 94.45C27.35 94.75 27.05 95.05 26.65 95.35C26.35 95.55 26.25 95.85 26.25 96.15C26.35 96.05 26.55 95.95 26.65 95.95C26.75 95.75 26.95 95.55 27.05 95.45C27.35 95.05 27.85 94.85 28.05 94.35Z" fill="#271812"/>
<path fill-rule="evenodd" clip-rule="evenodd" d="M26.15 89.75C26.25 89.75 26.25 89.75 26.15 89.75C26.65 89.45 26.95 89.05 27.35 88.75L27.25 88.65C26.75 88.85 26.45 89.25 26.15 89.75Z" fill="#271812"/>
<path fill-rule="evenodd" clip-rule="evenodd" d="M27.55 79.9501C27.55 80.0501 27.65 80.0501 27.55 79.9501C27.95 79.7501 28.25 79.35 28.65 79.05C27.95 79.05 27.85 79.6501 27.55 79.9501Z" fill="#271812"/>
<path fill-rule="evenodd" clip-rule="evenodd" d="M26.15 88.05C26.55 87.75 26.95 87.55 27.15 87.05C26.65 87.25 26.55 87.75 26.15 88.05Z" fill="#271812"/>
<path fill-rule="evenodd" clip-rule="evenodd" d="M25.55 93.5501C25.65 93.5501 25.65 93.5501 25.55 93.5501C25.85 93.3501 26.15 93.1501 26.35 92.8501L26.25 92.7501C26.05 92.9501 25.65 93.0501 25.55 93.5501Z" fill="#271812"/>
<path fill-rule="evenodd" clip-rule="evenodd" d="M27.55 81.9501C28.15 81.2501 28.15 81.25 28.15 81.05C27.75 81.35 27.55 81.7501 27.55 81.9501Z" fill="#271812"/>
<path fill-rule="evenodd" clip-rule="evenodd" d="M15.05 45.85C15.15 46.35 15.25 46.85 15.45 47.35C15.45 46.85 15.55 46.25 15.05 45.85Z" fill="#271812"/>
<path fill-rule="evenodd" clip-rule="evenodd" d="M27.15 97.9501C27.95 97.4501 28.75 96.9501 29.45 96.2501C29.55 96.1501 29.55 96.0501 29.55 95.9501C28.65 96.4501 27.85 97.1501 27.05 97.8501C27.15 97.9501 27.15 97.9501 27.15 97.9501Z" fill="#271812"/>
<path fill-rule="evenodd" clip-rule="evenodd" d="M29.65 96.1501C30.05 95.8501 30.45 95.6501 30.75 95.2501C30.35 95.2501 29.75 95.6501 29.45 95.9501C29.55 95.9501 29.65 96.0501 29.65 96.1501Z" fill="#271812"/>
<path fill-rule="evenodd" clip-rule="evenodd" d="M23.55 99.15C23.15 99.25 23.15 99.55 22.95 99.85C23.35 99.85 23.35 99.85 23.55 99.15Z" fill="#271812"/>
</g>
<defs>
<clipPath id="clip0">
<rect width="34.2" height="123.3" fill="white" transform="translate(0.349976 0.550049)"/>
</clipPath>
</defs>
</svg>
